<svg width="698" height="654" viewBox="0 0 698 654" fill="none" xmlns="http://www.w3.org/2000/svg">
<mask id="mask0_15_1090" style="mask-type:luminance" maskUnits="userSpaceOnUse" x="65" y="24" width="590" height="593">
<path d="M493.666 62.04C492.869 61.585 492.118 61.1755 491.389 60.8115L489.295 59.583L490.547 60.2427L490.775 60.3565L493.962 62.0855C494.116 62.1423 494.261 62.2188 494.395 62.313L495.488 62.9728L493.621 61.9717M482.441 56.2614L479.413 54.7599L481.28 55.6472L481.986 55.9657L485.355 57.6492L482.441 56.2614ZM476.316 53.3039L474.039 52.2574L472.604 51.6432L468.051 49.6411L466.912 49.1179C468.187 49.6184 469.508 50.2326 470.054 50.4601L469.462 50.2099L471.011 50.9151L471.512 51.1199L473.06 51.7114H472.923L475.815 53.0309L476.111 53.1674L479.526 54.8509C478.525 54.3732 477.5 53.8727 476.43 53.3949M643.74 253.597C643.376 252.05 642.989 250.503 642.602 249.047L643.9 253.369V253.597C643.925 253.701 643.925 253.81 643.9 253.915V253.665M640.826 242.677L639.255 237.103C638.253 234.031 636.978 230.528 635.657 227.002L634.655 223.93L631.672 216.377C634.595 223.135 637.127 230.055 639.255 237.103L641.532 244.701L640.849 242.677M525.908 82.2422C522.037 79.4894 518.121 76.8049 514.159 74.2341L513.772 73.9611C517.893 76.6456 521.969 79.4212 525.953 82.2649M511.085 72.1866L510.698 71.9136C510.447 71.7316 510.447 71.7316 510.402 71.7316C511.199 72.2776 511.905 72.7098 512.679 73.1648L513.863 73.9839L511.085 72.1866ZM511.677 72.5733C516.504 75.6446 521.24 78.8296 525.908 82.1739C521.354 78.9661 516.094 75.5536 511.677 72.5733ZM652.666 304.239V304.557V304.261M653.167 311.086V311.314C653.156 311.239 653.156 311.162 653.167 311.086ZM653.167 310.722V309.653V309.471C653.167 310.017 653.167 310.586 653.281 311.064V310.7M653.099 308.061C653.087 307.924 653.087 307.787 653.099 307.651C653.099 307.173 653.099 306.696 653.099 306.218C653.099 306.923 653.099 307.651 653.258 308.356V308.061M650.799 287.267L650.457 284.218L651.095 288.495C651.231 289.383 651.3 290.293 651.414 291.18V291.408C651.231 290.02 651.026 288.655 650.799 287.29M643.968 253.665C644.032 253.489 644.032 253.295 643.968 253.119C644.196 254.302 644.492 255.53 644.765 256.804L643.854 253.665M142.423 100.329C140.146 102.285 137.983 104.264 135.843 106.244C138.12 104.128 140.01 102.353 142.423 100.329ZM228.424 93.0258C228.72 92.6163 229.016 92.2295 229.289 91.7973C229.562 91.365 230.132 90.364 230.587 89.6587L228.697 89.4085L225.669 90.6825L224.212 93.7538H226.898L228.424 93.094M223.506 89.09L223.733 88.9535L224.417 87.7477C223.916 87.998 223.437 88.3392 222.914 88.5895C222.599 88.7188 222.271 88.8104 221.935 88.8625C221.02 89.1476 220.136 89.521 219.293 89.9772C218.884 90.2047 218.405 90.4095 217.973 90.6143C218.109 90.8873 217.973 91.274 218.314 91.456C218.644 91.5303 218.986 91.5303 219.316 91.456C220.851 90.9865 222.276 90.2127 223.506 89.181M276.741 46.3196L279.519 45.7054V44.3176L276.764 44.2038H274.669L272.392 45.8191L270.98 47.1159H274.145L276.673 46.1604M504.368 68.1598C503.343 67.5228 502.319 66.9768 501.294 66.3853L500.725 66.2033L502.615 67.3408C503.981 68.1371 505.279 68.9561 506.622 69.7751H506.895C506.486 69.4566 506.007 69.2063 505.597 68.9106C504.778 68.3418 504.778 68.3418 504.3 68.0461M490.274 59.9015L487.223 58.5365L488.93 59.4237L487.109 58.491L486.904 58.3772L488.111 59.0142L487.723 58.8322C485.219 57.5355 482.623 56.2387 481.234 55.5334C479.276 54.5552 477.386 53.6679 475.86 52.9627L489.181 59.5375L490.41 60.1972M493.962 62.1082C493.643 61.9717 493.37 61.7897 493.074 61.6305L492.642 61.403L490.82 60.4247L494.053 62.1537M401.951 29.894C401.313 29.7347 399.674 29.4162 399.4 29.4162H399.81H399.583C396.919 28.8475 395.78 28.6655 395.78 28.6655C396.611 28.8009 397.433 28.9909 398.239 29.2342L397.533 29.0977L395.848 28.9612L395.439 28.8475L394.528 28.6882C394.812 28.7661 395.101 28.8268 395.393 28.8702H394.892H394.551C397.374 29.4162 398.307 29.6665 399.104 29.8257C397.314 29.2822 395.463 28.9613 393.594 28.8702C393.731 28.8702 395.689 29.3707 397.306 29.6665H397.488C397.779 29.7415 398.076 29.7948 398.376 29.8257H398.08C398.512 29.8257 399.651 30.1215 400.357 30.2807H399.446L401.245 30.713C401.905 30.8267 402.543 31.0087 403.203 31.0997H403.863C404.728 31.0997 405.503 31.805 406.413 31.5547L404.751 30.713C405.17 30.8198 405.596 30.8958 406.026 30.9405C404.888 30.531 403.749 30.4172 402.52 30.0532L401.905 29.894M402.133 30.6447H401.746H402.156M421.783 35.4223L421.009 35.1493C419.255 34.6715 417.502 34.2848 415.772 33.7615H414.838C412.925 33.1927 410.967 32.715 409.032 32.2145C408.736 32.2145 405.981 31.4865 405.024 31.3272L405.594 31.532C405.102 31.4734 404.616 31.3822 404.136 31.259L402.178 30.7585C400.061 30.5765 398.057 29.8257 395.985 29.5072C396.691 29.712 397.419 29.8712 398.125 30.0305L398.899 30.2352C401.996 31.0087 401.996 31.0087 402.543 31.1907C401.713 31.0985 400.896 30.9154 400.106 30.6447L399.355 30.44L398.535 30.2352L397.784 30.0532C397.194 29.8542 396.582 29.7244 395.962 29.6665C396.6 29.894 397.26 30.0532 397.898 30.258H397.488L396.213 29.9167C395.643 29.7575 395.051 29.5755 394.459 29.439C394.824 29.5805 395.197 29.702 395.575 29.803H394.755V29.9395C398.034 30.8722 401.404 31.4865 404.66 32.624C403.297 32.1476 401.895 31.7898 400.471 31.5547C402.333 32.1739 404.225 32.6978 406.14 33.1245C406.004 33.1245 406.004 33.1245 404.068 32.3965C405.343 32.3965 406.345 33.2382 407.688 33.2837H408.144C407.259 32.9026 406.355 32.5684 405.434 32.2827L404.228 31.9187H404.364L407.393 32.7832H408.007L407.165 32.4647L407.871 32.624C408.531 32.8287 409.214 33.0562 409.897 33.2155L410.512 33.4202C410.398 33.4202 410.398 33.4202 410.057 33.4202H409.783H409.146L409.419 33.6023H408.964C408.964 33.807 408.964 33.807 409.761 34.0573L411.468 34.626H411.582H411.833C412.629 34.808 412.652 34.808 412.834 34.7853C413.017 34.7625 412.698 34.626 411.924 34.262C412.822 34.4202 413.681 34.7525 414.451 35.2403C414.07 35.1514 413.681 35.1056 413.29 35.1038C414.397 35.7256 415.609 36.1418 416.865 36.3323C418.881 36.7508 420.855 37.3524 422.762 38.1295C422.762 38.1295 417.548 35.8545 416.91 35.6498H417.07C415.886 35.2175 414.588 34.7853 413.313 34.3758H413.586C412.067 33.6785 410.469 33.1668 408.827 32.8515C409.169 32.8515 409.556 32.8515 409.874 32.8515C415.681 34.535 415.681 34.535 420.143 36.0365H420.508C420.055 35.7802 419.583 35.5596 419.096 35.3768C420.191 35.6258 421.264 35.9605 422.307 36.3778H422.762C422.237 36.096 421.679 35.8819 421.1 35.7408C421.282 35.7408 421.601 35.7408 421.897 35.7408H421.76M649.911 283.513C648.309 273.247 646.173 263.072 643.513 253.028C641.923 251.818 640.049 251.035 638.071 250.753C632.249 249.454 626.357 248.489 620.424 247.864C620.712 249.737 620.811 251.635 620.72 253.528V253.983L620.584 254.325H620.401C620.047 254.349 619.707 254.476 619.422 254.689H619.172L618.99 254.802L618.83 255.03L618.443 255.394L618.033 254.916L617.692 254.37C617.282 253.983 617.214 253.983 617.145 253.983C616.449 253.829 615.786 253.552 615.187 253.164H614.709V253.733C615.916 254.802 615.916 254.802 616.667 255.053C617.011 255.351 617.237 255.763 617.305 256.213V256.827C617.51 257.259 617.806 257.805 618.011 258.238C618.141 258.702 618.247 259.173 618.329 259.648L618.466 260.103V260.717C619.154 263.069 620.053 265.353 621.153 267.543C621.596 268.841 622.242 270.062 623.066 271.16C623.362 271.16 623.498 271.16 623.658 271.296H624.204C624.432 270.546 624.204 269.772 624.363 269.021L624.819 269.795C630.488 283.672 630.488 283.672 630.762 285.72L630.875 286.471C630.875 292.204 634.519 296.822 635.816 302.168C636.477 305.149 635.338 308.288 636.727 311.268C637.812 313.494 638.659 315.827 639.255 318.23L639.437 319.003L642.579 339.638C642.442 343.005 642.306 346.053 642.101 349.056C642.161 350.618 642.492 352.158 643.08 353.607C643.457 353.663 643.841 353.663 644.218 353.607C644.856 352.264 644.856 350.74 645.539 349.421C646.039 349.24 646.587 349.24 647.087 349.421L647.201 349.944L647.793 348.283C647.787 347.22 648.046 346.173 648.547 345.235C649.048 344.298 649.775 343.5 650.662 342.914C650.662 342.368 650.89 341.617 650.981 341.071C651.209 339.729 652.484 334.883 652.507 334.86L653.121 335.384C653.121 331.698 653.281 329.605 653.281 329.582L653.554 329.833C653.554 328.331 653.554 326.83 653.554 325.283C653.417 315.454 652.825 306.241 651.823 297.118V297.687C651.619 296.162 651.459 294.661 651.209 293.137C650.981 291.157 650.753 289.474 650.503 287.745C650.503 287.221 650.321 286.675 650.207 286.152C650.412 288.427 650.412 288.427 651.095 294.911L650.776 294.479H650.662L650.343 293.432L650.184 293.25C650.184 294.229 650.184 295.207 650.184 296.185C649.457 294.588 649.121 292.841 649.205 291.089V290.589C649.364 290.247 649.364 290.247 649.41 290.247C649.503 290.599 649.674 290.926 649.911 291.203C650.097 290.443 650.025 289.642 649.706 288.928H649.41C649 288.359 648.954 287.585 648.203 287.244C648.131 287.103 648.021 286.984 647.884 286.903C647.634 285.219 647.406 283.513 647.133 281.852C645.562 275.573 642.579 269.704 642.351 263.084C642.807 263.22 643.763 263.561 645.949 272.343C646.651 275.559 647.728 278.682 649.159 281.648L649.342 281.852V281.352C649.342 281.056 649.342 281.079 649.342 281.102C649.548 281.661 649.693 282.24 649.774 282.831V283.035M643.376 252.55C632.813 212.445 614.172 174.916 588.592 142.257L596.015 152.063C605.328 164.985 605.328 164.985 620.743 192.535C627.984 206.845 627.984 206.845 638.959 236.784L643.74 253.051L643.535 252.709M529.118 111.817L531.395 111.999L530.826 111.795H530.576C530.282 111.625 530.001 111.435 529.733 111.226L529.187 110.566H528.982H528.413L528.253 110.748V110.862L528.709 111.499L528.891 111.613L529.232 111.863M476.475 60.675L473.06 58.5365H472.513L472.923 58.764L475.769 60.5612H476.635M531.373 111.999C541.983 112.61 552.541 113.925 562.977 115.935C564.396 116.165 565.748 116.701 566.939 117.505L565.436 115.981C542.461 94.459 542.461 94.459 529.665 84.9494L512.588 73.1193L506.668 69.4111C507.897 70.1846 508.011 70.2528 509.446 71.2083L510.63 72.0273L510.789 72.1866C513.066 74.2569 516.436 75.0759 518.166 77.8741L518.303 78.0334C516.231 76.7139 514.159 75.4399 512.155 74.0749H512.588L510.015 72.3913C509.127 71.8681 509.127 71.8681 508.762 71.6861L506.486 70.2301H506.281C505.824 69.9215 505.335 69.6623 504.823 69.4566H504.413C504.901 69.8669 505.418 70.2396 505.962 70.5713C506.296 70.6974 506.623 70.8417 506.941 71.0036L511.791 74.1886C512.792 75.0289 513.858 75.7896 514.979 76.4636C515.457 76.7366 515.821 76.9641 517.369 77.9651C517.567 78.0822 517.757 78.2113 517.939 78.3519C519.123 79.3756 520.489 80.2174 521.741 81.1502L520.716 80.6952L519.555 79.8989C519.282 79.7169 518.94 79.4666 518.644 79.3074L518.212 79.5349C519.282 80.5587 520.216 81.6962 521.286 82.7199V82.9702C523.312 84.4717 525.498 85.7685 527.411 87.3837C526.859 87.3379 526.323 87.175 525.84 86.906H525.43C523.613 86.1318 521.893 85.1468 520.307 83.9712C521.153 85.3525 522.411 86.4344 523.904 87.0652C524.29 87.414 524.701 87.7334 525.134 88.0207C525.297 88.1461 525.482 88.2388 525.68 88.2937C526.833 88.5814 527.877 89.1979 528.686 90.0682C528.686 90.3412 528.23 90.2957 527.889 90.2502L528.322 90.6825C526.045 90.273 521.491 86.5192 519.692 85.1087C519.369 84.9074 519.001 84.7901 518.622 84.7674L516.231 82.8792C512.269 79.6714 507.51 77.7376 503.412 74.7346C505.097 75.3716 510.948 78.2609 510.994 78.2836C511.607 78.4432 512.231 78.5572 512.861 78.6249C513.84 79.0344 514.728 79.6259 515.753 79.9444H516.14H516.322C516.242 79.601 516.196 79.2504 516.185 78.8979C511.251 74.6872 505.669 71.2995 499.655 68.8651C499.041 68.5014 498.402 68.1821 497.742 67.9095C497.15 67.5072 496.471 67.25 495.761 67.1588C495.488 67.2953 495.465 67.2953 495.42 67.2953C494.372 66.772 493.279 66.2488 492.255 65.68H491.64C492.275 66.0467 492.883 66.4572 493.461 66.9085H493.029C492.173 66.4944 491.364 65.9911 490.615 65.407L490.069 65.0203C488.962 64.4896 487.917 63.8412 486.949 63.0865H486.312L486.744 63.5188C485.678 63.2375 484.629 62.8957 483.602 62.495C483.175 62.3085 482.764 62.0879 482.373 61.8352H482.874L481.53 60.9025C479.775 59.893 477.891 59.1276 475.929 58.6275L478.206 59.9925C477.493 59.8091 476.816 59.5093 476.202 59.1052L475.337 58.5365L474.38 57.9222L472.764 57.763C473.754 58.2853 474.705 58.8783 475.61 59.5375L476.566 60.129L477.113 60.4247H476.908C475.846 59.6781 474.709 59.0451 473.515 58.5365C473.251 58.444 472.975 58.3904 472.696 58.3772L470.806 57.2397L470.328 57.1032L470.669 57.4672L470.214 57.6947C470.783 58.1952 471.466 58.582 472.058 59.0825V59.3327C471.325 59.0975 470.639 58.7356 470.031 58.2635C469.68 58.0271 469.27 57.8932 468.847 57.8767L468.574 58.309C469.658 59.4161 471.072 60.1425 472.604 60.3792C473.219 60.7205 473.743 61.0845 474.312 61.4257H473.743C472.913 61.1218 472.061 60.8859 471.193 60.7205H470.532C471.679 61.3645 472.755 62.1271 473.743 62.9955C471.466 62.1082 469.348 60.857 467.117 59.8332C467.117 60.1972 467.55 60.5157 468.005 60.7887C469.466 61.6093 470.807 62.6275 471.99 63.8145C471.307 63.9965 471.284 63.9965 469.212 62.4723L469.553 62.95L469.166 63.2685L470.168 64.1103C470.897 64.5653 471.739 64.7245 472.445 65.2478L473.288 65.9075L473.652 66.2488C471.859 65.5201 470.136 64.6292 468.506 63.587C468.665 64.1103 469.326 64.588 470.009 65.0885H468.939C468.939 65.3388 468.939 65.3388 470.532 66.408C470.226 66.5681 469.895 66.6757 469.553 66.7265L470.009 67.591L469.827 67.7048C470.052 68.0683 470.32 68.4042 470.623 68.7058H470.259L470.487 69.1608C470.753 69.3056 471.05 69.3837 471.352 69.3883C471.297 69.073 471.336 68.7483 471.466 68.4556H472.012V67.955C472.285 67.7568 472.511 67.5004 472.673 67.2043C473.176 67.1778 473.678 67.2641 474.143 67.4571C474.608 67.65 475.023 67.9445 475.36 68.319H474.358L474.722 68.6603L474.221 68.7741C475.149 70.037 476.227 71.1829 477.432 72.1866H476.862C476.862 72.1866 480.915 78.8524 481.735 79.6032L481.166 79.1254C480.915 80.2857 480.915 80.2857 481.029 80.6042C480.739 80.7738 480.483 80.9978 480.278 81.2639C480.505 81.5597 480.847 81.9464 481.097 82.2194L481.598 82.3787C481.991 82.3173 482.39 82.3173 482.782 82.3787C483.122 82.8162 483.495 83.2269 483.898 83.6072C483.773 83.9383 483.681 84.2813 483.625 84.6309H483.124C483.306 85.4727 483.238 85.5865 482.805 86.0415C483.039 86.5405 483.313 87.0198 483.625 87.4747L483.238 87.8842L481.963 87.2927C481.599 87.2668 481.234 87.2668 480.87 87.2927L481.644 88.3392L482.714 89.2492L482.577 89.7725L482.054 89.9545H481.598C481.166 90.455 481.166 90.455 480.984 91.365H480.483V91.8655C481.075 92.5253 482.304 93.913 480.483 93.8903C480.195 94.1798 479.991 94.5412 479.891 94.9368C481.189 96.2108 481.189 96.2108 481.325 96.6203L480.984 97.0298C481.507 98.2583 482.691 98.8498 483.42 99.8736C483.42 100.26 483.215 100.26 483.078 100.238L483.215 100.738C483.557 101.307 483.875 101.739 484.171 102.171H485.56C486.995 101.876 487.496 103.445 487.541 103.445L487.268 103.923C487.541 104.378 487.837 104.879 488.156 105.334L487.723 105.629C488.315 107.017 488.315 107.017 490.934 107.336C491.305 107.833 491.626 108.367 491.89 108.928L491.685 109.406L500.793 109.884C500.714 109.308 500.6 108.739 500.452 108.177L500.907 107.927L501.385 108.109C501.396 107.809 501.347 107.51 501.242 107.229C501.136 106.948 500.976 106.69 500.77 106.471C502.797 106.744 504.914 109.929 504.937 109.952C510.151 110.43 515.001 110.703 519.578 111.021V110.543H520.079C519.804 109.316 519.368 108.13 518.781 107.017L518.098 106.221C517.187 105.243 517.005 105.015 515.183 105.197C513.817 103.696 511.768 102.922 510.63 101.239C509.104 99.4868 507.601 97.7578 506.076 96.0515C506.076 94.2315 504.186 93.367 503.799 91.729H504.345C504.459 91.2057 504.505 90.8873 503.753 89.7725C504.038 89.6106 504.359 89.5244 504.687 89.5222C504.404 88.848 504.012 88.2252 503.525 87.6795V87.179H504.049C503.708 84.0622 500.361 83.9939 498.88 82.0602L499.063 81.5597C498.428 80.7594 497.743 79.9996 497.013 79.2846C497.347 79.1827 497.704 79.1827 498.038 79.2846H498.334H498.471L501.226 81.0592L501.044 80.5587C501.749 80.5587 501.772 80.5587 504.254 82.2194L506.531 84.2442H505.552C508.876 87.2017 509.241 87.4975 509.354 88.6122C508.999 88.5378 508.649 88.439 508.307 88.3165L507.92 88.6577C511.95 95.4828 511.95 95.4828 515.98 99.3731C516.459 99.8963 516.663 100.124 516.891 100.329C520.035 102.645 523.398 104.649 526.933 106.312H527.137C527.183 105.942 527.183 105.567 527.137 105.197C527.866 105.038 528.572 105.584 529.301 105.447L529.073 104.492C530.007 104.334 530.962 104.334 531.896 104.492V103.969C532.039 103.944 532.186 103.944 532.329 103.969C533.149 104.492 533.763 105.243 534.606 105.698L536.245 105.857L537.042 106.539L537.315 106.994C536.808 107.045 536.297 107.045 535.79 106.994C535.79 107.791 535.79 107.791 537.179 110.521C535.813 110.407 534.902 109.224 533.741 108.814L533.376 109.247C532.847 109.236 532.324 109.136 531.828 108.951L531.509 109.315V109.815C531.163 109.72 530.827 109.591 530.507 109.429L530.075 109.724C530.396 110.397 530.769 111.043 531.19 111.658L531.304 111.931M500.77 109.929L491.663 109.429C491.663 109.884 491.663 109.884 491.845 110.02C492.027 110.157 492.346 110.43 492.551 110.703L492.892 111.226H494.645L495.078 111.567C495.508 111.98 495.982 112.346 496.49 112.659L497.287 112.341C497.992 112.568 498.539 113.069 499.313 112.932C499.313 112.932 500.133 112.796 499.905 112.159V111.817C500.543 111.817 500.543 111.817 500.725 111.817L500.907 111.271C500.907 110.953 500.656 110.748 500.656 110.452V109.838M519.396 110.998C514.842 110.634 510.015 110.361 504.937 110.043C505.711 111.067 507.009 111.522 507.783 112.545L508.034 112.887V113.637C508.639 114.425 509.361 115.115 510.174 115.685C511.973 116.686 511.973 116.686 512.451 117.346L512.952 118.051L513.43 118.756C514.351 120 515.542 121.02 516.914 121.737C517.406 121.961 517.808 122.346 518.052 122.829C518.417 123.397 518.44 124.057 518.758 124.626L518.986 124.99C519.35 125.513 519.806 125.968 520.17 126.469L523.745 126.696C522.265 124.148 522.265 124.148 522.515 123.488C522.515 123.488 522.515 123.488 523.016 123.488H523.54C524.064 123.488 524.382 124.194 524.997 124.057C525.179 123.716 524.769 123.352 524.997 123.011C525.225 122.669 525.293 123.011 525.862 123.011C525.43 122.283 524.906 121.577 524.405 120.849H526.295C525.91 120.225 525.476 119.631 524.997 119.075H524.086C523.221 119.348 522.834 118.506 522.174 118.278L521.787 117.073C521.104 115.207 519.51 113.865 518.827 111.977L519.032 111.795V111.158L519.328 110.976M643.308 252.527C632.762 212.436 614.145 174.915 588.592 142.257C582.217 134.727 573.701 124.671 566.939 117.505C565.748 116.701 564.396 116.165 562.977 115.935C552.541 113.925 541.983 112.61 531.373 111.999L529.096 111.817L529.642 112.022H529.824L530.53 112.545C529.947 112.61 529.403 112.866 528.982 113.273C529.351 113.941 529.887 114.501 530.537 114.9C531.188 115.298 531.931 115.522 532.693 115.548C532.899 114.99 532.899 114.377 532.693 113.819C535.335 114.183 538.932 118.369 538.955 118.369C538.477 119.416 538.477 119.416 539.433 120.781C539.615 121.418 539.433 121.395 539.114 121.373C538.795 121.35 538.682 121.213 535.722 118.756H535.289L534.196 117.323H533.354C536.109 124.148 537.293 126.855 540.412 129.836L540.708 130.564C536.883 129.631 536.883 129.631 536.45 129.676C536.723 131.496 538.522 132.156 539.41 133.498L539.091 133.612C537.384 132.52 535.813 131.337 534.151 130.154C533.763 130.336 533.763 130.336 532.033 133.68C531.486 133.68 530.735 133.68 530.189 133.68C528.139 135.955 525.976 132.315 525.27 131.11H524.223C524.223 131.383 524.223 131.701 524.064 131.951H523.107C522.634 131.858 522.155 131.797 521.673 131.769H520.762C521.012 132.27 521.377 132.952 521.65 133.453C521.65 134.022 521.217 133.999 520.853 133.976C519.373 133.68 519.305 133.589 518.075 131.883H517.46H516.367L515.571 130.564L515.001 129.813C515.243 129.546 515.553 129.348 515.897 129.24C516.241 129.132 516.608 129.118 516.96 129.199C518.166 129.54 519.236 130.291 520.352 130.655L520.921 129.949C519.965 127.902 517.802 124.148 517.802 124.125C517.432 123.754 516.937 123.535 516.413 123.511C515.889 123.67 515.252 123.921 514.751 124.125C514.751 124.353 514.91 124.694 514.979 124.922C514.796 125.536 514.705 125.513 514.614 125.513C514.091 125.26 513.66 124.85 513.382 124.34C513.104 123.83 512.994 123.246 513.066 122.669L512.223 121.373C508.307 121.873 509.263 116.39 506.19 115.571C506.19 115.73 506.19 115.73 506.622 118.165C506.19 118.438 505.575 118.756 505.119 118.984C505.383 119.486 505.721 119.946 506.121 120.349C506.213 120.532 506.32 120.707 506.44 120.872C506.44 121.122 506.44 121.464 506.44 121.714L505.711 122.283C505.985 123.261 505.985 123.261 511.017 129.108C511.171 129.348 511.308 129.599 511.427 129.858L512.132 131.519C512.907 132.566 513.886 133.407 514.683 134.386C515.115 135.114 515.388 135.614 515.639 136.115H514.774C514.136 136.246 513.489 136.329 512.838 136.365H512.132C510.995 136.078 509.819 135.97 508.649 136.046C508.649 136.319 508.649 136.661 508.649 136.934C508.113 137.204 507.634 137.575 507.237 138.026C507.51 139.595 507.51 139.595 506.736 140.301L505.962 139.732H505.188H504.618H503.753C503.717 140.229 503.845 140.725 504.117 141.142L505.711 141.984C506.098 142.826 506.531 143.668 506.918 144.509C505.279 144.509 504.983 144.942 503.298 147.968H502.592C502.016 148.002 501.438 148.002 500.861 147.968C501.241 149.599 501.775 151.191 502.455 152.722C501.276 152.576 500.079 152.724 498.972 153.155C499.222 153.974 499.541 154.77 499.86 155.589H497.378C496.854 155.316 496.854 155.316 494.896 155.043C494.076 154.588 494.008 154.315 493.871 154.042C493.424 153.612 492.848 153.341 492.232 153.268C492.177 154.134 492.333 155.001 492.687 155.794L493.507 156.135C493.712 156.726 494.008 157.477 494.19 158.046L494.828 158.865C494.964 159.229 495.101 159.57 495.215 159.911C494.014 160.081 492.791 160.01 491.618 159.701C490.445 159.393 489.345 158.853 488.384 158.114C484.9 159.434 484.9 159.434 484.627 159.889C484.724 160.171 484.8 160.46 484.854 160.753C485.651 161.367 485.856 161.367 486.107 161.367C486.554 161.949 487.135 162.415 487.801 162.724C488.467 163.033 489.199 163.176 489.932 163.142H490.934C492.71 164.393 494.372 165.781 496.08 167.078C496.74 168.556 497.302 170.076 497.765 171.628C501.044 175.45 506.554 181.843 503.161 185.46C503.161 185.71 503.161 186.074 503.161 186.324C501.476 187.621 501.476 187.621 500.611 187.758H499.86C497.469 186.688 494.714 186.461 492.551 184.755C489.682 184.527 487.427 184.436 485.15 184.368C482.031 183.913 482.031 183.913 481.485 183.572C480.938 183.23 480.528 183.139 480.369 183.139L479.686 183.64C479.686 183.89 479.845 184.254 479.891 184.527C478.606 185.072 477.204 185.284 475.815 185.141L475.61 186.006C477.887 188.804 477.067 193.013 479.686 195.743C480.073 197.631 480.46 199.406 480.779 201.18C480.779 201.43 480.779 201.749 480.779 202.022C478.069 204.752 479.481 207.004 480.779 209.166L481.348 209.871C481.546 210.323 481.691 210.796 481.781 211.281C481.781 211.577 481.781 211.896 481.94 212.214C481.28 213.374 481.234 213.738 481.94 216.514C482.733 216.807 483.577 216.938 484.422 216.901C486.699 216.4 488.976 218.084 491.253 217.651C491.663 218.061 491.663 218.061 494.668 219.585C495.624 220.723 496.125 222.201 497.355 223.089L497.674 222.042L496.854 221.769C502.893 218.046 509.265 214.893 515.889 212.351L515.206 209.302C512.747 205.503 512.747 205.503 513.499 201.385C513.499 200.839 513.703 200.134 513.772 199.61H515.593C515.945 199.131 516.208 198.591 516.367 198.018C516.88 197.765 517.437 197.61 518.007 197.563L518.235 196.721L522.515 196.334C522.715 195.42 522.627 194.467 522.265 193.604L522.014 192.694C521.23 191.026 520.752 189.231 520.603 187.394C521.992 186.552 521.992 186.552 524.952 187.189H525.27C526.384 187.909 527.585 188.482 528.845 188.895C529.87 188.895 530.166 188.895 530.507 188.895L531.373 188.759C531.279 187.569 531.41 186.373 531.76 185.232C532.228 185.173 532.703 185.173 533.171 185.232C533.763 185.232 535.175 185.414 535.949 182.593C540.754 183.936 541.801 189.418 545.626 191.693C546.637 192.149 547.447 192.958 547.903 193.968C554.188 198.518 565.823 206.64 567.121 213.647C564.502 214.148 564.502 214.148 564.206 215.536C561.856 215.78 559.483 215.657 557.171 215.172C557.307 215.49 557.512 215.945 557.626 216.286C559.903 217.651 561.315 220.29 563.979 221.269L567.644 221.473C567.326 220.313 566.984 219.198 566.688 217.97C567.622 217.31 568.054 216.15 569.102 215.695C568.965 214.466 568.783 213.238 568.578 212.009C568.977 211.602 569.47 211.298 570.013 211.122C570.149 210.592 570.149 210.037 570.013 209.507C569.775 208.992 569.577 208.459 569.421 207.914C568.328 207.914 567.94 207.914 567.531 207.914C567.299 207.796 567.095 207.629 566.934 207.425C566.773 207.221 566.658 206.984 566.597 206.731C566.597 206.481 566.46 206.14 566.415 205.912C567.093 205.488 567.912 205.349 568.692 205.526C569.854 205.981 570.853 206.773 571.561 207.801C571.697 205.89 570.422 204.479 569.853 202.818C566.913 201.61 564.372 199.6 562.521 197.017C560.085 196.858 558.764 194.537 556.556 193.923C555.69 191.216 553.049 189.942 551.592 187.758C551.375 187.668 551.143 187.622 550.909 187.621C549.156 184.436 549.156 184.436 547.106 184.482C546.696 183.753 546.346 182.992 546.059 182.207L546.332 181.365C546.605 180.614 546.56 180.478 546.514 180.341C545.012 177.588 545.012 177.588 545.012 177.292C547.903 176.815 559.174 188.304 559.265 188.44C559.605 188.97 560.073 189.407 560.627 189.709C561.18 190.011 561.8 190.169 562.43 190.169L563.068 191.216C565.049 193.673 568.487 194.287 570.377 196.926C573.269 201.044 574.043 206.185 576.661 210.576C577.238 210.621 577.81 210.72 578.369 210.872C579.161 212.109 579.76 213.459 580.145 214.876H578.779L578.551 214.011L577.709 213.738C577.709 215.24 578.984 216.764 581.101 218.903C581.261 218.584 581.488 218.152 581.693 217.833C584.266 219.107 584.13 222.042 585.61 223.999C586.101 224.262 586.646 224.41 587.204 224.431H588.069C588.388 222.156 588.388 222.156 588.274 221.906L587.955 220.836C587.665 220.319 587.494 219.744 587.454 219.153L588.137 218.652C588.579 219.003 588.991 219.391 589.367 219.813H590.323C590.687 218.607 590.687 218.607 589.822 216.15H590.687L590.961 215.354C589.594 213.352 589.503 213.329 588.433 213.079C588.849 213.963 589.155 214.895 589.344 215.854C588.684 215.854 587.203 215.467 582.035 207.55C581.739 206.663 581.625 206.344 581.511 206.049C581.397 205.753 581.511 205.435 581.511 205.184L582.217 205.685C583.538 207.004 583.538 207.004 584.357 207.186H585.223H585.724C585.724 206.185 585.724 206.185 584.699 204.911C584.721 204.593 584.721 204.274 584.699 203.956C586.976 202.613 588.183 205.23 590.027 205.594C591.188 207.528 591.188 207.528 591.507 207.869C591.914 208.363 592.23 208.925 592.44 209.53L591.826 210.144C592.577 212.715 595.173 214.262 595.674 216.969C595.935 217.521 596.134 218.101 596.266 218.698C596.331 219.016 596.422 219.328 596.539 219.631C596.958 220.514 597.453 221.359 598.019 222.156L598.338 222.656L598.657 222.907L598.975 223.407L599.431 223.908L599.75 224.272C600.086 224.879 600.273 225.557 600.296 226.251V226.729V227.32C600.54 228.265 600.868 229.186 601.275 230.073L601.639 230.551L601.981 230.937C602.071 230.449 602.071 229.947 601.981 229.459L601.844 228.253C601.662 227.684 601.412 226.911 601.207 226.365L600.979 225.5C600.979 224.977 600.979 224.977 601.23 225L601.503 225.113L601.867 225.523L602.14 225.978L602.505 226.387C602.846 226.82 603.324 227.411 603.666 227.889L604.053 228.48L604.372 228.981L604.69 229.231H605.123C605.592 229.294 606.03 229.5 606.375 229.823L607.15 230.005L607.286 229.777L607.423 229.459L607.241 229.004V228.503C606.603 226.956 606.603 226.956 606.626 226.046V225.568L606.763 225.136C607.333 225.16 607.879 225.377 608.311 225.75C608.603 226.223 608.923 226.679 609.267 227.115C609.632 227.548 610.064 228.116 610.428 228.503L610.724 229.004L611.02 229.368L611.248 229.527L611.612 229.8L614.299 230.096C614.163 229.595 613.958 228.935 613.776 228.435L613.616 227.843C613.382 227.236 613.192 226.613 613.047 225.978L613.571 226.114H613.707H614.003C614.345 226.296 614.345 226.296 615.62 227.798C615.816 227.882 616.023 227.936 616.235 227.957L616.371 227.752V227.32V226.956L616.599 227.115C616.789 227.549 617.026 227.961 617.305 228.344L617.487 228.799C617.836 229.805 618.095 230.841 618.261 231.893C618.464 233.698 618.94 235.463 619.673 237.126L619.855 237.603C620.376 238.434 620.645 239.398 620.629 240.379V240.72V240.538C620.796 241.088 620.918 241.651 620.994 242.222V242.699C620.88 245.498 620.88 245.498 620.698 245.816V246.157V246.612V247.113C628.485 248.523 634.359 249.388 638.435 250.48C640.414 250.762 642.287 251.545 643.877 252.755M653.508 311.314L653.053 305.399C653.053 305.058 653.053 304.694 653.053 304.352V304.216C652.575 298.779 651.937 294.251 651.937 294.229V294.092C652.165 296.026 652.233 296.481 652.279 297.368C653.281 306.468 653.865 315.69 654.032 325.032V325.214V323.19C654.032 321.574 653.895 319.959 653.918 318.321V319.572C653.918 319.572 653.804 315.932 653.508 311.359M651.231 288.609L650.594 284.309C648.772 274.959 646.427 262.447 644.127 253.187L643.922 252.846C646.583 262.89 648.719 273.065 650.321 283.331C650.617 284.992 650.799 286.675 651.14 288.313V288.632M459.945 109.474V109.315L459.057 109.702C458.738 109.929 458.783 110.361 458.465 110.589L457.964 110.748V111.385C457.964 111.772 457.508 112.068 457.508 112.5C457.568 112.821 457.683 113.129 457.85 113.41L458.647 113.774L459.125 113.455C459.125 113.455 459.125 113.455 459.125 113V112.591V112.204H459.284C459.808 112.204 460.332 112.204 460.377 112.068L460.263 111.795L460.058 111.408L460.172 110.725V110.566C460.172 110.202 459.99 109.815 459.899 109.542M499.154 141.552C498.912 140.998 498.639 140.459 498.334 139.937C496.877 139.072 496.057 137.525 494.554 136.638L494.053 136.911C494.349 137.298 494.349 137.298 494.053 138.685C493.461 139.004 493.461 139.004 490.706 134.431H488.839C488.5 133.468 488.105 132.526 487.655 131.61C486.835 130.632 485.515 130.359 484.627 129.472L483.989 129.062C483.42 127.993 482.008 127.765 481.576 126.582C481.28 125.877 479.094 123.648 477.864 123.579C475.747 123.579 473.857 122.829 474.95 121.145C474.768 120.622 474.768 120.622 474.768 120.44C475.138 120.478 475.512 120.478 475.883 120.44C475.769 120.19 475.656 119.939 475.428 119.53C474.972 118.733 475.997 118.096 475.656 117.255C475.314 116.413 474.676 115.366 474.153 114.411C472.172 114.411 470.214 114.274 468.21 114.024C468.21 113.41 468.21 113.41 468.46 113.16C468.46 112.5 467.823 112.113 467.823 111.453C468.073 110.998 468.293 110.527 468.483 110.043C467.823 109.474 467.777 109.429 467.299 109.36H465.705C465.478 109.36 465.136 109.633 463.11 109.36L462.95 109.497C463.281 110.354 463.511 111.248 463.633 112.159C463.929 113.023 464.499 113.751 464.84 114.593C463.679 114.593 462.722 113.933 461.63 113.774C459.899 113.569 461.834 116.049 461.903 116.231C462.495 117.027 463.679 116.595 464.316 117.346V117.846C464.473 118.14 464.61 118.444 464.726 118.756C464.726 119.462 465.751 119.894 465.455 120.758C463.724 121.168 463.724 121.168 464.658 122.806C465.09 122.806 465.523 122.806 466.092 122.806C466.229 122.647 466.366 122.442 468.369 124.034H469.667C469.427 123.596 469.309 123.101 469.326 122.601C469.326 122.601 472.149 125.195 471.899 126.355C470.282 126.355 471.102 127.31 472.035 128.266L475.291 128.402V127.674C477.454 128.789 477.955 131.587 480.209 132.611C480.551 134.158 480.551 134.158 480.87 134.522C481.803 135.569 481.917 135.933 481.507 136.41H479.526C478.889 136.251 478.342 135.751 477.614 135.751H476.657C476.657 135.887 476.657 135.887 476.453 136.524V137.32C476.073 137.297 475.693 137.297 475.314 137.32L475.451 138.071C476.749 138.822 479.321 138.071 479.435 140.141C479.186 140.108 478.933 140.108 478.684 140.141C478.251 140.665 478.251 140.665 478.32 141.324C478.092 141.529 478.001 141.597 477.432 141.552H476.976C477.637 144.76 479.071 143.827 479.64 143.463C481.452 143.599 483.254 143.842 485.037 144.191C485.333 144.191 486.038 145.306 485.401 145.783C484.763 146.261 483.124 145.783 482.19 146.375C482.214 146.64 482.214 146.906 482.19 147.171C481.557 147.201 480.93 147.308 480.323 147.49C480.703 148.194 480.935 148.968 481.006 149.765C480.606 150.34 480.005 150.745 479.321 150.902C480.483 151.539 480.483 151.539 482.145 150.902L482.76 150.334V149.765C483.364 149.895 483.946 150.109 484.49 150.402H486.539C485.902 148.673 485.947 148.582 486.107 148.263C491.344 149.219 491.275 148.445 491.184 147.422L491.344 147.24C492.596 147.376 493.37 148.536 494.6 148.741H495.01C495.852 148.4 496.74 148.991 497.583 148.605C497.97 148.423 497.924 147.967 497.879 147.376C498.448 147.126 499.154 147.535 499.7 146.989C499.45 145.783 498.311 145.192 497.697 144.214L497.492 143.69C497.332 143.304 497.332 143.304 497.492 143.008C497.87 142.973 498.251 142.973 498.63 143.008C498.63 143.008 498.448 142.143 498.243 141.438H499.518M471.193 130.086C470.942 129.039 469.895 128.698 469.326 127.925C468.756 127.151 468.961 126.855 468.529 126.446C468.281 126.189 467.977 125.995 467.641 125.877C467.39 125.741 467.117 125.877 466.867 125.877C466.616 125.877 466.388 125.445 466.07 125.354H465.751C465.262 125.425 464.791 125.587 464.362 125.832V126.56L463.838 126.901C463.124 126.328 462.363 125.818 461.561 125.377C461.058 125.276 460.539 125.276 460.036 125.377C460.582 126.605 460.81 127.902 461.425 129.085H461.151H460.992L460.514 129.426C460.241 129.426 459.99 129.426 459.717 129.426L459.444 129.585C459.193 129.767 458.829 130.04 458.465 129.813C457.713 129.335 457.713 129.335 457.098 129.472C457.781 131.246 458.396 133.021 459.057 134.818C459.813 134.908 460.577 134.908 461.334 134.818C461.63 135.591 461.926 136.388 462.199 137.093C461.63 137.093 461.06 137.093 460.514 137.229C459.854 138.344 461.038 139.277 460.81 140.369C460.195 140.687 459.945 140.847 460.559 141.916C461.046 142.506 461.695 142.941 462.426 143.167C463.064 143.372 463.451 142.712 464.043 142.689C464.643 142.72 465.224 142.909 465.728 143.235C466.366 143.235 466.935 142.348 466.98 142.234C467.026 142.121 466.98 142.234 466.821 141.347C466.821 140.983 467.185 140.96 467.299 140.687L473.242 140.892C473.083 140.551 472.969 140.164 472.832 139.8C472.696 139.436 471.785 138.845 471.694 138.071C472.4 137.571 472.4 137.571 472.308 137.07C471.86 135.495 471.25 133.97 470.487 132.52L469.872 130.996C471.147 130.996 471.284 130.404 471.17 129.858M607.901 486.013C608.083 485.74 608.265 485.444 608.425 485.148C614.709 474.183 614.595 473.637 614.368 472.181C612.151 476.065 609.711 479.818 607.059 483.419C604.782 483.578 605.419 486.149 604.007 487.014C602.049 486.513 602.049 486.513 596.585 494.339C594.194 497.797 593.442 502.256 589.959 505.009L589.776 504.782C587.5 507.352 585.519 510.105 583.355 512.721C583.143 512.983 582.946 513.257 582.763 513.54C581.853 514.837 581.101 516.248 580.145 517.544C579.758 518.045 579.394 518.568 578.961 519.114C577.891 520.616 576.684 522.026 575.637 523.664L575.819 523.892C576.138 523.892 576.479 523.892 576.798 523.892C576.069 525.052 576.069 525.052 576.069 525.28L576.32 525.416V525.735C581.488 524.461 603.051 493.498 603.256 493.179L604.326 491.495C604.645 490.904 604.941 490.335 605.283 489.766C605.624 489.198 605.601 489.198 605.783 488.925C606.489 487.946 607.286 487.036 607.901 486.035M648.658 365.232C648.853 364.605 648.878 363.938 648.73 363.298C648.582 362.659 648.266 362.07 647.816 361.592L647.11 363.344L645.243 363.867C644.572 363.804 643.895 363.85 643.239 364.003C642.898 363.617 642.465 363.093 642.146 362.684C642.146 356.564 642.146 356.564 641.645 355.199C641.645 342.095 633.13 330.697 634.109 317.388C634.109 316.683 634.109 315.978 634.109 314.704C634.109 314.34 629.168 275.164 613.297 253.483C613.138 253.483 613.001 253.483 612.022 253.801C611.704 254.211 611.271 254.78 610.929 255.189H610.497C602.323 251.617 595.583 245.02 586.27 243.814C587.067 247.773 588.16 251.663 588.547 255.667L586.885 256.031H584.79C583.105 254.438 582.103 252.095 579.712 251.253C577.621 251.152 575.537 250.925 573.474 250.571C572.927 249.57 572.768 247.955 571.993 247.09C568.328 242.768 562.339 242.768 557.99 239.651C553.163 236.17 556.487 229.322 552.252 225.614C552.252 225.068 552.138 224.317 552.116 223.748C553.108 223.202 553.905 222.359 554.393 221.337C552.927 220.187 551.291 219.273 549.543 218.63C546.053 219.599 542.44 220.059 538.818 219.995C538.094 220.867 537.184 221.567 536.154 222.042C532.192 218.561 532.192 218.561 524.769 219.767C524.496 220.245 524.155 220.927 523.881 221.428C521.224 221.101 518.527 221.462 516.049 222.474C515.982 223.622 515.704 224.748 515.229 225.796C512.952 226.296 510.675 225.659 508.535 226.865C507.953 226.838 507.374 226.762 506.804 226.638L504.937 226.251H503.639C499.495 226.251 498.585 225.523 496.945 224.09L495.169 223.066C493.621 225.796 494.896 228.867 494.031 231.665C492.249 231.921 490.439 231.921 488.657 231.665C489.021 234.282 489.386 236.966 489.704 239.628C487.561 239.375 485.388 239.649 483.374 240.424C483.374 244.792 482.896 249.16 483.147 253.551C483.147 254.711 483.352 255.826 483.443 257.032C481.663 256.812 479.857 257.063 478.206 257.76C478.225 259.733 477.5 261.641 476.175 263.104C474.85 264.566 473.023 265.477 471.056 265.654C469.371 265.905 461.812 284.537 461.789 284.719L460.104 284.582L458.442 284.924L456.802 285.947C457.463 296.185 456.142 296.708 452.112 298.233C451.907 298.733 451.679 299.416 451.52 299.916C451.411 301.26 451.764 302.6 452.522 303.715C459.717 305.058 459.717 305.058 460.446 306.445C458.51 310.336 458.51 310.336 458.51 323.372C458.51 324.054 458.51 324.759 458.51 325.465C458.51 327.057 458.51 327.057 454.776 330.834C454.958 333.336 455.914 335.679 456.324 338.136C456.324 338.819 456.324 339.501 456.324 341.89C456.324 341.89 463.61 354.517 470.623 358.202C470.282 361.205 469.417 369.236 480.414 370.009C487.814 384.479 488.27 385.343 495.101 384.433C495.763 383.36 496.284 382.205 496.649 380.998C498.926 380.065 501.203 381.134 503.48 380.566H504.55C506.076 380.566 506.076 380.566 509.855 380.679C511.267 382.795 511.267 382.795 520.762 382.795C523.677 376.925 526.136 377.471 531.555 378.655C531.902 378.711 532.255 378.711 532.602 378.655C532.602 378.655 537.156 373.9 541.072 377.085C541.687 385.093 541.687 385.093 544.92 386.526L557.307 387.186C556.966 389.233 556.647 391.281 556.26 393.601C554.643 397.674 554.643 397.674 550.362 412.302C549.326 412.644 548.436 413.325 547.835 414.236C548.439 415.231 549.327 416.023 550.385 416.511C551.501 419.218 550.385 422.631 552.981 424.883C552.093 433.323 556.715 441.923 552.275 450.249C552.07 450.864 551.842 451.478 551.205 453.548C551.081 454.763 551.285 455.988 551.797 457.097L538.978 478.232C530.986 483.715 532.648 501.892 532.716 502.029C531.111 504.625 530.078 507.534 529.688 510.56C528.117 513.29 526.523 515.997 524.656 519.114C524.656 519.273 515.343 543.002 514.068 546.665C513.84 546.915 513.658 547.142 513.066 547.757C510.129 549.281 510.129 549.281 509.4 551.51C509.673 551.51 509.969 551.51 509.4 552.625L508.193 553.99L508.489 555.765C510.147 555.926 511.818 555.926 513.476 555.765C514.617 555.312 515.789 554.939 516.982 554.65C518.867 554.871 520.777 554.724 522.606 554.218C536.86 540.75 554.78 531.923 568.965 518.341L601.48 478.528C601.958 477.641 602.391 476.753 603.575 474.569C604.079 473.517 604.527 472.438 604.918 471.339C606.671 467.813 608.402 464.263 610.041 460.282C610.77 453.776 614.595 448.316 615.961 441.968C616.075 441.65 616.189 441.331 616.462 440.649C621.768 428.409 630.807 418.331 636.044 406.091C646.609 381.498 646.609 381.498 648.795 365.414M369.527 437.236C369.527 437.236 369.117 427.203 364.199 425.065H359.531C352.131 422.79 352.131 422.79 351.471 418.467C346.917 415.487 346.917 415.487 343.501 416.443H336.989C330.659 413.895 330.659 413.895 328.815 414.645C328.815 415.169 328.815 415.851 328.815 416.374C327.471 417.171 326.743 417.603 323.555 415.965C323.555 415.533 323.555 414.964 323.555 414.532C324.306 414.077 325.24 413.462 325.969 412.985C322.624 410.259 318.659 408.399 314.424 407.57C313.632 407.536 312.856 407.335 312.148 406.979C311.317 406.415 310.372 406.041 309.38 405.884C308.388 405.726 307.374 405.789 306.41 406.068C306.41 407.615 306.41 409.163 306.569 410.619H302.288C302.242 409.724 302.242 408.828 302.288 407.934C302.812 407.297 303.518 406.41 304.042 405.659L305.248 404.749C305.021 404.339 304.702 403.816 304.451 403.407C304.451 403.407 301.742 402.588 298.873 401.45H297.78C297.014 401.464 296.251 401.556 295.503 401.723C295.731 405.022 295.799 406.546 291.632 405.909C291.576 405.084 291.576 404.255 291.632 403.429V401.951C293.088 402.137 294.565 401.85 295.845 401.132C296.983 395.512 295.981 393.237 295.617 392.373C294.752 392.373 293.59 392.373 292.725 392.373C292.657 390.281 292.429 388.197 292.042 386.139C291.373 384.394 290.613 382.686 289.765 381.021C284.619 379.792 284.141 378.382 283.686 377.017C280.969 376.093 278.309 375.015 275.716 373.786C273.189 372.557 270.753 374.195 268.248 374.059H266.495C254.472 371.784 254.495 366.893 254.518 364.822C252.365 363.769 250.268 362.608 248.233 361.342C248.233 361 248.233 360.659 246.89 360.159C244.613 358.612 244.613 358.384 244.613 355.427C244.032 355.43 243.452 355.491 242.883 355.609C241.448 356.041 240.105 356.678 238.647 356.996C237.463 355.904 237.463 355.904 237.213 352.879L238.693 352.446C238.693 352.037 238.875 351.491 238.921 351.081C237.73 350.282 236.377 349.754 234.959 349.534L232.864 351.354C232.682 351.354 232.522 351.354 231.634 350.967C230.755 350.65 229.835 350.458 228.902 350.399C227.627 351.878 227.377 353.925 226.17 355.449H224.872C222.732 351.946 222.595 351.923 219.362 351.286C217.606 351.342 215.849 351.282 214.102 351.104C213.181 350.777 212.237 350.519 211.278 350.331C211.332 349.751 211.242 349.168 211.016 348.632C210.789 348.096 210.434 347.625 209.981 347.259C207.704 346.599 205.973 344.984 203.696 344.415L202.512 345.234C202.512 345.439 202.512 345.439 197.139 351.127C197.75 353.577 198.161 356.072 198.368 358.589L197.321 359.544C195.841 357.065 191.515 348.533 198.573 342.709L198.14 341.64C197.435 341.64 196.82 341.64 195.704 341.799C193.086 342.664 193.108 342.937 193.427 346.19H188.463C182.566 350.285 182.566 350.285 179.356 350.308C179.356 352.287 179.561 354.289 179.356 356.541C178.263 357.724 178.263 357.724 175.508 358.589C175.508 362.775 169.587 365.141 171.864 369.964L173.231 370.191C173.481 374.377 178.695 378.95 174.141 382.704C173.618 390.348 173.618 390.348 171.022 390.803C171.25 391.85 171.591 393.26 171.887 394.307C171.227 394.807 170.384 395.535 169.77 396.081C169.77 396.718 169.77 397.537 169.77 398.151C166.901 399.198 166.81 400.426 167.356 404.112C166.278 404.07 165.203 404.24 164.191 404.612C165.034 407.479 164.806 410.505 165.808 413.303C167.175 413.473 168.554 413.519 169.929 413.44C170.043 414.077 170.179 414.714 170.271 415.487C170.066 415.874 169.815 416.374 169.633 416.761C168.734 417.031 167.913 417.515 167.242 418.172C167.72 421.106 165.512 424.246 167.766 427.09C167.843 427.512 167.942 427.929 168.062 428.341C169.861 436.872 180.153 438.738 182.543 446.814C182.703 447.519 182.885 448.225 183.158 449.089C185.298 451.887 185.89 455.596 188.577 458.053C193.792 462.807 193.609 474.342 203.491 473.045C212.599 471.839 213.214 484.42 221.707 484.306C222.572 487.287 223.437 490.267 224.417 493.406C224.519 494.356 224.765 495.284 225.145 496.159V496.569C225.145 496.865 225.327 497.138 225.783 498.184C225.988 498.548 226.238 499.049 226.42 499.413C226.503 499.91 226.503 500.417 226.42 500.914C226.531 501.894 226.784 502.852 227.172 503.758V504.008C227.364 504.595 227.648 505.148 228.014 505.646L228.561 507.011L228.697 507.466C228.897 508.145 228.959 508.856 228.879 509.559C229.248 510.463 229.738 511.313 230.337 512.084C230.337 512.357 230.519 512.63 230.633 512.903C230.74 513.194 230.831 513.49 230.906 513.791C231.338 516.612 230.655 519.547 231.771 522.299C232.887 525.052 232.682 524.847 233.775 533.674C233.775 533.834 233.957 533.993 234.481 534.88C240.287 544.412 242.245 547.643 240.924 552.216C241.257 552.911 241.653 553.574 242.108 554.195C242.268 554.582 242.518 555.105 242.7 555.492C243.497 556.516 243.497 556.516 243.292 561.703C246.753 565.047 247.254 570.234 250.784 573.487C253.266 575.626 252.582 579.835 255.975 581.359H257.455L254.04 576.081H255.93C256.317 576.672 256.704 577.264 257.114 577.946C257.114 578.356 257 578.924 256.931 579.357C257.66 580.38 258.434 581.404 259.208 582.542C260.252 584.655 261.454 586.685 262.806 588.616C261.986 588.161 260.962 587.501 260.187 587.001L259.778 586.455L258.776 585.34C258.776 585.34 258.912 585.522 258.343 585.636C258.818 586.306 259.403 586.89 260.074 587.365C261.689 588.283 263.093 589.531 264.195 591.028C262.874 590.595 261.781 589.663 260.461 589.208C260.95 589.653 261.285 590.243 261.417 590.891C261.417 591.323 261.576 591.869 261.599 592.279C264.4 594.008 267.792 594.69 270.001 597.329C269.142 597.568 268.358 598.023 267.724 598.649L268.931 599.673C269.591 600.173 270.502 600.833 271.208 601.288C271.532 601.708 271.828 602.149 272.096 602.607C273.758 603.517 275.147 604.882 276.764 605.77L276.559 606.225L277.583 606.657C278.047 606.676 278.504 606.784 278.927 606.976C279.497 607.72 280.297 608.256 281.204 608.5L281.568 608.818L291.997 614.369C292.242 614.599 292.509 614.804 292.793 614.984C294.151 615.427 295.535 615.784 296.937 616.053C297.437 616.113 297.926 616.235 298.395 616.417C299.368 616.428 300.341 616.382 301.309 616.28L301.97 615.461C300.743 614.709 299.333 614.307 297.894 614.301C297.598 614.005 297.302 613.71 295.845 613.346C295.845 613.346 293.773 611.844 291.291 609.842C290.949 609.498 290.584 609.179 290.198 608.887C289.173 607.863 287.921 607.066 286.987 606.065C286.681 605.725 286.337 605.42 285.963 605.156L284.642 603.677C284.391 603.335 284.073 602.903 283.777 602.562C284.38 602.625 284.988 602.514 285.53 602.243C284.892 601.545 284.327 600.782 283.845 599.968L284.961 599.127C284.642 598.239 284.164 597.034 283.845 596.124C284.095 595.805 284.369 595.305 284.596 594.963C284.369 594.622 284.095 594.281 282.866 593.849L281.477 593.553C277.06 590.573 277.06 590.573 276.513 589.89C276.399 589.731 276.286 589.549 276.081 588.411C276.354 588.093 276.718 587.638 276.969 587.297H279.838C279.011 586.084 278.403 584.737 278.039 583.315C277.664 581.989 277.458 580.621 277.424 579.243L278.904 579.38C278.904 578.97 279.041 578.424 279.109 577.992C279.177 577.56 278.904 577.605 277.948 576.809H277.697H277.515L276.263 577.514C275.352 576.9 275.352 576.9 273.53 574.306C273.189 573.692 272.893 573.055 272.551 572.441H273.69C274.653 572.823 275.589 573.272 276.49 573.783H279.906C279.701 573.442 279.428 572.941 279.2 572.577C278.972 572.213 279.018 572.145 278.631 571.098C278.79 569.506 278.79 569.506 277.128 567.322C276.9 566.821 276.718 566.344 276.49 565.82C277.601 565.834 278.711 565.781 279.815 565.661H281.91C282.274 565.479 282.843 565.274 283.253 565.092C284.232 565.092 285.234 565.092 286.6 565.092L287.944 565.32C287.944 562.84 289.879 561.202 290.744 559.086L291.04 557.79C290.812 557.107 290.608 556.425 290.425 555.742C289.966 555.736 289.508 555.683 289.059 555.583C289.059 555.128 288.786 554.673 288.49 553.626C286.942 551.693 284.232 551.124 282.889 548.917H285.78C295.321 551.192 297.552 551.67 298.304 548.189C300.763 536.404 302.994 535.13 303.837 534.675C304.165 535.53 304.26 536.457 304.11 537.36L305.522 537.656C306.775 535.602 307.842 533.439 308.709 531.195C308.983 528.647 312.421 528.601 312.808 526.121C313.332 522.527 309.37 519.706 311.009 515.906C313.432 512.966 316.089 510.227 318.956 507.716C320.299 507.716 321.642 507.716 323.51 507.716C324.641 506.84 325.686 505.857 326.629 504.782C330.032 504.861 333.436 504.77 336.83 504.509C336.96 503.604 337.295 502.74 337.809 501.983C339.641 500.614 340.97 498.679 341.589 496.478C342.445 495.998 343.267 495.458 344.048 494.862C343.994 492.743 344.564 490.655 345.687 488.856C346.621 488.288 346.621 488.288 347.964 480.939C348.006 480.234 348.192 479.545 348.51 478.915C349.458 477.186 349.995 475.264 350.082 473.295C350.1 472.535 350.054 471.773 349.945 471.02C349.945 470.611 349.786 470.065 349.694 469.655C349.737 468.704 349.683 467.752 349.535 466.812C349.412 464.846 349.812 462.884 350.696 461.124C351.607 460.874 351.607 460.874 357.186 453.707C357.932 453.715 358.668 453.533 359.325 453.179C359.982 452.824 360.539 452.31 360.943 451.683L367.591 442.469C369.367 439.147 369.367 439.147 369.481 437.327M223.756 311.496L223.984 311.359C223.483 310.836 222.481 311.155 222.14 310.336C221.798 309.517 222.299 308.311 222.14 307.31C220.315 307.914 218.413 308.251 216.493 308.311H214.626C213.647 308.106 212.872 307.378 211.871 307.31H210.937C210.117 307.606 209.867 308.629 209.002 308.902H205.837C204.516 308.902 204.106 307.378 202.968 307.105C201.829 306.832 200.691 305.171 199.188 305.126L192.995 304.876C191.829 304.931 190.674 305.13 189.556 305.467C189.556 307.583 189.556 309.699 189.556 311.792C191.264 314.067 192.425 315.272 193.017 315.432H194.93C196.524 315.432 196.524 315.432 197.822 313.725C198.436 312.906 200.713 312.633 200.713 312.633C201.784 312.633 202.74 313.179 203.765 313.179C204.789 313.179 205.791 312.611 206.838 312.633C209.215 312.647 211.583 312.333 213.874 311.701C214.155 311.527 214.478 311.436 214.808 311.436C215.138 311.436 215.461 311.527 215.741 311.701C217.235 312.079 218.759 312.33 220.295 312.451H222.185C222.868 312.451 223.301 311.814 223.847 311.496M175.826 314.476L176.008 314.158C175.804 313.498 176.282 312.679 175.644 312.087C175.007 311.496 174.642 311.905 174.164 311.701C173.686 311.496 173.253 310.927 172.684 310.654H172.229L167.356 310.791C167.675 311.382 167.857 312.065 168.199 312.679L168.631 313.225C168.95 313.543 169.064 313.498 169.952 313.225C170.84 312.952 172.229 314.271 172.229 314.271C172.229 314.271 172.502 314.84 172.502 315.568C172.455 315.864 172.502 316.166 172.639 316.433C173.162 316.433 173.732 316.728 174.301 316.433C174.87 316.137 174.642 316.228 175.804 314.544M170.976 302.51L183.978 302.214C183.204 300.735 180.107 296.253 177.443 295.821H175.599C173.754 295.821 171.956 296.708 170.111 295.821C168.836 295.23 168.563 293.774 167.607 292.886C166.111 291.783 164.544 290.78 162.916 289.883C161.163 288.7 161.163 288.7 160.912 287.881C160.662 287.062 160.571 286.698 159.501 286.653C158.43 286.607 157.224 286.88 155.88 286.948C155.106 286.948 155.106 286.948 154.218 287.79C153.33 288.632 152.784 287.79 152.078 287.631H148.662C145.725 287.631 145.725 287.631 145.292 287.949C141.809 291.453 146.772 297.277 150.894 294.524C151.941 293.842 152.488 292.591 153.694 292.113C154.66 291.963 155.643 291.963 156.609 292.113C156.609 292.113 159.91 293.387 160.184 295.48C160.184 295.958 160.32 296.367 160.707 296.595C163.508 298.142 163.918 298.051 164.829 297.891C165.739 297.732 166.24 298.142 166.719 299.097C167.116 299.927 167.712 300.647 168.455 301.19C169.198 301.734 170.064 302.086 170.976 302.214M423.422 80.6724L422.147 78.3974C421.81 77.9695 421.411 77.5939 420.963 77.2826C420.166 76.9075 419.294 76.7206 418.413 76.7366C417.99 75.4834 417.392 74.2962 416.637 73.2103C415.817 73.2103 414.975 73.2103 414.11 73.2103C413.244 73.2103 413.176 73.2103 411.127 75.2579C409.92 75.1214 408.85 74.6436 407.552 74.6209C405.457 74.6209 404.888 75.0759 404.524 75.4399C404.376 75.5833 404.202 75.6956 404.01 75.7699C403.818 75.8441 403.613 75.8789 403.408 75.8721H401.131C400.971 75.4854 400.835 75.1214 400.653 74.7574C400.471 74.3934 400.334 74.0294 400.197 73.6881C400.061 73.3468 399.309 73.0056 398.899 72.5961L397.898 72.8463L398.376 73.8929C396.999 73.5069 395.563 73.3834 394.141 73.5289C393.776 73.5289 390.953 74.1204 393.253 76.5091C394.391 76.5091 395.393 75.6219 396.554 76.0541L398.945 77.4419C399.355 77.8514 399.264 78.3974 399.491 78.8524C397.566 78.3817 395.562 78.3351 393.617 78.7159L394.664 80.3994C395.325 80.1719 395.325 80.1719 395.598 80.1719H397.875L398.285 80.4677C398.558 81.2184 398.831 81.9692 399.082 82.7427L400.106 83.9484H401.313C402.474 83.9484 403.59 83.6982 404.82 83.7437H406.095C407.757 83.6299 408.668 85.1769 410.079 85.5865C410.079 85.5865 414.633 86.6102 414.519 84.2897C414.519 83.3569 414.519 83.3569 415.202 82.6289C415.886 81.9009 416.409 82.9702 416.728 82.3332C417.32 81.1729 417.32 81.1729 417.912 80.9454C418.504 80.7179 418.777 80.6042 423.149 80.7634M291.404 156.362L291.769 155.93C291.769 155.452 291.564 154.793 291.473 154.315C289.56 154.315 289.56 154.315 288.945 153.905C287.887 153.296 286.927 152.528 286.099 151.63C285.803 151.13 285.644 150.834 285.188 150.698C284.067 150.484 282.934 150.34 281.796 150.265C281.263 150.024 280.746 149.75 280.247 149.446C281.773 146.511 281.773 146.511 283.572 145.783C283.868 145.647 285.12 144.123 284.46 143.076C284.295 142.854 284.165 142.609 284.073 142.348C283.667 142.354 283.263 142.316 282.866 142.234C282.055 142.373 281.28 142.675 280.589 143.122C279.929 143.781 280.247 144.691 279.929 145.397C279.2 147.126 279.2 147.126 278.335 147.831C278.335 147.831 269.569 155.703 269.227 156.112C268.701 156.782 268.328 157.558 268.134 158.387C268.088 159.031 268.088 159.677 268.134 160.321H280.634C281.705 160.321 282.16 160.571 283.162 161.913C284.148 163.492 285.594 164.73 287.306 165.462C287.602 165.171 287.972 164.967 288.376 164.871C288.809 164.734 289.788 164.37 289.742 160.662C289.742 158.387 289.742 158.387 291.404 156.408M258.093 151.312V151.175C257.637 150.993 257.318 150.629 256.84 150.447C256.556 150.383 256.26 150.383 255.975 150.447C255.11 150.447 255.019 150.447 254.654 150.447C254.295 150.325 253.965 150.13 253.683 149.876C253.401 149.622 253.174 149.313 253.015 148.969C252.719 148.286 252.446 148.15 252.013 148.15C251.628 148.206 251.237 148.206 250.852 148.15L249.03 148.969C249.528 149.158 249.996 149.419 250.419 149.742C250.784 150.152 250.761 150.743 251.057 151.175L251.353 151.494C251.717 151.835 252.127 152.154 252.491 152.518C252.856 152.882 253.015 153.268 253.334 153.587C253.555 153.822 253.84 153.988 254.154 154.065C254.586 154.201 255.338 154.383 257.979 151.403M366.385 26.0037C365.517 25.8627 364.643 25.764 363.766 25.7079C363.479 25.6732 363.188 25.6732 362.901 25.7079C363.194 25.8091 363.476 25.9387 363.743 26.0947C363.288 26.1139 362.833 26.0523 362.4 25.9127L362.081 26.2312H361.967C361.967 26.2312 361.967 26.2312 361.694 26.5724L361.944 26.9592L360.806 26.1402C360.503 26.0083 360.214 25.8484 359.941 25.6624C359.518 25.5245 359.084 25.4255 358.643 25.3667H358.301H357.869L358.301 25.6852C358.006 25.6619 357.709 25.6619 357.413 25.6852L357.049 25.5487H357.208H357.641C357.129 25.4604 356.605 25.4604 356.093 25.5487H355C354.706 25.5478 354.414 25.5939 354.135 25.6852H353.93H353.77H353.315V25.2529C353.982 25.3097 354.652 25.3097 355.319 25.2529C355.901 25.3166 356.489 25.3166 357.072 25.2529H357.504L356.935 24.8207H356.298L354.476 24.6387H353.861H353.36H351.493H351.675H353.725H352.837H349.763L349.285 24.7752H348.829H348.214H346.325H345.892H346.006L345.55 24.8207H344.754H344.594L344.776 24.9344H345.254V25.2757L345.118 25.4122H344.913H344.662H344.526H344.139H343.706C343.381 25.3781 343.052 25.3781 342.727 25.4122L342.568 25.5714L342.454 25.7079L342.272 25.8672H341.953V25.2074H341.816H341.452L340.974 25.3894L340.564 25.5487H340.427H340.291L339.585 25.7989H339.425H339.084L339.494 25.6397L340.04 25.5259H340.222H340.359H340.518H340.632L340.951 25.4122H340.655H340.222H340.04H339.448H339.107H338.469H338.128H337.444H337.217H337.08H336.921H337.148H336.944H336.625H335.919H335.714H335.19C334.912 25.4562 334.637 25.5248 334.371 25.6169H334.234H334.075L331.889 26.2084H331.365H330.591L329.885 26.3449L328.2 26.6407L327.335 26.8227V26.6862H326.652H326.379H326.128H325.878H325.559H325.103L324.124 26.9364H323.897L323.031 27.1867H323.396H323.555H324.42H324.944L324.056 27.5279H323.919H323.737H323.578L322.371 28.0512L321.438 28.347H321.141H320.504C320.164 28.3169 319.822 28.3635 319.502 28.4835H319.001C318.713 28.5045 318.424 28.5045 318.136 28.4835C317.767 28.4128 317.389 28.4128 317.02 28.4835L316.656 28.62L316.178 28.802L315.722 28.9157H315.517H314.789H314.356C313.79 28.9951 313.22 29.0406 312.648 29.0522H312.398H312.17H311.943H311.647H311.396H311.146L310.85 29.166H310.599H309.984C308.391 29.6437 308.322 29.7802 308.072 30.2807L308.482 30.44L308.117 30.6902H309.347V30.9177V31.1452H310.212L310.941 30.986H311.214C311.57 31.0099 311.928 31.0099 312.284 30.986H312.717H313.195L312.216 31.532L311.806 31.714H311.556L310.44 32.0552H310.167H309.984H309.119H308.732L307.935 32.2145H307.73L307.115 32.0552H306.842L306.068 32.3965H305.271C305.063 32.419 304.862 32.4854 304.681 32.5913C304.501 32.6972 304.345 32.8402 304.224 33.0107C304.612 33.1066 304.953 33.3413 305.18 33.6705H304.725L304.406 33.807L304.11 35.7863V35.9228L304.315 36.0593V36.1958V36.3323L304.155 36.4688L304.36 36.6735V36.81L304.839 36.9465H305.112H305.408L305.567 36.81L306.159 36.2413H306.501C306.801 36.2534 307.099 36.2992 307.389 36.3778H307.594L307.981 36.082H308.618C308.897 36.1304 309.182 36.1304 309.461 36.082L309.734 35.9455H309.984H310.258H310.463H310.599H310.827L311.1 35.809L311.738 35.6043L312.056 35.9H313.149L313.468 36.1958V36.3323H314.698H314.834L315.199 36.6053H315.996V37.0375L316.36 37.1968H316.77V37.5835C316.376 37.9966 316.032 38.4548 315.745 38.9485V39.1078V39.2671H316.018H316.223V39.4036V39.8813V40.0406V40.5183V40.6548V40.9051V41.0643V41.8833V42.6113V42.7478L316.428 43.2483L316.246 43.4986C315.813 43.8626 315.768 43.9081 315.859 44.7043L315.244 45.6826C314.516 46.1831 314.516 46.1831 314.288 46.6154H315.335C315.178 46.9423 314.924 47.2126 314.607 47.3889C314.313 47.4206 314.027 47.5054 313.764 47.6391C313.512 48.1741 313.223 48.691 312.899 49.1861H312.034C311.897 49.4591 311.738 49.7321 311.578 50.0051V50.4601C311.853 50.5807 312.145 50.6575 312.444 50.6876C312.735 50.6927 313.026 50.7308 313.309 50.8014H313.764C314.579 50.8021 315.393 50.7489 316.201 50.6421C316.428 50.2099 316.428 50.2099 318.637 49.8914C318.432 50.8242 318.159 51.9844 319.912 52.0527H320.208C320.686 52.3945 321.135 52.7749 321.551 53.1902V53.6224L321.255 54.0547H320.117H319.661H318.546C317.567 54.0547 316.975 54.0547 316.542 53.3267C313.058 52.9627 312.694 53.3267 312.671 54.2822L313.332 54.9874C312.466 55.9429 310.759 55.6017 310.144 57.0122L310.394 57.399C312.421 57.6037 312.421 57.6037 313.195 58.7867H313.696C314.351 58.3224 315.124 58.0525 315.925 58.0082C316.727 57.9639 317.525 58.147 318.227 58.5365C318.409 58.0132 318.591 57.4672 318.728 56.9667C318.09 56.9667 317.43 56.9667 316.793 56.8302V56.3979C316.497 56.4215 316.2 56.4215 315.905 56.3979L316.337 55.9429H317.658C318.318 56.4662 318.318 56.4662 319.73 56.671H321.164C321.458 56.7152 321.738 56.8239 321.984 56.9895V57.4672L321.847 57.763C321.255 58.0132 320.914 58.6047 320.436 58.9687C320.387 59.1242 320.387 59.291 320.436 59.4465C321.028 60.1517 321.028 60.1517 321.119 60.6067C320.943 61.0689 320.791 61.5397 320.663 62.0173C320.046 62.0276 319.428 61.9819 318.819 61.8807C318.113 62.1082 317.589 62.768 316.77 62.7225C316.5 62.7294 316.23 62.691 315.973 62.6088C315.665 62.5401 315.347 62.5401 315.039 62.6088C314.787 63.4468 314.36 64.2221 313.787 64.8838C313.493 64.7941 313.204 64.6877 312.922 64.5653C309.984 66.0668 309.984 66.0668 309.893 66.3625C309.868 66.5969 309.868 66.8334 309.893 67.0678C309.943 67.3848 310.043 67.6919 310.189 67.9778C312.079 68.4101 312.216 68.9333 312.193 69.0698C312.193 70.4803 309.916 70.0026 310.053 71.3448L310.28 71.8226C310.28 71.8226 310.554 72.6871 310.781 73.7336C311.92 74.1204 312.785 73.1421 313.878 73.1876C314.178 73.1864 314.476 73.2247 314.766 73.3013L314.971 73.6881C314.971 73.9611 314.675 74.3024 314.561 74.5526C314.289 74.5263 314.014 74.5263 313.741 74.5526L313.309 74.7119C311.806 78.4884 311.806 78.4884 312.17 79.0799C313.924 79.0799 315.039 77.1916 316.884 77.5101C316.697 78.3673 316.43 79.2052 316.087 80.0127C315.404 80.6497 314.379 80.6269 313.673 81.1729C312.967 81.7189 316.815 90.0682 316.861 90.1365C319.593 94.2088 321.893 96.2108 323.692 96.0515C324.025 96.0767 324.36 96.0767 324.694 96.0515C325.167 95.7887 325.701 95.6553 326.242 95.6648H326.697C327.175 95.7785 327.631 95.824 328.086 95.9378C328.086 98.6223 331.069 98.2128 332.299 99.6916C332.959 100.442 338.082 100.488 337.968 98.1446C337.968 97.9171 337.968 97.7123 337.968 97.1208C338.219 94.186 343.137 91.2968 340.017 88.5895C340.017 88.5895 338.036 86.724 341.133 86.5192C341.467 86.5444 341.802 86.5444 342.135 86.5192C342.618 86.4411 343.11 86.4411 343.592 86.5192C344.15 85.287 345.071 84.2549 346.234 83.5617C346.195 82.4938 346.326 81.4266 346.621 80.3994L346.917 80.0809C346.955 79.5936 346.866 79.1046 346.659 78.6619C346.451 78.2192 346.132 77.838 345.733 77.5556V77.1006C346.712 76.5091 348.01 76.9641 348.898 76.2361C349.786 75.5081 349.034 75.0076 349.216 74.4389H352.928C352.792 73.7861 352.792 73.1124 352.928 72.4596C353.626 72.4249 354.326 72.5017 355 72.6871C355 74.1659 355 74.2114 355.273 74.7119C357.186 74.5071 358.529 73.1193 360.237 72.4368H360.943C361.728 72.5227 362.521 72.3722 363.22 72.0046V71.5268C363.766 70.4576 364.905 69.9116 365.497 68.9561C366.18 68.7058 366.18 68.7058 366.794 67.318C367.141 67.223 367.476 67.0935 367.796 66.9313C367.724 66.6863 367.724 66.4255 367.796 66.1805C368.98 65.1795 368.98 65.1795 368.661 63.9055H368.844H369.322H369.481H369.618H369.754L370.073 64.1103H370.233L370.551 64.406C371.007 64.6133 371.513 64.6844 372.009 64.6108C373.352 64.6108 374.468 65.4753 375.811 65.4525C377.542 65.4525 377.633 62.9955 379.409 63.0638C380.616 63.0638 381.686 62.1082 382.892 62.313C384.691 62.586 383.985 59.856 385.443 59.4237H388.107C388.63 59.1507 388.63 59.1507 389.336 58.036L389.131 57.6265L388.562 57.399L387.947 58.0815L387.788 58.6502H386.832C385.853 58.4455 385.329 57.3535 384.236 57.3535H383.484C380.365 57.217 379.819 56.2387 379.545 55.7609L379.158 54.8737C382.688 54.3049 382.688 54.3049 383.325 53.7134C384.851 54.2822 385.078 56.4662 386.945 56.6482L387.264 56.3297L387.401 55.5334C388.243 55.1467 389.222 55.6699 390.088 55.1922C388.949 53.5997 387.082 52.9172 385.534 51.7569C383.985 50.5966 382.414 50.4146 381.686 48.6629L382.141 48.5036C384.077 49.6184 384.076 49.6184 384.213 49.6184C384.478 49.6459 384.745 49.6459 385.01 49.6184H385.465C385.215 49.0899 384.925 48.5805 384.6 48.0941C384.44 47.853 384.31 47.5933 384.213 47.3206C384.088 47.0471 383.899 46.8071 383.663 46.6201C383.427 46.4331 383.15 46.3044 382.855 46.2446C382.56 46.1847 382.255 46.1953 381.965 46.2756C381.674 46.3558 381.407 46.5034 381.185 46.7064C380.691 46.7304 380.201 46.612 379.773 46.3651L380.456 45.7509C380.297 45.5916 380.297 45.5916 378.817 45.0001V44.7498H380.479L381.139 45.7281C381.775 45.7911 382.416 45.7911 383.052 45.7281L383.302 45.3186H383.758C384.015 45.2906 384.275 45.2906 384.532 45.3186C385.443 45.6826 385.443 45.6826 385.989 45.4551C386.353 43.1801 382.801 44.0901 381.435 43.1801V42.7706C383.302 43.1573 383.849 42.9298 384.099 42.7706L384.35 42.2928L384.782 42.4521H385.374C385.663 42.4589 385.95 42.4047 386.217 42.2928C384.873 41.0188 382.756 40.8368 381.663 39.2443C381.8 39.1078 381.8 39.1078 382.779 39.085C382.483 38.7893 382.187 38.4935 381.549 37.9248C381.062 37.7413 380.609 37.4801 380.206 37.1513L379.887 36.8783C378.635 36.2413 377.063 36.4915 375.971 35.4905L375.788 35.3085C376.062 35.0128 376.062 35.0128 376.972 34.8535H377.655C378.265 34.8465 378.86 35.0471 379.34 35.4223C379.34 35.4223 379.34 35.4223 379.636 35.809C379.932 36.1958 380.001 36.4005 381.458 37.3105L381.686 37.174L379.09 34.899L378.976 34.4895L378.748 34.3075C377.997 33.9208 377.997 33.9208 376.471 33.8753H375.879H375.424C375.128 33.6547 374.88 33.376 374.695 33.0562L375.105 33.1927H375.424L375.879 33.0335C374.951 32.5666 373.909 32.3696 372.874 32.4647L373.056 32.897C372.47 32.6891 371.967 32.2982 371.622 31.7822V31.4182C371.133 31.0782 370.662 30.7138 370.21 30.3262H370.893L370.46 30.0532V29.6437C370.46 29.6437 370.597 29.6437 370.46 29.3935C369.345 28.8475 369.322 28.7337 369.162 28.2105H369.595L369.185 28.0057V27.5734L368.684 27.4142H367.159L366.772 27.0729L367.66 27.2322H368.024L367.273 26.7772L367.569 26.5724L366.385 26.0037ZM336.784 24.9572L337.649 24.7979H336.875H336.693H337.513H338.105H337.353H336.944H335.782L336.807 24.6842H336.169H336.898H336.443H335.122H335.919H335.236H334.029H334.462H332.822H332.003H331.889H332.435L329.065 24.8662L327.312 25.0254H327.79C326.801 25.2399 325.796 25.3768 324.785 25.4349L325.855 25.2529H325.536L327.335 25.0709H326.674H327.221H326.31L323.35 25.3667H323.054H323.578H323.396L320.823 25.6169H320.504L318.933 25.8217H318.682L316.952 26.0492H316.747L314.47 26.3904C313.855 26.6155 313.211 26.7534 312.557 26.7999H312.853L312.626 27.0047L314.903 26.5952L316.292 26.3904H317.202L315.29 26.6634L313.013 27.0729L311.032 27.4824C312.459 27.4744 313.881 27.2988 315.267 26.9592H315.586H316.428L318.477 26.6179L320.162 26.3677C321.187 26.2084 322.234 26.0947 323.259 25.9582H323.51L322.781 26.0037L319.047 26.6862H319.935H320.071L318.728 26.9364H317.977H317.18L316.178 27.0729L313.901 27.3687H313.445H312.74L311.123 27.7327H311.282L310.668 27.9375L309.301 28.347L309.802 28.4835H309.028H308.55C309.295 28.2494 310.007 27.9206 310.668 27.5052H310.372H309.802L307.867 27.9147L306.728 28.2787L305.317 28.7565L303.723 29.439L303.359 29.7347L304.064 29.8712C303.336 30.076 302.516 30.1215 301.787 30.3717L299.92 30.986L301.446 30.1442H301.173L299.898 30.2807L298.736 30.44L296.892 30.8267L295.002 31.3955L293.704 31.8505L293.909 31.987H294.979L296.232 31.8505L293.955 32.3965L292.429 33.0107C293.112 33.1472 293.112 33.1472 297.233 32.078L294.957 32.8515L292.293 33.5112L291.154 33.625V33.1017L291.541 32.5785H290.448C288.632 33.4657 286.701 34.0937 284.71 34.444L282.433 35.172L280.634 36.173V36.6053C281.403 36.4549 282.163 36.2651 282.911 36.0365C282.911 36.0365 282.911 36.0365 286.145 35.9V36.173C286.699 36.1564 287.25 36.0724 287.784 35.9228C288.103 35.9228 288.422 35.9228 288.513 35.9228C287.238 36.4915 287.238 36.4915 287.101 36.6735C287.604 36.7839 288.124 36.7839 288.627 36.6735H289.401C291.254 36.2954 293.073 35.7705 294.843 35.1038L296.118 34.3985L294.137 34.8763L295.981 33.9208L297.37 33.716L299.647 32.8515L301.104 32.1235H301.81C303.563 32.1235 304.975 31.0997 306.615 30.6902H307.662C308.327 30.6593 308.955 30.3742 309.415 29.894V29.6437H309.119L307.503 29.985L306.136 30.2807L307.411 29.803C308.664 29.5527 309.916 29.257 311.168 28.984H311.874L311.1 29.3252C311.76 29.4617 311.76 29.4617 314.698 28.8475L315.563 28.3015H316.588L315.768 28.6655H316.633L318.273 28.3925L319.616 27.8464V27.6644H321.187L322.576 27.3459L323.874 27.1639C325.741 26.8227 327.585 26.5497 329.43 26.1857H330.181L331.16 26.0264L331.752 25.7989C330.803 25.9398 329.843 26.0007 328.883 25.9809L330.044 25.7762L331.069 25.6624H332.617L334.894 25.4349C335.612 25.3859 336.327 25.2948 337.035 25.1619M302.288 29.6437L304.793 28.9612C304.998 28.6882 304.998 28.6882 305.248 28.5745L306.774 28.1877L308.14 27.8692L308.891 27.6417L307.389 27.892C307.389 27.892 309.916 27.1639 312.079 26.7544C313.161 26.6255 314.233 26.4279 315.29 26.1629L313.013 26.4359H313.309C312.678 26.5634 312.039 26.647 311.396 26.6862H310.895C309.62 26.8454 308.391 27.1184 307.161 27.3459H306.842H306.182L303.7 27.8237L302.22 28.074L299.829 28.5745H300.011L297.507 29.166L296.482 29.4845H297.347L298.645 29.3025H299.488C298.484 29.6536 297.446 29.8976 296.391 30.0305H295.753L294.182 30.349L293.112 30.7585L290.835 31.4637V31.7595L292.338 31.5547V31.7822L294.046 31.3272H294.433C295.044 31.1966 295.645 31.0217 296.232 30.804L298.258 30.2352L297.871 30.5082L300.148 30.0305C300.84 29.9213 301.524 29.7694 302.197 29.5755M283.526 34.4213C284.941 34.1702 286.308 33.7021 287.579 33.0335L285.78 33.3292L282.798 34.2165L283.526 34.4213ZM283.094 39.8813L285.143 38.63L284.437 38.0613L283.503 37.6745L281.044 38.2433L277.948 38.8348L276.354 39.0168L275.42 38.6983L273.826 38.8348L275.284 37.7655L277.743 36.6735L279.769 35.7863H278.471C275.841 36.3628 273.34 37.4194 271.094 38.903L267.747 40.1771L266.358 41.1098L265.47 42.0653L267.542 41.8151L269.819 41.1553C269.5 41.4738 269.204 41.8378 268.908 42.1563C269.503 42.2668 270.112 42.2668 270.707 42.1563H272.984L274.669 41.7696L276.217 41.1781L275.762 41.8151C279.838 41.4738 279.838 41.4738 280.976 40.7686C281.663 40.3223 282.441 40.0348 283.253 39.9268M256.362 42.7933H257.159L258.503 42.0653L256.362 42.8388M263.398 41.6558L266.29 40.3363L266.904 39.7221L268.498 38.903L267.405 39.085L264.832 39.7676L262.76 40.5638L261.167 41.5876H262.055L261.781 42.0653L263.398 41.6103M273.325 37.1968L275.853 36.4005L277.47 35.7863L278.79 35.0583H277.857L278.289 34.7625L276.9 34.99L274.327 35.8545L273.325 36.5143L272.506 37.1058H273.325M284.073 33.5112L285.917 32.9197H284.938H284.073L281.796 33.5112L280.27 34.0345L281.523 33.898L282.684 33.6705L284.073 33.5112ZM286.35 32.3282L288.035 31.8732L289.697 31.2362H289.173L290.904 30.5992L289.173 30.986L287.306 31.5547L284.073 32.5557L284.209 32.6922L285.302 32.533L286.35 32.3282ZM296.482 29.0977L297.848 28.8702L300.535 28.3015L301.036 28.1422H300.672L298.19 28.62H298.622L296.482 29.075M280.225 33.3292L282.206 32.806L284.483 32.1007L285.667 31.6912L287.944 31.0542L288.627 30.7812L289.651 30.4627H288.854L290.175 30.076L291.427 29.712L290.653 29.8485L288.627 30.3262L286.668 30.7812H287.238L286.509 31.0087L284.073 31.5775H283.526L281.409 32.1917H282.001L280.794 32.6012L282.228 32.26H282.365H282.775L280.498 33.1017V33.2837M277.287 33.7843L278.312 33.5112L279.655 33.0107H278.767L276.627 33.6705L277.287 33.7843ZM269.159 37.6518C270.058 37.34 270.909 36.9035 271.686 36.355C271.055 36.4962 270.432 36.6709 269.819 36.8783L271.299 36.082H270.593C268.996 37.0079 267.29 37.7338 265.516 38.2433L268.362 36.9238H267.679L265.402 37.7655L263.125 38.721L264.468 37.9475L268.134 36.537L268.931 35.991L265.402 37.1968C263.922 37.7655 262.487 38.5163 261.03 39.176L260.666 39.6538L262.032 39.3126L262.897 39.1305L261.531 39.8131L258.411 41.2463L259.914 40.7913L260.962 40.6776L261.963 40.4728L264.24 39.6083C265.265 39.176 266.244 38.7665 267.292 38.3798C268.339 37.993 268.749 37.9248 269.568 37.6745M256.749 40.5183C257.66 40.1543 257.637 39.9951 257.637 39.9723C257.091 39.9723 256.658 40.3818 256.112 40.4501L254.085 41.3146C255.01 41.1925 255.909 40.9237 256.749 40.5183ZM270.411 35.3085L271.868 34.9673L274.965 33.9208L276.354 33.5112C274.341 33.998 272.356 34.598 270.411 35.3085ZM256.089 68.1598L258.73 66.3625L259.504 64.5198C258.278 64.526 257.053 64.6173 255.838 64.7928C254.616 65.4229 253.43 66.1217 252.286 66.8858L251.763 68.5011L253.539 68.7058L256.089 68.1598ZM257.774 45.7509C261.303 44.2721 261.303 44.2721 261.303 43.8398H260.119V43.3621C258.184 43.5441 258.184 43.5441 257.842 43.7488C256.466 44.5452 254.998 45.1716 253.47 45.6144C251.945 46.3879 250.465 47.1614 248.917 47.8894L244.772 50.4374L246.617 50.0734L249.076 49.1406L251.626 47.7756L252.332 48.0941L254.609 47.2069L257.956 45.6599M239.74 52.0754L243.156 50.3919L244.932 49.1406L246.275 48.0259L246.845 47.2979C248.95 46.8593 250.914 45.9056 252.56 44.5223L253.63 43.8398L252.514 43.9763L250.237 44.9773H249.918L250.101 44.5678L248.484 44.9773L246.571 45.9556L245.046 47.0476C241.152 48.8449 241.152 48.8449 240.765 48.8221C241.168 48.4609 241.594 48.1265 242.04 47.8211L241.175 47.9349L238.898 49.0269L238.055 49.8686L237.418 50.5056L237.623 50.9151C234.64 52.9854 234.64 52.9854 234.845 53.5542C235.893 53.1789 236.919 52.746 237.919 52.2574L239.695 52.0527M239.854 47.6164L243.088 46.2969L244.021 45.6826L243.497 45.3414C242.72 45.5706 241.96 45.8518 241.22 46.1831L239.854 47.1614C239.854 47.1614 239.399 47.4571 237.577 48.5264L239.718 47.7301M239.558 46.6154L241.835 45.6826L241.061 45.8191L239.285 46.4789L239.581 46.6154H239.558ZM278.858 32.2827C279.9 32.0578 280.926 31.7691 281.932 31.4182H281.204L279.883 31.6685L276.832 32.3737H277.287H277.925H278.745H278.858M273.826 33.5112L276.103 32.9425H275.739H275.01L273.667 33.5112L271.39 34.0345L267.633 35.172H267.496L268.726 34.8763H269.614L271.527 34.353L273.212 33.8298H273.713M270.411 34.08H270.593L273.462 33.3065L274.464 32.988H273.963L271.686 33.6023L270.411 34.08ZM254.928 40.6093L259.482 38.9258L260.802 38.357H260.347L258.366 39.0395L259.026 38.7438L261.121 37.811L263.261 37.083L265.538 36.264H265.015L263.261 36.7645L262.259 37.0148L260.552 37.5835C259.277 38.1295 259.277 38.1295 255.998 39.2898V39.4263C255.284 39.7866 254.514 40.025 253.721 40.1316H252.947L254.199 39.5401L257.205 38.357L258.024 38.0613H257.569L258.662 37.5835L258.821 37.4698L256.931 38.0613L253.47 39.1533L250.966 39.9496L248.165 40.8823L245.524 41.8606H246.025L245.774 42.1108L246.776 41.8833L248.37 41.4511L248.484 41.6558H249.099C248.438 41.8946 247.761 42.0847 247.072 42.2246H246.344L244.59 42.7933L242.746 43.5441L242.063 43.9536H243.042L245.956 43.0663L249.144 41.9971L250.305 41.7696H251.307H252.355L254.996 40.8596M261.508 36.9693H261.736L264.013 36.264C263.704 36.3638 263.381 36.4175 263.056 36.4233H263.33L261.576 36.9693M248.188 40.7458L252.97 39.1305L251.307 39.5856L248.325 40.5638L248.188 40.7458ZM264.127 35.7635L267.269 34.8763L267.838 34.626L265.265 35.3085H264.696C264.4 35.3085 255.588 37.8793 255.588 37.902L255.155 38.0613L253.174 38.6528L250.533 39.5401L249.395 40.0178L251.922 39.1988L250.397 39.7903L252.013 39.2898L253.88 38.6528H254.45L257.296 37.7655L259.413 37.1513L256.749 37.902L257.911 37.5835L259.732 37.1058L264.127 35.7863M221.616 59.9697L223.506 58.9232L224.234 57.854L224.098 56.7392L226.375 54.9647L229.79 53.1219L231.02 52.0299L235.346 49.7549L237.623 48.3216L238.283 47.5481C237.964 47.5481 237.646 47.5481 237.35 47.5481L233.934 49.1861L231.657 50.3691L228.948 51.9617L227.263 52.7124H227.035L227.991 52.0072L230.268 50.8014L232.022 49.8231L234.572 48.2989H234.094L232.022 49.3681L230.473 50.2326H229.654L227.969 51.0289L226.898 51.3019L228.902 50.3691L231.338 49.2544H231.02L231.407 48.8221L230.564 48.9814L228.287 50.0734V49.9141L229.927 49.2089L232.727 47.8894L233.069 47.6164H232.363L229.79 48.6174L228.265 49.1634L226.807 49.6184L224.348 50.5966L221.502 52.0072L218.77 53.1219L217.062 53.9637H217.495L216.128 54.7599L217.745 54.1684L218.724 53.9864L217.358 54.8737L215.536 55.5107L214.011 56.0339L212.007 56.9667L211.028 57.854L211.984 57.7402L213.487 57.4217C213.78 57.3635 214.082 57.3635 214.375 57.4217C213.624 58.2407 213.624 58.2407 211.779 59.1735H210.254L208.774 59.31L205.745 60.584L202.285 62.859H203.264H204.288L201.123 65.134L200.281 66.044L201.761 65.9303L203.4 65.6573L206.11 64.4743L208.159 63.769L211.21 62.3585L212.963 61.6077L212.167 62.3813L213.237 62.1082L212.485 63.678H213.487L215.058 63.3595L217.882 61.767L218.906 60.5385L219.817 60.3792L221.548 59.947M207.886 65.2705L210.368 63.678L207.339 64.6563L203.286 66.3853L203.765 66.7948L206.292 65.7255L207.886 65.2705ZM230.655 48.0259L232.932 47.2751L235.619 46.0694L238.147 44.7271V44.5906L235.87 45.4096L236.689 44.8863L237.873 44.2493H237.646L236.12 44.6588L233.843 45.5461L229.858 47.1614L223.711 49.8004L215.263 53.5314L213.943 54.4187L208.933 57.1487L212.463 55.5107H213.146L215.696 54.3732C219.885 52.3712 226.397 49.6639 226.466 49.6639L230.746 48.1396M282.775 138.845L284.733 137.298L283.185 135.887L284.756 134.363L285.644 131.155L281.545 130.609L281.204 128.744H276.65L272.688 130.586L269.956 132.088L268.134 131.337L269.546 129.062L274.1 127.72L279.246 126.605L281.796 124.808L278.699 124.626L276.012 123.193L272.255 122.237L270.411 119.962L268.316 117.846L267.861 115.912L269.614 115.548L270.639 114.138L269.273 110.862L267.61 107.313L265.971 101.193L265.857 98.5086L261.303 102.103C260.848 103.15 260.415 104.196 259.937 105.243L256.248 106.471L253.266 108.746H250.328L250.601 106.721L249.349 105.243L246.116 105.948L248.643 102.444C249.417 100.92 250.214 99.4186 250.92 97.8943L252.036 95.6193L248.803 95.5055L247.209 93.7993L246.366 91.3878L244.089 88.8625L241.812 90.091H238.579L237.828 89.2037H234.162L231.475 90.91L231.111 93.3443L228.31 96.6658L227.285 98.9408L226.693 101.762H224.667L222.937 104.765L220.66 106.448L221.639 107.768L223.05 109.884L221.616 113.842C220.796 115.344 219.976 116.891 219.18 118.392L215.445 121.668L211.21 124.307L207.021 124.944L207.18 128.926C206.292 130.677 205.449 132.429 204.607 134.204L204.379 137.229L202.603 139.709L199.393 142.894L195.272 143.554L195.089 139.163L194.27 135.409C194.793 134.34 195.363 133.271 195.886 132.202L197.503 127.652L199.825 124.057L195.613 123.488H192.403L191.469 122.237L188.213 121.1L188.054 119.029L186.255 116.754L184.593 114.479L179.333 116.049L179.993 113.774L182.156 108.701L181.268 107.427L181.61 105.493L187.143 99.4868L192.995 94.9368L198.391 90.9782L202.011 89.4995L205.723 87.452L206.93 85.4044L204.903 84.6309L203.241 83.3114L206.133 83.9029L208.227 84.7902L210.049 84.2897L212.485 82.0147L213.988 83.0612L215.946 82.5607L217.7 80.8544L219.384 80.0809L222.14 77.8059L220.546 77.5784L218.519 77.3964L218.952 76.1906L217.882 74.8939H219.476L221.229 75.7584L222.299 76.5319L225.031 75.6219L228.424 73.5516L228.697 71.9818H230.61L230.246 73.3923L227.673 75.0531L223.802 78.1244C222.595 79.3757 221.388 80.6497 220.204 81.9464L217.358 82.9019L216.311 84.6309H218.383C217.904 85.1769 217.426 85.723 218.519 86.4055L220.204 85.8595L222.823 83.7892H225.578L226.898 84.0394L227.786 84.8584C228.583 84.8584 229.358 84.8584 230.063 84.8584L232.09 82.5834L230.2 82.0602L231.475 79.3756L228.993 79.1709L228.857 77.1461L227.49 76.7366C227.991 76.2361 228.469 75.7356 228.993 75.2351L230.359 75.5991L232.181 74.4616L233.137 73.2558C233.866 73.2558 234.526 73.2558 235.255 73.2558L237.759 71.5041L241.403 69.7523L243.452 68.319L243.93 66.8175L245.638 64.3605L247.801 63.951L250.305 62.1082L250.989 60.3792L250.26 59.492L249.736 58.1952C250.556 58.1952 251.376 58.1952 252.218 58.1952L253.584 57.2852L255.155 57.4445L255.429 58.4227L257.706 58.2635L260.119 57.763L260.483 56.1249L261.941 55.7609L261.463 57.6265L263.17 57.7857L262.077 59.6057L263.193 59.9242L262.669 61.312L263.626 61.9945L262.852 63.769L264.172 64.4743V66.2943L262.647 68.5693L258.093 71.0946L253.971 73.6653L253.197 76.0996L248.985 76.7366L247.437 76.2361H245.296L240.97 78.3746L239.126 80.6497L241.881 81.1729L244.59 80.9454L246.23 79.6714L247.915 78.9206L249.281 79.3301L251.74 80.2402L252.696 83.3569L252.241 85.1087L252.81 87.3837H255.702L257.068 90.364H261.622L263.899 91.7063L265.128 89.8635L262.214 86.178L261.303 84.4717V82.7427L263.58 84.2897L267.519 87.0652L269.614 88.6577C270.069 87.7477 270.502 86.8605 270.98 85.9732L273.804 83.6982L271.914 82.2649L273.303 78.7159L270.411 77.3964L269.113 73.0738L271.253 71.8681L273.28 70.7988L276.149 74.7346L276.65 77.3281L278.927 77.7149L281.34 74.6891L284.892 73.5743L285.985 72.3686H287.966L289.492 71.0263L290.38 69.0698H286.555C286.759 68.7286 286.942 68.3873 287.169 68.0233L285.894 66.408L284.483 66.1578L282.707 65.3615H280.908L281.363 63.9965L281.614 62.7908H278.654L277.583 62.677C278.084 61.9945 278.585 61.312 279.154 60.6522H281.181L282.98 59.6967L280.839 59.0597L281.819 58.2407L283.299 57.9905L282.934 56.671L281.386 56.1477L283.276 54.9192L282.001 53.9864L279.724 54.1229L280.361 53.1674H278.676L278.198 52.9627L280.634 51.9844L279.359 51.4157L276.263 52.0754L276.582 50.4601L277.447 49.5729H276.172L277.401 48.5036L276.217 47.7756C275.306 47.7756 274.373 47.7756 273.485 47.7756L271.937 48.6401L270.252 48.8676L269.341 48.6174L267.428 49.7094L265.971 49.8459L267.815 48.4581L270.411 47.1614L271.663 45.5234L273.439 44.0901H271.162L268.407 45.1821L266.791 45.3186L264.514 46.0921L261.85 47.5936L260.21 49.2316L257.933 50.3464L256.157 52.4622L254.723 52.7124L255.907 50.9151L259.095 48.6401L261.371 47.0931L265.015 45.5006L268.567 44.2038H266.654L264.149 44.5451L259.14 46.4334L253.47 49.1634L247.778 52.7124L249.008 53.0764H250.169L248.757 54.4414L247.687 54.1684L245.41 54.7599L244.272 56.4662H246.184L247.733 55.9884L247.573 57.0577L248.871 57.9677L246.594 58.6047L244.476 60.22L244.203 61.3575L238.534 64.7245L234.891 67.136L231.361 69.0926L230.951 68.3418L233.228 65.498L236.257 63.7463L237.259 61.1755L232.841 63.2913L235.118 59.7195L234.913 59.2872L237.668 57.4672L240.264 55.4879L239.581 55.3059L241.858 53.6907L243.156 51.9844H241.539L239.535 53.0309L238.556 53.1674L234.959 54.9192L233.16 56.3069L231.202 57.4445L229.881 59.31L229.54 60.5157L226.557 62.313L225.555 61.9035L223.278 63.951L224.963 63.7463L228.583 62.222C227.581 62.9273 226.625 63.678 225.692 64.497L219.749 66.772L215.832 70.0936L216.174 68.3646L219.658 66.0895H218.496L221.229 63.9965C221.57 63.9965 221.957 63.9965 222.299 63.9965L226.17 61.0162L226.306 59.401L222.686 61.5167L219.999 62.5405L218.952 64.8155L215.992 66.226L213.487 67.9323L208.933 68.4328V67.1588L208.022 66.863L208.956 65.134L205.768 66.59L201.693 68.2508L199.028 70.3893L193.905 73.8474L198.459 69.8433L199.006 68.4556L196.137 69.3656L193.655 68.9788L195.363 67.7958L198.118 66.681L199.848 64.7473L198.619 64.9748L199.598 63.223L201.693 61.7215L201.374 61.5167L200.6 61.7215L198.072 63.0865L196.956 63.5188L201.784 60.6295L196.865 63.2913L196.979 63.041L202.74 59.6967L203.377 59.2417L199.142 61.5167L196.251 63.0865L195.226 63.5643L192.812 64.7928L189.647 66.59L194.201 63.9738L195.864 63.132L197.48 62.313L199.757 61.0845L200.008 60.9025L197.548 62.04L194.27 63.769L193.86 63.9965H193.723C185.23 68.9561 174.278 76.2134 166.081 81.6279C153.125 90.8645 153.125 90.8645 129.764 112.022L125.824 116.049L126.53 115.344L125.141 116.822L122.864 119.211L122.204 120.076L119.927 122.351L118.88 123.784L116.808 126.059L116.307 126.855V127.106L114.03 129.699L111.935 132.384L109.362 135.569L107.085 138.572L107.336 138.799L104.649 142.416L102.668 145.761L100.983 148.286L100.323 150.106L100.186 151.335V152.199L98.9336 154.178L98.1822 156.635L97.5219 158.728L95.0856 163.665C94.2886 164.962 93.4462 166.304 92.6492 167.624L93.56 165.189L94.9262 162.004L96.0874 159.957L96.5884 158.091V157.363L98.6376 154.087L98.0228 154.224L98.6604 152.7L98.8198 151.972V151.471L98.1139 151.972L96.6567 154.52L96.0874 156.021L95.0856 158.182L93.9243 161.618L91.9661 165.462L89.4387 170.422L87.0479 174.562L83.8374 180.068C82.6989 182.161 81.5605 184.277 80.5131 186.393L79.2607 187.985C78.5549 189.396 77.8718 190.806 77.1432 192.217L75.6176 196.562L73.3407 200.884L72.02 204.251L71.2231 207.118L69.3332 211.532L68.5363 215.126L68.3541 217.97L66.7603 224.226V226.706L65.8495 229.982L65.4852 233.713L66.783 233.531L66.988 235.988L67.9215 237.967L68.1492 241.221L67.375 245.316L66.9652 249.411L66.1227 256.236L66.5781 259.102L67.2612 262.447V264.904L65.7129 267.179L65.8723 270.113L66.8513 272.707L68.2403 275.596L68.9006 278.804L68.3086 281.488L68.4224 283.763L69.8114 285.174L70.9726 288.109L71.7923 290.611L71.5874 293.683L72.5893 292.591L73.1585 289.201L72.908 285.424L71.6557 283.991L71.8606 280.669L70.6539 278.03V269.772L69.8341 266.86L70.1985 262.902L69.1511 261.764L69.4243 256.895L68.9461 252.823L70.0391 247.363L71.2003 247.022L72.4299 248.546L72.7031 251.413L71.7468 256.099L72.316 262.196L73.3862 267.042L74.593 270.409L75.3671 273.844L75.1167 277.871L76.8472 280.146L77.8946 283.877L78.646 287.881L80.6724 293.387L81.4238 298.369L82.6534 300.644L81.1506 302.578L80.5586 305.74L83.2682 310.29L85.5451 314.067L88.619 315.727L91.8751 319.254L95.8597 322.211L100.414 325.92L104.239 327.58L106.744 327.194L107.495 325.032L110.364 324.373L113.62 326.875L117.331 331.198L119.426 334.815H122.5H123.684L125.46 335.793L127.509 339.661L131.471 341.367V338.728L133.748 340.229C140.807 352.651 140.807 352.651 140.397 355.176L141.854 357.224L143.471 356.132L145.748 357.588C150.62 363.139 150.62 363.139 152.806 362.843L159 366.506L162.324 368.235L161.755 364.14L163.144 361.501L168.836 361.865L169.633 364.436L171.477 364.163L172.274 360.75L169.997 357.679L164.1 357.838L160.298 357.679L154.742 357.315L152.078 355.04L148.321 350.217V346.281C148.321 344.529 148.161 342.8 148.116 341.048L149.049 334.428V329.878L147.455 326.375L144.04 324.1L138.985 324.805L135.479 323.849L131.676 326.124L129.172 323.849L131.449 321.096V318.822C131.449 317.957 131.449 317.092 131.449 316.205L132.382 313.225L133.771 308.447C133.771 306.696 133.93 304.921 133.999 303.169L136.276 301.008L136.845 297.072L135.297 295.594L129.877 296.299L126.508 297.186L124.891 300.917L123.297 306.468L121.567 311.541L118.834 312.178L114.986 313.93L111.047 314.908L109.362 311.268L106.311 308.811L105.377 304.648L103.533 299.256L103.032 289.997L103.214 283.308L105.286 278.099L106.789 272.206L106.152 266.246L109.749 260.353L112.026 259.989L114.85 256.895L117.855 253.415L121.088 254.006L123.365 255.121L125.642 253.801L126.804 256.941H129.832L132.245 256.577L132.132 254.143L133.657 250.161L137.391 249.638L140.124 249.047L145.019 249.57L146.431 252.982H148.093L149.505 250.98L151.053 250.434L153.011 253.324L154.765 256.964C154.56 258.397 154.377 259.807 154.195 261.241L155.197 263.698L155.448 266.451L156.95 268.43L157.588 271.41L159.592 272.866L159.455 276.165L161.368 276.87L162.802 274.595L164.1 271.001L163.394 266.701L162.962 260.217L161.117 254.552C161.459 252.072 161.846 249.593 162.62 245.93C163.144 244.747 163.85 243.154 164.396 241.994L167.447 236.557L171.045 234.805L175.735 230.619L180.061 227.434L183.978 225.682L185.185 222.611L188.441 220.632L187.052 215.513L185.799 213.238L187.188 210.44L186.164 207.96L189.306 206.276L190.831 209.916L193.108 206.208L195.385 202.977L197.662 200.884L201.101 194.059H206.497L210.459 191.784L214.626 191.261L214.239 188.599L215.377 183.117L219.18 178.885H222.39L224.029 176.61L228.265 176.747L232.818 174.471L236.052 171.241C243.361 170.968 243.361 170.968 245.752 172.401C245.296 172.72 244.704 173.129 244.272 173.493C242.316 173.462 240.36 173.568 238.42 173.812C234.686 176.292 234.686 176.292 234.549 179.363L236.644 180.432L239.672 178.157L241.949 176.86L245.774 175.723L249.918 173.584L253.949 172.697L257.706 169.057L261.212 166.509L262.214 163.62L257.956 164.643L254.267 169.193L249.554 169.444L246.184 167.601L243.019 164.484L242.336 159.138L246.344 156.362L247.277 152.131L242.427 151.812L236.644 153.473L229.813 157.022L222.458 162.869L217.039 166.281L219.703 163.119L223.369 159.752L225.646 158.114L221.639 156.954H227.194L229.471 154.065L233.342 151.403L237.099 151.175L239.604 147.945L243.065 146.716H247.937L257.045 146.443L261.485 147.194L265.197 146.966L269.455 144.373L273.553 140.847L279.519 140.028L282.843 138.845" fill="white"/>
</mask>
<g mask="url(#mask0_15_1090)">
<path d="M116.648 108.587C-38.2756 254.188 -38.2756 399.789 116.648 545.391" stroke="#4D4D4D" stroke-width="0.4" stroke-miterlimit="10"/>
<path d="M121.384 104.196C-30.4125 252.739 -30.4125 401.275 121.384 549.804" stroke="#4D4D4D" stroke-width="0.4" stroke-miterlimit="10"/>
<path d="M126.12 99.896C-22.4432 251.306 -22.4432 402.709 126.12 554.104" stroke="#4D4D4D" stroke-width="0.4" stroke-miterlimit="10"/>
<path d="M130.856 95.6875C-14.5497 249.903 -14.5497 404.112 130.856 558.313" stroke="#4D4D4D" stroke-width="0.4" stroke-miterlimit="10"/>
<path d="M135.615 91.5693C-6.64871 248.531 -6.64871 405.507 135.615 562.498" stroke="#4D4D4D" stroke-width="0.4" stroke-miterlimit="10"/>
<path d="M140.351 87.543C1.2599 247.189 1.2599 406.827 140.351 566.457" stroke="#4D4D4D" stroke-width="0.4" stroke-miterlimit="10"/>
<path d="M145.179 83.5615C9.24444 245.846 9.24444 408.131 145.179 570.416" stroke="#4D4D4D" stroke-width="0.4" stroke-miterlimit="10"/>
<path d="M149.732 79.7852C17.0316 244.588 17.0316 409.405 149.732 574.238" stroke="#4D4D4D" stroke-width="0.4" stroke-miterlimit="10"/>
<path d="M154.582 76.0312C24.9478 243.336 24.9478 410.656 154.582 577.992" stroke="#4D4D4D" stroke-width="0.4" stroke-miterlimit="10"/>
<path d="M159.318 72.3457C32.8564 242.108 32.8564 411.877 159.318 581.654" stroke="#4D4D4D" stroke-width="0.4" stroke-miterlimit="10"/>
<path d="M164.055 68.7739C40.7803 240.932 40.7803 413.075 164.055 585.203" stroke="#4D4D4D" stroke-width="0.4" stroke-miterlimit="10"/>
<path d="M168.813 65.3613C48.6813 239.78 48.6813 414.251 168.813 588.775" stroke="#4D4D4D" stroke-width="0.4" stroke-miterlimit="10"/>
<path d="M173.549 61.9033C56.5747 238.627 56.5747 415.358 173.549 592.097" stroke="#4D4D4D" stroke-width="0.4" stroke-miterlimit="10"/>
<path d="M178.285 58.5361C64.4377 237.504 64.4377 416.473 178.285 595.441" stroke="#4D4D4D" stroke-width="0.4" stroke-miterlimit="10"/>
<path d="M183.021 55.397C72.3919 236.473 72.3919 417.542 183.021 598.603" stroke="#4D4D4D" stroke-width="0.4" stroke-miterlimit="10"/>
<path d="M187.78 52.2798C80.293 235.419 80.293 418.566 187.78 601.72" stroke="#4D4D4D" stroke-width="0.4" stroke-miterlimit="10"/>
<path d="M192.516 49.2544C88.1864 234.411 88.1864 419.582 192.516 604.769" stroke="#4D4D4D" stroke-width="0.4" stroke-miterlimit="10"/>
<path d="M197.252 46.3193C96.095 233.432 96.095 420.56 197.252 607.703" stroke="#4D4D4D" stroke-width="0.4" stroke-miterlimit="10"/>
<path d="M202.102 43.4531C104.026 232.477 104.026 421.508 202.102 610.547" stroke="#4D4D4D" stroke-width="0.4" stroke-miterlimit="10"/>
<path d="M206.656 40.7002C111.859 231.559 111.859 422.426 206.656 613.3" stroke="#4D4D4D" stroke-width="0.4" stroke-miterlimit="10"/>
<path d="M211.483 38.061C119.813 230.679 119.813 423.298 211.483 615.916" stroke="#4D4D4D" stroke-width="0.4" stroke-miterlimit="10"/>
<path d="M216.219 35.4678C127.707 229.815 127.707 424.178 216.219 618.555" stroke="#4D4D4D" stroke-width="0.4" stroke-miterlimit="10"/>
<path d="M220.978 32.9648C135.608 228.981 135.608 425.004 220.978 621.035" stroke="#4D4D4D" stroke-width="0.4" stroke-miterlimit="10"/>
<path d="M225.714 30.5762C143.516 228.184 143.516 425.808 225.714 623.446" stroke="#4D4D4D" stroke-width="0.4" stroke-miterlimit="10"/>
<path d="M230.45 28.2783C151.425 227.418 151.425 426.574 230.45 625.744" stroke="#4D4D4D" stroke-width="0.4" stroke-miterlimit="10"/>
<path d="M235.187 26.0488C159.288 226.69 159.288 427.324 235.187 627.951" stroke="#4D4D4D" stroke-width="0.4" stroke-miterlimit="10"/>
<path d="M239.945 23.9331C167.219 225.97 167.219 428.022 239.945 630.089" stroke="#4D4D4D" stroke-width="0.4" stroke-miterlimit="10"/>
<path d="M244.681 21.8857C175.128 225.288 175.128 428.697 244.681 632.114" stroke="#4D4D4D" stroke-width="0.4" stroke-miterlimit="10"/>
<path d="M249.417 19.8608C182.961 224.613 182.961 429.364 249.417 634.116" stroke="#4D4D4D" stroke-width="0.4" stroke-miterlimit="10"/>
<path d="M254.153 18.0864C190.945 224.052 190.945 429.994 254.153 635.914" stroke="#4D4D4D" stroke-width="0.4" stroke-miterlimit="10"/>
<path d="M259.026 16.3345C198.869 223.437 198.869 430.555 259.026 637.688" stroke="#4D4D4D" stroke-width="0.4" stroke-miterlimit="10"/>
<path d="M263.58 14.6514C206.732 222.876 206.732 431.109 263.58 639.349" stroke="#4D4D4D" stroke-width="0.4" stroke-miterlimit="10"/>
<path d="M268.384 13.0356C214.648 222.337 214.648 431.639 268.384 640.941" stroke="#4D4D4D" stroke-width="0.4" stroke-miterlimit="10"/>
<path d="M273.143 11.5801C222.549 221.853 222.549 432.133 273.143 642.42" stroke="#4D4D4D" stroke-width="0.4" stroke-miterlimit="10"/>
<path d="M277.879 10.1694C230.45 218.732 230.45 435.268 277.879 643.831" stroke="#4D4D4D" stroke-width="0.4" stroke-miterlimit="10"/>
<path d="M282.615 8.87256C238.352 218.66 238.352 435.363 282.615 645.15" stroke="#4D4D4D" stroke-width="0.4" stroke-miterlimit="10"/>
<path d="M287.351 7.64404C246.253 218.568 246.253 435.432 287.351 646.356" stroke="#4D4D4D" stroke-width="0.4" stroke-miterlimit="10"/>
<path d="M292.11 6.50635C254.153 218.486 254.153 435.514 292.11 647.493" stroke="#4D4D4D" stroke-width="0.4" stroke-miterlimit="10"/>
<path d="M296.846 5.48291C262.077 218.428 262.077 435.595 296.846 648.54" stroke="#4D4D4D" stroke-width="0.4" stroke-miterlimit="10"/>
<path d="M301.583 4.52734C269.978 218.35 269.978 435.65 301.583 649.473" stroke="#4D4D4D" stroke-width="0.4" stroke-miterlimit="10"/>
<path d="M306.318 3.6626C277.879 218.284 277.879 435.715 306.318 650.337" stroke="#4D4D4D" stroke-width="0.4" stroke-miterlimit="10"/>
<path d="M311.077 2.88916C285.78 218.224 285.78 435.776 311.077 651.111" stroke="#4D4D4D" stroke-width="0.4" stroke-miterlimit="10"/>
<path d="M315.813 2.22949C293.681 218.186 293.681 435.837 315.813 651.793" stroke="#4D4D4D" stroke-width="0.4" stroke-miterlimit="10"/>
<path d="M320.504 1.66064C301.542 218.132 301.542 435.845 320.504 652.316" stroke="#4D4D4D" stroke-width="0.4" stroke-miterlimit="10"/>
<path d="M325.286 1.1377C309.484 218.092 309.484 435.908 325.286 652.863" stroke="#4D4D4D" stroke-width="0.4" stroke-miterlimit="10"/>
<path d="M330.044 0.728027C317.385 218.059 317.385 435.941 330.044 653.272" stroke="#4D4D4D" stroke-width="0.4" stroke-miterlimit="10"/>
<path d="M334.78 0.409668C325.263 218.129 325.263 435.856 334.78 653.591" stroke="#4D4D4D" stroke-width="0.4" stroke-miterlimit="10"/>
<path d="M339.516 0.182129C333.187 218.068 333.187 435.947 339.516 653.818" stroke="#4D4D4D" stroke-width="0.4" stroke-miterlimit="10"/>
<path d="M344.253 0.0454102C341.11 218.023 341.11 435.992 344.253 653.954" stroke="#4D4D4D" stroke-width="0.4" stroke-miterlimit="10"/>
<path d="M349.011 0V654" stroke="#4D4D4D" stroke-width="0.4" stroke-miterlimit="10"/>
<path d="M353.747 0.0454102C356.92 218.023 356.92 435.992 353.747 653.954" stroke="#4D4D4D" stroke-width="0.4" stroke-miterlimit="10"/>
<path d="M358.484 0.182129C364.813 218.068 364.813 435.947 358.484 653.818" stroke="#4D4D4D" stroke-width="0.4" stroke-miterlimit="10"/>
<path d="M363.22 0.409668C372.722 218.129 372.722 435.856 363.22 653.591" stroke="#4D4D4D" stroke-width="0.4" stroke-miterlimit="10"/>
<path d="M367.978 0.728027C380.615 218.059 380.615 435.941 367.978 653.272" stroke="#4D4D4D" stroke-width="0.4" stroke-miterlimit="10"/>
<path d="M372.714 1.1377C388.516 218.092 388.516 435.908 372.714 652.863" stroke="#4D4D4D" stroke-width="0.4" stroke-miterlimit="10"/>
<path d="M377.428 1.66064C396.389 218.132 396.389 435.845 377.428 652.316" stroke="#4D4D4D" stroke-width="0.4" stroke-miterlimit="10"/>
<path d="M382.209 2.22949C404.319 218.187 404.319 435.835 382.209 651.793" stroke="#4D4D4D" stroke-width="0.4" stroke-miterlimit="10"/>
<path d="M386.945 2.88916C412.22 218.225 412.22 435.775 386.945 651.111" stroke="#4D4D4D" stroke-width="0.4" stroke-miterlimit="10"/>
<path d="M391.681 3.6626C420.143 218.283 420.143 435.717 391.681 650.337" stroke="#4D4D4D" stroke-width="0.4" stroke-miterlimit="10"/>
<path d="M396.417 4.52734C428.044 218.348 428.044 435.652 396.417 649.473" stroke="#4D4D4D" stroke-width="0.4" stroke-miterlimit="10"/>
<path d="M401.176 5.48291C435.945 218.428 435.945 435.595 401.176 648.54" stroke="#4D4D4D" stroke-width="0.4" stroke-miterlimit="10"/>
<path d="M405.912 6.50635C443.846 218.488 443.846 435.512 405.912 647.493" stroke="#4D4D4D" stroke-width="0.4" stroke-miterlimit="10"/>
<path d="M410.648 7.64404C451.747 218.568 451.747 435.432 410.648 646.356" stroke="#4D4D4D" stroke-width="0.4" stroke-miterlimit="10"/>
<path d="M415.385 8.87256C459.648 218.66 459.648 435.363 415.385 645.15" stroke="#4D4D4D" stroke-width="0.4" stroke-miterlimit="10"/>
<path d="M420.143 10.1694C467.549 218.734 467.549 435.266 420.143 643.831" stroke="#4D4D4D" stroke-width="0.4" stroke-miterlimit="10"/>
<path d="M424.879 11.5801C475.473 221.868 475.473 432.148 424.879 642.42" stroke="#4D4D4D" stroke-width="0.4" stroke-miterlimit="10"/>
<path d="M429.615 13.0356C483.382 222.337 483.382 431.639 429.615 640.941" stroke="#4D4D4D" stroke-width="0.4" stroke-miterlimit="10"/>
<path d="M434.352 14.6514C491.275 222.876 491.275 431.109 434.352 639.349" stroke="#4D4D4D" stroke-width="0.4" stroke-miterlimit="10"/>
<path d="M439.11 16.3345C499.176 223.452 499.176 430.57 439.11 637.688" stroke="#4D4D4D" stroke-width="0.4" stroke-miterlimit="10"/>
<path d="M443.846 18.0864C507.085 224.052 507.085 429.994 443.846 635.914" stroke="#4D4D4D" stroke-width="0.4" stroke-miterlimit="10"/>
<path d="M448.583 19.8608C514.994 224.613 514.994 429.364 448.583 634.116" stroke="#4D4D4D" stroke-width="0.4" stroke-miterlimit="10"/>
<path d="M453.341 21.8857C522.88 225.303 522.88 428.712 453.341 632.114" stroke="#4D4D4D" stroke-width="0.4" stroke-miterlimit="10"/>
<path d="M458.077 23.9331C530.788 225.97 530.788 428.022 458.077 630.089" stroke="#4D4D4D" stroke-width="0.4" stroke-miterlimit="10"/>
<path d="M462.814 26.0488C538.712 226.69 538.712 427.324 462.814 627.951" stroke="#4D4D4D" stroke-width="0.4" stroke-miterlimit="10"/>
<path d="M467.55 28.2559C546.575 227.426 546.575 426.589 467.55 625.744" stroke="#4D4D4D" stroke-width="0.4" stroke-miterlimit="10"/>
<path d="M472.308 30.5762C554.506 228.184 554.506 425.808 472.308 623.446" stroke="#4D4D4D" stroke-width="0.4" stroke-miterlimit="10"/>
<path d="M477.044 32.9648C562.43 228.981 562.43 425.004 477.044 621.035" stroke="#4D4D4D" stroke-width="0.4" stroke-miterlimit="10"/>
<path d="M481.781 35.4678C570.308 229.83 570.308 424.193 481.781 618.555" stroke="#4D4D4D" stroke-width="0.4" stroke-miterlimit="10"/>
<path d="M486.517 38.061C578.217 230.679 578.217 423.298 486.517 615.916" stroke="#4D4D4D" stroke-width="0.4" stroke-miterlimit="10"/>
<path d="M491.275 40.7002C586.118 231.559 586.118 422.426 491.275 613.3" stroke="#4D4D4D" stroke-width="0.4" stroke-miterlimit="10"/>
<path d="M496.011 43.4531C594.012 232.492 594.012 421.524 496.011 610.547" stroke="#4D4D4D" stroke-width="0.4" stroke-miterlimit="10"/>
<path d="M500.748 46.3193C601.92 233.447 601.92 420.575 500.748 607.703" stroke="#4D4D4D" stroke-width="0.4" stroke-miterlimit="10"/>
<path d="M505.506 49.2544C609.867 234.411 609.867 419.582 505.506 604.769" stroke="#4D4D4D" stroke-width="0.4" stroke-miterlimit="10"/>
<path d="M510.242 52.2798C617.715 235.419 617.715 418.566 510.242 601.72" stroke="#4D4D4D" stroke-width="0.4" stroke-miterlimit="10"/>
<path d="M514.979 55.397C625.623 236.473 625.623 417.542 514.979 598.603" stroke="#4D4D4D" stroke-width="0.4" stroke-miterlimit="10"/>
<path d="M519.715 58.5361C633.562 237.504 633.562 416.473 519.715 595.441" stroke="#4D4D4D" stroke-width="0.4" stroke-miterlimit="10"/>
<path d="M524.473 61.9033C641.433 238.642 641.433 415.373 524.473 592.097" stroke="#4D4D4D" stroke-width="0.4" stroke-miterlimit="10"/>
<path d="M529.209 65.3613C649.342 239.78 649.342 414.251 529.209 588.775" stroke="#4D4D4D" stroke-width="0.4" stroke-miterlimit="10"/>
<path d="M533.946 68.7739C657.235 240.932 657.235 413.075 533.946 585.203" stroke="#4D4D4D" stroke-width="0.4" stroke-miterlimit="10"/>
<path d="M538.682 72.3457C665.144 242.138 665.144 411.908 538.682 581.654" stroke="#4D4D4D" stroke-width="0.4" stroke-miterlimit="10"/>
<path d="M543.44 76.0083C673.045 243.344 673.045 410.671 543.44 577.991" stroke="#4D4D4D" stroke-width="0.4" stroke-miterlimit="10"/>
<path d="M548.199 79.7622C680.961 244.58 680.961 409.405 548.199 574.238" stroke="#4D4D4D" stroke-width="0.4" stroke-miterlimit="10"/>
<path d="M552.913 83.5615C688.877 245.846 688.877 408.131 552.913 570.416" stroke="#4D4D4D" stroke-width="0.4" stroke-miterlimit="10"/>
<path d="M557.649 87.543C696.771 247.189 696.771 406.827 557.649 566.457" stroke="#4D4D4D" stroke-width="0.4" stroke-miterlimit="10"/>
<path d="M562.407 91.5693C704.672 248.531 704.672 405.507 562.407 562.498" stroke="#4D4D4D" stroke-width="0.4" stroke-miterlimit="10"/>
<path d="M567.144 95.6875C712.58 249.888 712.58 404.097 567.144 558.313" stroke="#4D4D4D" stroke-width="0.4" stroke-miterlimit="10"/>
<path d="M571.88 99.896C720.474 251.306 720.474 402.709 571.88 554.104" stroke="#4D4D4D" stroke-width="0.4" stroke-miterlimit="10"/>
<path d="M576.616 104.196C728.412 252.739 728.412 401.283 576.616 549.827" stroke="#4D4D4D" stroke-width="0.4" stroke-miterlimit="10"/>
<path d="M581.375 108.587C736.207 254.188 736.207 399.789 581.375 545.391" stroke="#4D4D4D" stroke-width="0.4" stroke-miterlimit="10"/>
</g>
</svg>
