<svg width="43" height="43" viewBox="0 0 43 43" fill="none" xmlns="http://www.w3.org/2000/svg">
<rect width="43" height="43" fill="#1E1E1E"/>
<g clip-path="url(#clip0_0_1)">
<rect width="1280" height="6878" transform="translate(-81 -700)" fill="#4E1C99"/>
<path d="M-81 -603C-81 -625.091 -63.0914 -643 -41 -643H1159C1181.09 -643 1199 -625.091 1199 -603V6556H-81V-603Z" fill="white"/>
<g clip-path="url(#clip1_0_1)">
<path d="M29.4167 21.5C29.4167 25.87 25.87 29.4167 21.5 29.4167C17.13 29.4167 14.4621 25.015 14.4621 25.015M14.4621 25.015H18.0404M14.4621 25.015V28.9733M13.5833 21.5C13.5833 17.13 17.0983 13.5833 21.5 13.5833C26.7804 13.5833 29.4167 17.985 29.4167 17.985M29.4167 17.985V14.0267M29.4167 17.985H25.9017" stroke="#6953D3" stroke-width="1.5" stroke-linecap="round" stroke-linejoin="round"/>
</g>
<circle cx="21.5" cy="21.5" r="21.5" fill="#6953D3" fill-opacity="0.1"/>
<path d="M-81 167.713C-81 167.713 120.463 66.311 270.044 71.3699C459.179 77.7666 508.701 126.395 695.686 155.732C795.55 171.4 873.674 70.644 972.634 49.9606C1051.34 33.511 1202 90.9737 1202 90.9737V967H-81V167.713Z" fill="#F9F4F4"/>
</g>
<defs>
<clipPath id="clip0_0_1">
<rect width="1280" height="6878" fill="white" transform="translate(-81 -700)"/>
</clipPath>
<clipPath id="clip1_0_1">
<rect width="19" height="19" fill="white" transform="translate(12 12)"/>
</clipPath>
</defs>
</svg>
