<svg width="564" height="282" viewBox="0 0 564 282" fill="none" xmlns="http://www.w3.org/2000/svg">
<path fill-rule="evenodd" clip-rule="evenodd" d="M563.989 284.529L562.989 284.521C562.996 283.681 563 282.841 563 282C563 281.159 562.996 280.319 562.989 279.48L563.989 279.471C563.996 280.313 564 281.156 564 282C564 282.844 563.996 283.687 563.989 284.529ZM563.9 274.429L562.901 274.455C562.857 272.784 562.798 271.116 562.725 269.453L563.724 269.409C563.797 271.078 563.856 272.752 563.9 274.429ZM563.458 264.378L562.46 264.44C562.357 262.766 562.239 261.096 562.107 259.43L563.104 259.351C563.237 261.023 563.355 262.698 563.458 264.378ZM562.662 254.348L561.666 254.445C561.504 252.776 561.327 251.111 561.135 249.45L562.128 249.335C562.321 251.002 562.498 252.673 562.662 254.348ZM561.507 244.337C561.285 242.676 561.049 241.019 560.798 239.366L559.81 239.516C560.059 241.163 560.295 242.814 560.516 244.469L561.507 244.337ZM559.997 234.385L559.011 234.553C558.731 232.902 558.435 231.256 558.126 229.616L559.109 229.43C559.419 231.077 559.715 232.728 559.997 234.385ZM558.134 224.501L557.154 224.704C556.814 223.061 556.459 221.424 556.091 219.792L557.066 219.571C557.436 221.209 557.792 222.853 558.134 224.501ZM555.913 214.674L554.942 214.912C554.544 213.287 554.132 211.668 553.705 210.054L554.672 209.799C555.1 211.418 555.514 213.044 555.913 214.674ZM553.342 204.938L552.379 205.211C551.923 203.602 551.453 201.999 550.97 200.402L551.927 200.112C552.412 201.715 552.884 203.323 553.342 204.938ZM550.423 195.306C549.907 193.707 549.377 192.114 548.833 190.527L547.887 190.851C548.429 192.432 548.957 194.02 549.472 195.613L550.423 195.306ZM547.161 185.786L546.221 186.127C545.649 184.552 545.064 182.984 544.465 181.423L545.399 181.065C546 182.632 546.587 184.206 547.161 185.786ZM543.554 176.381L542.627 176.755C542.001 175.206 541.361 173.663 540.708 172.127L541.628 171.735C542.284 173.277 542.926 174.825 543.554 176.381ZM539.614 167.116L538.701 167.523C538.019 165.996 537.324 164.476 536.615 162.963L537.521 162.539C538.232 164.057 538.93 165.583 539.614 167.116ZM535.346 158.001L534.448 158.441C533.711 156.938 532.961 155.443 532.198 153.955L533.088 153.499C533.853 154.992 534.606 156.493 535.346 158.001ZM530.752 149.042L529.87 149.515C529.08 148.039 528.277 146.572 527.462 145.113L528.335 144.625C529.153 146.09 529.959 147.562 530.752 149.042ZM525.839 140.252L524.975 140.755C524.134 139.311 523.28 137.875 522.413 136.447L523.268 135.928C524.138 137.361 524.995 138.802 525.839 140.252ZM520.617 131.645L519.771 132.179C518.878 130.765 517.973 129.359 517.056 127.962L517.892 127.413C518.812 128.815 519.721 130.226 520.617 131.645ZM515.092 123.231L514.266 123.795C513.323 122.413 512.367 121.039 511.4 119.675L512.216 119.097C513.187 120.466 514.145 121.844 515.092 123.231ZM509.269 115.017L508.464 115.61C507.472 114.263 506.469 112.925 505.454 111.596L506.249 110.989C507.267 112.322 508.274 113.665 509.269 115.017ZM503.158 107.015L502.374 107.636C501.335 106.326 500.286 105.025 499.225 103.733L499.997 103.098C501.062 104.394 502.116 105.7 503.158 107.015ZM496.766 99.2365L496.005 99.885C494.921 98.6119 493.825 97.3485 492.719 96.0952L493.468 95.4333C494.579 96.6911 495.678 97.9589 496.766 99.2365ZM490.103 91.6898L489.366 92.3648C488.237 91.131 487.097 89.9072 485.946 88.6938L486.672 88.0057C487.826 89.2235 488.97 90.4516 490.103 91.6898ZM483.176 84.3835L482.463 85.0843C481.291 83.8915 480.108 82.7091 478.916 81.5373L479.616 80.824C480.813 81.9999 482 83.1865 483.176 84.3835ZM475.994 77.328L475.306 78.0537C474.093 76.9031 472.869 75.7633 471.635 74.6344L472.31 73.8966C473.548 75.0295 474.776 76.1734 475.994 77.328ZM468.567 70.5317L467.905 71.2814C466.651 70.1748 465.388 69.0791 464.115 67.9947L464.763 67.2334C466.041 68.3217 467.309 69.4212 468.567 70.5317ZM460.902 64.0027L460.267 64.7753C458.975 63.7142 457.674 62.6645 456.364 61.6261L456.985 60.8423C458.3 61.8843 459.606 62.9378 460.902 64.0027ZM453.011 57.7509L452.404 58.5456C451.075 57.5309 449.737 56.5278 448.39 55.5364L448.983 54.731C450.335 55.7259 451.678 56.7326 453.011 57.7509ZM444.903 51.7839L444.325 52.5997C442.961 51.6326 441.587 50.6773 440.205 49.7341L440.769 48.9082C442.156 49.8547 443.534 50.8133 444.903 51.7839ZM436.587 46.1084L436.038 46.9443C434.641 46.0269 433.235 45.1216 431.821 44.2286L432.355 43.383C433.774 44.2792 435.185 45.1878 436.587 46.1084ZM428.072 40.7317L427.553 41.5867C426.125 40.7203 424.689 39.8664 423.245 39.0249L423.748 38.1608C425.198 39.0053 426.639 39.8623 428.072 40.7317ZM419.375 35.6652C417.91 34.8468 416.438 34.0411 414.958 33.2481L414.485 34.1297C415.961 34.9198 417.428 35.7226 418.887 36.5382L419.375 35.6652ZM410.501 30.9124L410.045 31.8022C408.557 31.0393 407.062 30.2892 405.559 29.5521L405.999 28.6543C407.507 29.394 409.008 30.1467 410.501 30.9124ZM401.461 26.4791L401.037 27.3847C399.524 26.6763 398.004 25.9809 396.477 25.2988L396.884 24.3857C398.417 25.0703 399.943 25.7681 401.461 26.4791ZM392.265 22.372L391.873 23.2922C390.337 22.6391 388.795 21.9993 387.245 21.3729L387.62 20.4457C389.175 21.0744 390.723 21.7165 392.265 22.372ZM382.935 18.6011L382.577 19.5348C381.016 18.9361 379.448 18.351 377.873 17.7795L378.214 16.8395C379.795 17.413 381.368 18.0003 382.935 18.6011ZM373.473 15.1668L373.149 16.1128C371.568 15.5709 369.98 15.0427 368.387 14.5284L368.694 13.5767C370.293 14.0929 371.886 14.623 373.473 15.1668ZM363.888 12.0734L363.598 13.0305C362.001 12.5466 360.398 12.0766 358.79 11.6206L359.062 10.6585C360.677 11.1162 362.286 11.5879 363.888 12.0734ZM354.201 9.32778L353.946 10.2946C352.332 9.8685 350.713 9.45636 349.088 9.05835L349.326 8.08707C350.957 8.4865 352.582 8.90012 354.201 9.32778ZM344.429 6.934L344.208 7.9094C342.576 7.54057 340.939 7.18595 339.296 6.84566L339.499 5.86645C341.148 6.20795 342.791 6.56385 344.429 6.934ZM334.57 4.89127L334.385 5.87396C332.744 5.56461 331.098 5.26953 329.448 4.98884L329.615 4.00299C331.272 4.28469 332.924 4.58082 334.57 4.89127ZM324.634 3.20179L324.484 4.19049C322.838 3.94082 321.187 3.70544 319.531 3.48448L319.663 2.49326C321.325 2.71502 322.982 2.95124 324.634 3.20179ZM314.665 1.87154L314.551 2.86495C312.89 2.67338 311.225 2.49629 309.555 2.3338L309.652 1.33851C311.327 1.50157 312.999 1.67929 314.665 1.87154ZM304.649 0.896349L304.57 1.8932C302.904 1.76082 301.235 1.64296 299.561 1.53976L299.622 0.541655C301.302 0.645224 302.978 0.763498 304.649 0.896349ZM294.592 0.276096L294.548 1.27513C292.884 1.20202 291.216 1.14338 289.545 1.09933L289.572 0.0996769C291.249 0.143882 292.922 0.20273 294.592 0.276096ZM284.53 0.0111088L284.521 1.01107C283.681 1.0037 282.841 1 282 1C281.159 1 280.319 1.00369 279.48 1.01107L279.471 0.0111047C280.313 0.00370669 281.156 0 282 0C282.844 0 283.687 0.00370808 284.53 0.0111088ZM274.429 0.0996648L274.455 1.09932C272.784 1.14337 271.116 1.20201 269.453 1.27511L269.409 0.276077C271.078 0.202713 272.752 0.143868 274.429 0.0996648ZM264.378 0.541629L264.44 1.53973C262.766 1.64294 261.096 1.76079 259.43 1.89317L259.351 0.896313C261.023 0.763465 262.698 0.645194 264.378 0.541629ZM254.348 1.33846L254.445 2.33376C252.776 2.49624 251.111 2.67334 249.45 2.86491L249.335 1.8715C251.002 1.67924 252.673 1.50152 254.348 1.33846ZM244.337 2.49322L244.469 3.48443C242.814 3.70539 241.163 3.94077 239.516 4.19043L239.366 3.20173C241.019 2.95118 242.676 2.71497 244.337 2.49322ZM234.385 4.00293L234.553 4.98878C232.902 5.26947 231.256 5.56455 229.616 5.8739L229.43 4.89121C231.077 4.58076 232.728 4.28462 234.385 4.00293ZM224.501 5.86639L224.704 6.8456C223.061 7.18588 221.424 7.54051 219.792 7.90933L219.571 6.93393C221.209 6.56378 222.853 6.20789 224.501 5.86639ZM214.674 8.087L214.912 9.05828C213.287 9.45629 211.668 9.86843 210.054 10.2946L209.799 9.32771C211.418 8.90005 213.044 8.48643 214.674 8.087ZM204.938 10.6585C203.323 11.1161 201.715 11.5878 200.112 12.0733L200.402 13.0304C201.999 12.5466 203.602 12.0766 205.211 11.6206L204.938 10.6585ZM195.306 13.5767C193.707 14.0928 192.114 14.6229 190.527 15.1668L190.851 16.1127C192.432 15.5709 194.02 15.0427 195.613 14.5283L195.306 13.5767ZM185.786 16.8394L186.127 17.7794C184.552 18.3509 182.984 18.9361 181.423 19.5348L181.065 18.6011C182.632 18.0002 184.206 17.4129 185.786 16.8394ZM176.381 20.4457L176.755 21.3728C175.206 21.9992 173.663 22.6391 172.127 23.2922L171.735 22.3719C173.277 21.7165 174.825 21.0743 176.381 20.4457ZM167.116 24.3857L167.523 25.2987C165.996 25.9809 164.476 26.6762 162.963 27.3847L162.539 26.4791C164.057 25.7681 165.583 25.0702 167.116 24.3857ZM158.001 28.6542L158.441 29.5521C156.938 30.2891 155.443 31.0392 153.955 31.8022L153.499 30.9124C154.992 30.1467 156.493 29.3939 158.001 28.6542ZM149.042 33.2481L149.515 34.1296C148.039 34.9197 146.572 35.7226 145.113 36.5382L144.625 35.6652C146.09 34.8468 147.562 34.041 149.042 33.2481ZM140.252 38.1608L140.755 39.0249C139.311 39.8663 137.875 40.7203 136.447 41.5867L135.928 40.7317C137.361 39.8623 138.802 39.0053 140.252 38.1608ZM131.645 43.383L132.179 44.2286C130.765 45.1216 129.359 46.0269 127.962 46.9443L127.413 46.1085C128.815 45.1878 130.226 44.2793 131.645 43.383ZM123.231 48.9082L123.795 49.7342C122.413 50.6774 121.039 51.6326 119.675 52.5997L119.097 51.7839C120.466 50.8134 121.844 49.8548 123.231 48.9082ZM115.017 54.731C113.665 55.726 112.322 56.7327 110.989 57.751L111.596 58.5457C112.925 57.531 114.263 56.5278 115.61 55.5364L115.017 54.731ZM107.015 60.8424L107.636 61.6262C106.326 62.6646 105.025 63.7143 103.733 64.7754L103.098 64.0028C104.394 62.9379 105.7 61.8844 107.015 60.8424ZM99.2365 67.2335L99.885 67.9948C98.6119 69.0792 97.3485 70.1748 96.0952 71.2815L95.4333 70.5318C96.6911 69.4213 97.9589 68.3218 99.2365 67.2335ZM91.6898 73.8967L92.3648 74.6344C91.131 75.7634 89.9072 76.9032 88.6938 78.0538L88.0057 77.3281C89.2235 76.1735 90.4516 75.0296 91.6898 73.8967ZM84.3835 80.8241L85.0843 81.5374C83.8915 82.7092 82.7091 83.8916 81.5373 85.0844L80.824 84.3836C81.9999 83.1866 83.1865 82 84.3835 80.8241ZM77.328 88.0058L78.0537 88.6939C76.9031 89.9073 75.7633 91.1311 74.6344 92.3649L73.8966 91.6899C75.0295 90.4517 76.1734 89.2236 77.328 88.0058ZM70.5317 95.4334L71.2814 96.0953C70.1748 97.3486 69.0791 98.612 67.9947 99.8851L67.2334 99.2366C68.3217 97.959 69.4212 96.6912 70.5317 95.4334ZM64.0027 103.098L64.7753 103.733C63.7142 105.025 62.6645 106.326 61.6261 107.636L60.8423 107.015C61.8843 105.7 62.9378 104.394 64.0027 103.098ZM57.7509 110.989L58.5456 111.596C57.5309 112.925 56.5278 114.263 55.5364 115.61L54.731 115.017C55.7259 113.665 56.7326 112.322 57.7509 110.989ZM51.7839 119.097L52.5997 119.675C51.6326 121.039 50.6773 122.413 49.7341 123.795L48.9082 123.231C49.8547 121.844 50.8133 120.466 51.7839 119.097ZM46.1084 127.413L46.9443 127.962C46.0269 129.359 45.1216 130.765 44.2286 132.179L43.383 131.645C44.2792 130.226 45.1878 128.815 46.1084 127.413ZM40.7317 135.928L41.5867 136.447C40.7203 137.875 39.8664 139.311 39.0249 140.755L38.1608 140.252C39.0053 138.802 39.8623 137.361 40.7317 135.928ZM35.6652 144.625C34.8468 146.09 34.0411 147.562 33.2481 149.042L34.1297 149.515C34.9198 148.039 35.7226 146.572 36.5382 145.113L35.6652 144.625ZM30.9124 153.499L31.8022 153.955C31.0393 155.443 30.2892 156.938 29.5521 158.441L28.6543 158.001C29.3939 156.493 30.1467 154.992 30.9124 153.499ZM26.4791 162.539L27.3847 162.963C26.6763 164.476 25.9809 165.996 25.2988 167.523L24.3857 167.116C25.0703 165.583 25.7681 164.057 26.4791 162.539ZM22.372 171.735L23.2922 172.127C22.6391 173.663 21.9993 175.205 21.3729 176.755L20.4457 176.38C21.0744 174.825 21.7165 173.277 22.372 171.735ZM18.6011 181.065L19.5348 181.423C18.9361 182.984 18.351 184.552 17.7795 186.127L16.8395 185.786C17.413 184.205 18.0003 182.632 18.6011 181.065ZM15.1668 190.527L16.1128 190.851C15.5709 192.432 15.0427 194.02 14.5284 195.613L13.5767 195.306C14.0929 193.707 14.623 192.114 15.1668 190.527ZM12.0734 200.112L13.0305 200.402C12.5466 201.999 12.0766 203.602 11.6206 205.21L10.6585 204.938C11.1162 203.323 11.5879 201.714 12.0734 200.112ZM9.32778 209.799C8.90012 211.418 8.4865 213.043 8.08707 214.674L9.05835 214.912C9.45636 213.287 9.8685 211.668 10.2946 210.054L9.32778 209.799ZM6.934 219.571L7.9094 219.792C7.54057 221.424 7.18595 223.061 6.84566 224.704L5.86645 224.501C6.20795 222.852 6.56385 221.209 6.934 219.571ZM4.89127 229.43L5.87396 229.615C5.56461 231.256 5.26953 232.902 4.98884 234.552L4.00299 234.385C4.28468 232.728 4.58082 231.077 4.89127 229.43ZM3.20179 239.366L4.19049 239.516C3.94082 241.162 3.70544 242.813 3.48448 244.469L2.49326 244.337C2.71502 242.675 2.95124 241.018 3.20179 239.366ZM1.87154 249.335L2.86495 249.449C2.67338 251.11 2.49629 252.775 2.3338 254.445L1.3385 254.348C1.50156 252.673 1.67929 251.001 1.87154 249.335ZM0.896349 259.351L1.8932 259.43C1.76082 261.096 1.64296 262.765 1.53976 264.439L0.541655 264.378C0.645224 262.698 0.763498 261.022 0.896349 259.351ZM0.276096 269.408L1.27513 269.452C1.20202 271.116 1.14338 272.784 1.09933 274.455L0.0996769 274.428C0.143882 272.751 0.20273 271.078 0.276096 269.408ZM0.0111088 279.47C0.00370808 280.313 0 281.156 0 282C0 282.844 0.00370669 283.687 0.0111047 284.529L1.01107 284.52C1.00369 283.681 1 282.841 1 282C1 281.159 1.0037 280.319 1.01107 279.479L0.0111088 279.47ZM0.0996648 289.571L1.09932 289.545C1.14337 291.216 1.20201 292.884 1.27511 294.547L0.276077 294.591C0.202713 292.922 0.143868 291.248 0.0996648 289.571ZM0.541629 299.622L1.53973 299.56C1.64294 301.234 1.76079 302.904 1.89317 304.57L0.896313 304.649C0.763465 302.977 0.645194 301.302 0.541629 299.622ZM1.33846 309.652L2.33376 309.555C2.49624 311.224 2.67334 312.889 2.86491 314.55L1.87149 314.665C1.67924 312.998 1.50152 311.327 1.33846 309.652ZM2.49322 319.663L3.48443 319.531C3.70539 321.186 3.94077 322.837 4.19043 324.484L3.20174 324.634C2.95118 322.981 2.71497 321.324 2.49322 319.663ZM4.00293 329.615L4.98878 329.447C5.26947 331.098 5.56455 332.744 5.8739 334.384L4.89121 334.57C4.58076 332.923 4.28462 331.272 4.00293 329.615ZM5.86639 339.499L6.8456 339.296C7.18588 340.939 7.54051 342.576 7.90933 344.208L6.93393 344.429C6.56378 342.791 6.20789 341.147 5.86639 339.499ZM8.087 349.326C8.48643 350.956 8.90005 352.582 9.32772 354.201L10.2946 353.946C9.86843 352.332 9.45629 350.713 9.05828 349.088L8.087 349.326ZM10.6585 359.062C11.1161 360.677 11.5878 362.285 12.0733 363.888L13.0304 363.598C12.5466 362.001 12.0766 360.398 11.6206 358.789L10.6585 359.062ZM13.5767 368.694L14.5283 368.387C15.0427 369.98 15.5709 371.568 16.1127 373.149L15.1668 373.473C14.6229 371.886 14.0928 370.293 13.5767 368.694ZM16.8394 378.214L17.7794 377.873C18.3509 379.448 18.9361 381.016 19.5348 382.577L18.6011 382.935C18.0002 381.368 17.4129 379.794 16.8394 378.214ZM20.4457 387.619L21.3728 387.245C21.9992 388.794 22.6391 390.337 23.2922 391.873L22.3719 392.265C21.7165 390.723 21.0743 389.175 20.4457 387.619ZM24.3857 396.884L25.2987 396.477C25.9809 398.004 26.6762 399.524 27.3847 401.037L26.4791 401.461C25.7681 399.943 25.0702 398.417 24.3857 396.884ZM28.6542 405.999L29.5521 405.559C30.2891 407.062 31.0392 408.557 31.8022 410.045L30.9124 410.501C30.1467 409.008 29.3939 407.507 28.6542 405.999ZM33.2481 414.958L34.1296 414.485C34.9197 415.961 35.7226 417.428 36.5382 418.887L35.6652 419.375C34.8468 417.91 34.041 416.438 33.2481 414.958ZM38.1608 423.748L39.0249 423.245C39.8663 424.689 40.7203 426.125 41.5867 427.553L40.7317 428.072C39.8623 426.639 39.0053 425.198 38.1608 423.748ZM43.383 432.355L44.2286 431.821C45.1216 433.235 46.0269 434.641 46.9443 436.038L46.1085 436.587C45.1878 435.185 44.2793 433.774 43.383 432.355ZM48.9082 440.769L49.7342 440.205C50.6774 441.587 51.6326 442.961 52.5997 444.325L51.7839 444.903C50.8134 443.534 49.8548 442.156 48.9082 440.769ZM54.731 448.983L55.5364 448.39C56.5278 449.737 57.531 451.075 58.5457 452.404L57.751 453.011C56.7327 451.678 55.726 450.335 54.731 448.983ZM60.8424 456.985L61.6262 456.364C62.6646 457.674 63.7143 458.975 64.7754 460.267L64.0028 460.902C62.9379 459.606 61.8844 458.3 60.8424 456.985ZM67.2335 464.763L67.9948 464.115C69.0792 465.388 70.1748 466.651 71.2815 467.905L70.5318 468.567C69.4213 467.309 68.3218 466.041 67.2335 464.763ZM73.8967 472.31L74.6344 471.635C75.7634 472.869 76.9032 474.093 78.0538 475.306L77.3281 475.994C76.1735 474.776 75.0296 473.548 73.8967 472.31ZM80.8241 479.616L81.5374 478.916C82.7092 480.108 83.8916 481.291 85.0844 482.463L84.3836 483.176C83.1866 482 82 480.814 80.8241 479.616ZM88.0058 486.672L88.6939 485.946C89.9073 487.097 91.1311 488.237 92.3649 489.366L91.6898 490.103C90.4517 488.97 89.2236 487.827 88.0058 486.672ZM95.4334 493.468L96.0953 492.719C97.3486 493.825 98.612 494.921 99.8851 496.005L99.2366 496.767C97.959 495.678 96.6912 494.579 95.4334 493.468ZM103.098 499.997L103.733 499.225C105.025 500.286 106.326 501.336 107.636 502.374L107.015 503.158C105.7 502.116 104.394 501.062 103.098 499.997ZM110.989 506.249L111.596 505.454C112.925 506.469 114.263 507.472 115.61 508.464L115.017 509.269C113.665 508.274 112.322 507.267 110.989 506.249ZM119.097 512.216L119.675 511.4C121.039 512.367 122.413 513.323 123.795 514.266L123.231 515.092C121.844 514.145 120.466 513.187 119.097 512.216ZM127.413 517.892L127.962 517.056C129.359 517.973 130.765 518.878 132.179 519.771L131.645 520.617C130.226 519.721 128.815 518.812 127.413 517.892ZM135.928 523.268L136.447 522.413C137.875 523.28 139.311 524.134 140.755 524.975L140.252 525.839C138.802 524.995 137.361 524.138 135.928 523.268ZM144.625 528.335C146.09 529.153 147.562 529.959 149.042 530.752L149.515 529.87C148.039 529.08 146.572 528.277 145.113 527.462L144.625 528.335ZM153.499 533.088L153.955 532.198C155.443 532.961 156.938 533.711 158.441 534.448L158.001 535.346C156.493 534.606 154.992 533.853 153.499 533.088ZM162.539 537.521L162.963 536.615C164.476 537.324 165.996 538.019 167.523 538.701L167.116 539.614C165.583 538.93 164.057 538.232 162.539 537.521ZM171.735 541.628L172.127 540.708C173.663 541.361 175.205 542.001 176.755 542.627L176.38 543.554C174.825 542.926 173.277 542.284 171.735 541.628ZM181.065 545.399L181.423 544.465C182.984 545.064 184.552 545.649 186.127 546.221L185.786 547.161C184.205 546.587 182.632 546 181.065 545.399ZM190.527 548.833L190.851 547.887C192.432 548.429 194.02 548.957 195.613 549.472L195.306 550.423C193.707 549.907 192.114 549.377 190.527 548.833ZM200.112 551.927L200.402 550.97C201.999 551.453 203.602 551.923 205.21 552.379L204.938 553.341C203.323 552.884 201.714 552.412 200.112 551.927ZM209.799 554.672L210.054 553.705C211.668 554.131 213.287 554.544 214.912 554.942L214.674 555.913C213.043 555.513 211.418 555.1 209.799 554.672ZM219.571 557.066L219.792 556.091C221.424 556.459 223.061 556.814 224.704 557.154L224.501 558.134C222.852 557.792 221.209 557.436 219.571 557.066ZM229.43 559.109L229.615 558.126C231.256 558.435 232.902 558.73 234.552 559.011L234.385 559.997C232.728 559.715 231.077 559.419 229.43 559.109ZM239.366 560.798L239.516 559.81C241.162 560.059 242.813 560.295 244.469 560.516L244.337 561.507C242.675 561.285 241.018 561.049 239.366 560.798ZM249.335 562.128L249.449 561.135C251.11 561.327 252.775 561.504 254.445 561.666L254.348 562.661C252.673 562.498 251.001 562.321 249.335 562.128ZM259.351 563.104L259.43 562.107C261.096 562.239 262.765 562.357 264.439 562.46L264.378 563.458C262.698 563.355 261.022 563.237 259.351 563.104ZM269.408 563.724L269.452 562.725C271.116 562.798 272.784 562.857 274.455 562.901L274.428 563.9C272.751 563.856 271.078 563.797 269.408 563.724ZM279.471 563.989L279.479 562.989C280.319 562.996 281.159 563 282 563C282.841 563 283.681 562.996 284.52 562.989L284.529 563.989C283.687 563.996 282.844 564 282 564C281.156 564 280.313 563.996 279.471 563.989ZM289.571 563.9L289.545 562.901C291.216 562.857 292.884 562.798 294.547 562.725L294.591 563.724C292.922 563.797 291.248 563.856 289.571 563.9ZM299.622 563.458L299.56 562.46C301.234 562.357 302.904 562.239 304.57 562.107L304.649 563.104C302.977 563.237 301.302 563.355 299.622 563.458ZM309.652 562.662L309.555 561.666C311.224 561.504 312.889 561.327 314.55 561.135L314.665 562.128C312.998 562.321 311.327 562.498 309.652 562.662ZM319.663 561.507L319.531 560.516C321.186 560.295 322.837 560.059 324.484 559.81L324.634 560.798C322.981 561.049 321.324 561.285 319.663 561.507ZM329.615 559.997L329.447 559.011C331.098 558.731 332.744 558.435 334.384 558.126L334.57 559.109C332.923 559.419 331.272 559.715 329.615 559.997ZM339.499 558.134L339.296 557.154C340.939 556.814 342.576 556.459 344.208 556.091L344.429 557.066C342.791 557.436 341.147 557.792 339.499 558.134ZM349.326 555.913L349.088 554.942C350.713 554.544 352.332 554.132 353.946 553.705L354.201 554.672C352.582 555.1 350.956 555.514 349.326 555.913ZM359.062 553.342L358.789 552.379C360.398 551.923 362.001 551.453 363.598 550.97L363.888 551.927C362.285 552.412 360.677 552.884 359.062 553.342ZM368.694 550.423C370.293 549.907 371.886 549.377 373.473 548.833L373.149 547.887C371.568 548.429 369.98 548.957 368.387 549.472L368.694 550.423ZM378.214 547.161L377.873 546.221C379.448 545.649 381.016 545.064 382.577 544.465L382.935 545.399C381.368 546 379.794 546.587 378.214 547.161ZM387.619 543.554C389.175 542.926 390.723 542.284 392.265 541.628L391.873 540.708C390.337 541.361 388.794 542.001 387.245 542.627L387.619 543.554ZM396.884 539.614L396.477 538.701C398.004 538.019 399.524 537.324 401.037 536.615L401.461 537.521C399.943 538.232 398.417 538.93 396.884 539.614ZM405.999 535.346L405.559 534.448C407.062 533.711 408.557 532.961 410.045 532.198L410.501 533.088C409.008 533.853 407.507 534.606 405.999 535.346ZM414.958 530.752L414.485 529.87C415.961 529.08 417.428 528.277 418.887 527.462L419.375 528.335C417.91 529.153 416.438 529.959 414.958 530.752ZM423.748 525.839L423.245 524.975C424.689 524.134 426.125 523.28 427.553 522.413L428.072 523.268C426.639 524.138 425.198 524.995 423.748 525.839ZM432.355 520.617L431.821 519.771C433.235 518.878 434.641 517.973 436.038 517.056L436.587 517.892C435.185 518.812 433.774 519.721 432.355 520.617ZM440.769 515.092L440.205 514.266C441.587 513.323 442.961 512.367 444.325 511.4L444.903 512.216C443.534 513.187 442.156 514.145 440.769 515.092ZM448.983 509.269L448.39 508.464C449.737 507.472 451.075 506.469 452.404 505.454L453.011 506.249C451.678 507.267 450.335 508.274 448.983 509.269ZM456.985 503.158L456.364 502.374C457.674 501.335 458.975 500.286 460.267 499.225L460.902 499.997C459.606 501.062 458.3 502.116 456.985 503.158ZM464.763 496.766L464.115 496.005C465.388 494.921 466.651 493.825 467.905 492.719L468.567 493.468C467.309 494.579 466.041 495.678 464.763 496.766ZM472.31 490.103L471.635 489.366C472.869 488.237 474.093 487.097 475.306 485.946L475.994 486.672C474.776 487.826 473.548 488.97 472.31 490.103ZM479.616 483.176L478.916 482.463C480.108 481.291 481.291 480.108 482.463 478.916L483.176 479.616C482 480.813 480.814 482 479.616 483.176ZM486.672 475.994L485.946 475.306C487.097 474.093 488.237 472.869 489.366 471.635L490.103 472.31C488.97 473.548 487.827 474.776 486.672 475.994ZM493.468 468.567L492.719 467.905C493.825 466.651 494.921 465.388 496.005 464.115L496.767 464.763C495.678 466.041 494.579 467.309 493.468 468.567ZM499.997 460.902L499.225 460.267C500.286 458.975 501.336 457.674 502.374 456.364L503.158 456.985C502.116 458.3 501.062 459.606 499.997 460.902ZM506.249 453.011L505.454 452.404C506.469 451.075 507.472 449.737 508.464 448.39L509.269 448.983C508.274 450.335 507.267 451.678 506.249 453.011ZM512.216 444.903L511.4 444.325C512.367 442.961 513.323 441.587 514.266 440.205L515.092 440.769C514.145 442.156 513.187 443.534 512.216 444.903ZM517.892 436.587L517.056 436.038C517.973 434.641 518.878 433.235 519.771 431.821L520.617 432.355C519.721 433.774 518.812 435.185 517.892 436.587ZM523.268 428.072L522.413 427.553C523.28 426.125 524.134 424.689 524.975 423.245L525.839 423.748C524.995 425.198 524.138 426.639 523.268 428.072ZM528.335 419.375C529.153 417.91 529.959 416.438 530.752 414.958L529.87 414.485C529.08 415.961 528.277 417.428 527.462 418.887L528.335 419.375ZM533.088 410.501L532.198 410.045C532.961 408.557 533.711 407.062 534.448 405.559L535.346 405.999C534.606 407.507 533.853 409.008 533.088 410.501ZM537.521 401.461L536.615 401.037C537.324 399.524 538.019 398.004 538.701 396.477L539.614 396.884C538.93 398.417 538.232 399.943 537.521 401.461ZM541.628 392.265L540.708 391.873C541.361 390.337 542.001 388.795 542.627 387.245L543.554 387.62C542.926 389.175 542.284 390.723 541.628 392.265ZM545.399 382.935C546 381.368 546.587 379.795 547.161 378.214L546.221 377.873C545.649 379.448 545.064 381.016 544.465 382.577L545.399 382.935ZM548.833 373.473L547.887 373.149C548.429 371.568 548.957 369.98 549.472 368.387L550.423 368.694C549.907 370.293 549.377 371.886 548.833 373.473ZM551.927 363.888L550.97 363.598C551.453 362.001 551.923 360.398 552.379 358.79L553.341 359.062C552.884 360.677 552.412 362.286 551.927 363.888ZM554.672 354.201L553.705 353.946C554.131 352.332 554.544 350.713 554.942 349.088L555.913 349.326C555.514 350.957 555.1 352.582 554.672 354.201ZM557.066 344.429L556.091 344.208C556.459 342.576 556.814 340.939 557.154 339.296L558.134 339.499C557.792 341.148 557.436 342.791 557.066 344.429ZM559.109 334.57L558.126 334.385C558.435 332.744 558.73 331.098 559.011 329.448L559.997 329.615C559.715 331.272 559.419 332.923 559.109 334.57ZM560.798 324.634L559.81 324.484C560.059 322.838 560.295 321.187 560.516 319.531L561.507 319.663C561.285 321.325 561.049 322.982 560.798 324.634ZM562.128 314.665L561.135 314.551C561.327 312.89 561.504 311.225 561.666 309.555L562.661 309.652C562.498 311.327 562.321 312.999 562.128 314.665ZM563.104 304.649L562.107 304.57C562.239 302.904 562.357 301.235 562.46 299.561L563.458 299.622C563.355 301.302 563.237 302.978 563.104 304.649ZM563.724 294.592L562.725 294.548C562.798 292.884 562.857 291.216 562.901 289.545L563.9 289.572C563.856 291.249 563.797 292.922 563.724 294.592Z" fill="black" fill-opacity="0.2"/>
</svg>
