<svg width="1280" height="655" viewBox="0 0 1280 655" fill="none" xmlns="http://www.w3.org/2000/svg">
<path d="M0 188C0 188 210.348 10.292 358 17.5C495.28 24.2018 635.871 60.333 769 94.5C955.434 142.348 786.801 162.605 938 43.5C980.085 10.3478 1074.43 18.0409 1128 17.5C1182.13 16.9534 1280 56.4998 1280 56.4998V655H0V188Z" fill="#D9D9D9"/>
<path d="M0 0.824707C0 0.824707 189.232 52.8878 312.5 69.0002C528.583 97.2445 624.736 -1.51861 842 16C1019.72 30.3305 1280 127.155 1280 127.155V655H0V0.824707Z" fill="#F9F4F4"/>
</svg>
