<svg width="103" height="28" viewBox="0 0 103 28" fill="none" xmlns="http://www.w3.org/2000/svg">
<rect x="0.5" y="0.5" width="102" height="27" rx="13.5" stroke="#444444"/>
<path d="M13.2983 10.4545H14.0909V15.1335C14.0909 15.5511 14.0142 15.9059 13.8608 16.1978C13.7074 16.4897 13.4911 16.7113 13.212 16.8626C12.9329 17.0138 12.6037 17.0895 12.2244 17.0895C11.8665 17.0895 11.5479 17.0245 11.2688 16.8945C10.9897 16.7624 10.7702 16.5749 10.6104 16.332C10.4506 16.0891 10.3707 15.8004 10.3707 15.4659H11.1506C11.1506 15.6513 11.1964 15.8132 11.288 15.9517C11.3817 16.0881 11.5096 16.1946 11.6715 16.2713C11.8335 16.348 12.0178 16.3864 12.2244 16.3864C12.4524 16.3864 12.6463 16.3384 12.8061 16.2425C12.9659 16.1467 13.0874 16.006 13.1705 15.8207C13.2557 15.6332 13.2983 15.4041 13.2983 15.1335V10.4545ZM17.5714 17.1023C17.1282 17.1023 16.7393 16.9968 16.4048 16.7859C16.0724 16.5749 15.8125 16.2798 15.625 15.9006C15.4396 15.5213 15.3469 15.0781 15.3469 14.571C15.3469 14.0597 15.4396 13.6133 15.625 13.2319C15.8125 12.8505 16.0724 12.5543 16.4048 12.3434C16.7393 12.1325 17.1282 12.027 17.5714 12.027C18.0146 12.027 18.4023 12.1325 18.7347 12.3434C19.0692 12.5543 19.3292 12.8505 19.5146 13.2319C19.7021 13.6133 19.7958 14.0597 19.7958 14.571C19.7958 15.0781 19.7021 15.5213 19.5146 15.9006C19.3292 16.2798 19.0692 16.5749 18.7347 16.7859C18.4023 16.9968 18.0146 17.1023 17.5714 17.1023ZM17.5714 16.4247C17.908 16.4247 18.185 16.3384 18.4023 16.1658C18.6197 15.9933 18.7805 15.7663 18.8849 15.4851C18.9893 15.2038 19.0415 14.8991 19.0415 14.571C19.0415 14.2429 18.9893 13.9371 18.8849 13.6538C18.7805 13.3704 18.6197 13.1413 18.4023 12.9666C18.185 12.7919 17.908 12.7045 17.5714 12.7045C17.2347 12.7045 16.9577 12.7919 16.7404 12.9666C16.5231 13.1413 16.3622 13.3704 16.2578 13.6538C16.1534 13.9371 16.1012 14.2429 16.1012 14.571C16.1012 14.8991 16.1534 15.2038 16.2578 15.4851C16.3622 15.7663 16.5231 15.9933 16.7404 16.1658C16.9577 16.3384 17.2347 16.4247 17.5714 16.4247ZM20.9472 17V12.0909H21.7014V17H20.9472ZM21.3307 11.2727C21.1837 11.2727 21.0569 11.2227 20.9504 11.1225C20.846 11.0224 20.7938 10.902 20.7938 10.7614C20.7938 10.6207 20.846 10.5004 20.9504 10.4002C21.0569 10.3001 21.1837 10.25 21.3307 10.25C21.4777 10.25 21.6034 10.3001 21.7078 10.4002C21.8144 10.5004 21.8676 10.6207 21.8676 10.7614C21.8676 10.902 21.8144 11.0224 21.7078 11.1225C21.6034 11.2227 21.4777 11.2727 21.3307 11.2727ZM23.8372 14.0469V17H23.0829V12.0909H23.8116V12.858H23.8755C23.9906 12.6087 24.1653 12.4084 24.3997 12.2571C24.6341 12.1037 24.9366 12.027 25.3074 12.027C25.6397 12.027 25.9306 12.0952 26.1799 12.2315C26.4292 12.3658 26.623 12.5703 26.7615 12.8452C26.9 13.1179 26.9693 13.4631 26.9693 13.8807V17H26.215V13.9318C26.215 13.5462 26.1149 13.2457 25.9146 13.0305C25.7143 12.8132 25.4395 12.7045 25.09 12.7045C24.8493 12.7045 24.6341 12.7567 24.4444 12.8612C24.2569 12.9656 24.1088 13.1179 24.0002 13.3182C23.8915 13.5185 23.8372 13.7614 23.8372 14.0469ZM31.7737 10.4545V17H30.9811V10.4545H31.7737ZM33.005 11.1577V10.4545H37.9141V11.1577H35.8558V17H35.0632V11.1577H33.005ZM40.3814 17.1023C39.9084 17.1023 39.5004 16.9979 39.1573 16.7891C38.8164 16.5781 38.5533 16.2841 38.3679 15.907C38.1847 15.5277 38.093 15.0866 38.093 14.5838C38.093 14.081 38.1847 13.6378 38.3679 13.2543C38.5533 12.8686 38.8111 12.5682 39.1413 12.353C39.4737 12.1357 39.8615 12.027 40.3047 12.027C40.5604 12.027 40.8129 12.0696 41.0621 12.1548C41.3114 12.2401 41.5384 12.3786 41.7429 12.5703C41.9474 12.7599 42.1104 13.0114 42.2319 13.3246C42.3533 13.6378 42.4141 14.0234 42.4141 14.4815V14.8011H38.63V14.1491H41.647C41.647 13.8722 41.5916 13.625 41.4808 13.4077C41.3722 13.1903 41.2166 13.0188 41.0142 12.8931C40.8139 12.7674 40.5774 12.7045 40.3047 12.7045C40.0043 12.7045 39.7443 12.7791 39.5249 12.9283C39.3075 13.0753 39.1403 13.267 39.0231 13.5036C38.9059 13.7401 38.8473 13.9936 38.8473 14.2642V14.6989C38.8473 15.0696 38.9112 15.3839 39.0391 15.6417C39.169 15.8974 39.3491 16.0923 39.5792 16.2266C39.8093 16.3587 40.0767 16.4247 40.3814 16.4247C40.5795 16.4247 40.7585 16.397 40.9183 16.3416C41.0803 16.2841 41.2198 16.1989 41.337 16.0859C41.4542 15.9709 41.5447 15.8281 41.6087 15.6577L42.3374 15.8622C42.2607 16.1094 42.1317 16.3267 41.9506 16.5142C41.7695 16.6996 41.5458 16.8445 41.2795 16.9489C41.0131 17.0511 40.7138 17.1023 40.3814 17.1023ZM45.5558 17.1023C45.0955 17.1023 44.6992 16.9936 44.3668 16.7763C44.0344 16.5589 43.7788 16.2596 43.5998 15.8782C43.4208 15.4968 43.3313 15.0611 43.3313 14.571C43.3313 14.0724 43.4229 13.6325 43.6062 13.2511C43.7915 12.8675 44.0494 12.5682 44.3796 12.353C44.712 12.1357 45.0998 12.027 45.543 12.027C45.8881 12.027 46.1992 12.0909 46.4762 12.2188C46.7532 12.3466 46.9801 12.5256 47.157 12.7557C47.3338 12.9858 47.4435 13.2543 47.4862 13.5611H46.7319C46.6744 13.3374 46.5465 13.1392 46.3484 12.9666C46.1523 12.7919 45.8881 12.7045 45.5558 12.7045C45.2617 12.7045 45.0039 12.7812 44.7823 12.9347C44.5629 13.0859 44.3913 13.3001 44.2678 13.5771C44.1463 13.8519 44.0856 14.1747 44.0856 14.5455C44.0856 14.9247 44.1452 15.255 44.2646 15.5362C44.386 15.8175 44.5565 16.0359 44.7759 16.1914C44.9975 16.3469 45.2575 16.4247 45.5558 16.4247C45.7518 16.4247 45.9297 16.3906 46.0895 16.3224C46.2493 16.2543 46.3846 16.1562 46.4954 16.0284C46.6062 15.9006 46.685 15.7472 46.7319 15.5682H47.4862C47.4435 15.858 47.3381 16.119 47.1697 16.3512C47.0036 16.5813 46.783 16.7646 46.5082 16.9009C46.2354 17.0352 45.918 17.1023 45.5558 17.1023ZM49.343 14.0469V17H48.5888V10.4545H49.343V12.858H49.407C49.522 12.6044 49.6946 12.4031 49.9247 12.2539C50.157 12.1026 50.4659 12.027 50.8516 12.027C51.1861 12.027 51.479 12.0941 51.7305 12.2283C51.9819 12.3604 52.1768 12.5639 52.3153 12.8388C52.456 13.1115 52.5263 13.4588 52.5263 13.8807V17H51.772V13.9318C51.772 13.5419 51.6708 13.2404 51.4684 13.0273C51.2681 12.8121 50.9901 12.7045 50.6342 12.7045C50.3871 12.7045 50.1655 12.7567 49.9695 12.8612C49.7756 12.9656 49.6222 13.1179 49.5092 13.3182C49.3984 13.5185 49.343 13.7614 49.343 14.0469ZM56.5397 17V10.4545H57.3323V13.3693H60.8224V10.4545H61.615V17H60.8224V14.0724H57.3323V17H56.5397ZM66.1933 14.9929V12.0909H66.9475V17H66.1933V16.169H66.1421C66.0271 16.4183 65.8481 16.6303 65.6052 16.805C65.3623 16.9776 65.0555 17.0639 64.6847 17.0639C64.3779 17.0639 64.1052 16.9968 63.8666 16.8626C63.6279 16.7262 63.4404 16.5217 63.3041 16.2489C63.1677 15.9741 63.0995 15.6278 63.0995 15.2102V12.0909H63.8538V15.1591C63.8538 15.517 63.9539 15.8026 64.1542 16.0156C64.3566 16.2287 64.6144 16.3352 64.9276 16.3352C65.1151 16.3352 65.3058 16.2873 65.4997 16.1914C65.6958 16.0955 65.8598 15.9485 65.9919 15.7504C66.1262 15.5522 66.1933 15.2997 66.1933 14.9929ZM68.4313 17V10.4545H69.1855V12.8707H69.2495C69.3049 12.7855 69.3816 12.6768 69.4796 12.5447C69.5797 12.4105 69.7225 12.2912 69.9078 12.1868C70.0953 12.0803 70.3489 12.027 70.6685 12.027C71.0819 12.027 71.4462 12.1303 71.7615 12.337C72.0769 12.5437 72.323 12.8366 72.4998 13.2159C72.6767 13.5952 72.7651 14.0426 72.7651 14.5582C72.7651 15.0781 72.6767 15.5288 72.4998 15.9102C72.323 16.2894 72.0779 16.5835 71.7647 16.7923C71.4515 16.9989 71.0904 17.1023 70.6813 17.1023C70.3659 17.1023 70.1135 17.0501 69.9238 16.9457C69.7342 16.8391 69.5882 16.7187 69.486 16.5845C69.3837 16.4482 69.3049 16.3352 69.2495 16.2457H69.16V17H68.4313ZM69.1728 14.5455C69.1728 14.9162 69.2271 15.2433 69.3358 15.5266C69.4444 15.8079 69.6032 16.0284 69.812 16.1882C70.0208 16.3459 70.2765 16.4247 70.579 16.4247C70.8944 16.4247 71.1575 16.3416 71.3684 16.1754C71.5815 16.0071 71.7413 15.7812 71.8478 15.4979C71.9565 15.2124 72.0108 14.8949 72.0108 14.5455C72.0108 14.2003 71.9576 13.8892 71.851 13.6122C71.7466 13.3331 71.5879 13.1126 71.3748 12.9506C71.1639 12.7866 70.8986 12.7045 70.579 12.7045C70.2722 12.7045 70.0144 12.7823 69.8056 12.9379C69.5968 13.0913 69.4391 13.3065 69.3326 13.5835C69.226 13.8583 69.1728 14.179 69.1728 14.5455Z" fill="#444444"/>
<path d="M86.0188 10.7062L89.8125 14.5L86.0188 18.2937M79.1875 14.5H89.7062" stroke="#444444" stroke-miterlimit="10" stroke-linecap="round" stroke-linejoin="round"/>
</svg>
