<svg width="590" height="593" viewBox="0 0 590 593" fill="none" xmlns="http://www.w3.org/2000/svg">
<mask id="mask0_15_1091" style="mask-type:luminance" maskUnits="userSpaceOnUse" x="0" y="0" width="590" height="593">
<path d="M428.666 38.04C427.869 37.585 427.118 37.1755 426.389 36.8115L424.295 35.583L425.547 36.2427L425.775 36.3565L428.962 38.0855C429.116 38.1423 429.261 38.2188 429.395 38.313L430.488 38.9728L428.621 37.9717M417.441 32.2614L414.413 30.7599L416.28 31.6472L416.986 31.9657L420.355 33.6492L417.441 32.2614ZM411.316 29.3039L409.039 28.2574L407.604 27.6432L403.051 25.6411L401.912 25.1179C403.187 25.6184 404.508 26.2326 405.054 26.4601L404.462 26.2099L406.011 26.9151L406.512 27.1199L408.06 27.7114H407.923L410.815 29.0309L411.111 29.1674L414.526 30.8509C413.525 30.3732 412.5 29.8727 411.43 29.3949M578.74 229.597C578.376 228.05 577.989 226.503 577.602 225.047L578.9 229.369V229.597C578.925 229.701 578.925 229.81 578.9 229.915V229.665M575.826 218.677L574.255 213.103C573.253 210.031 571.978 206.528 570.657 203.002L569.655 199.93L566.672 192.377C569.595 199.135 572.127 206.055 574.255 213.103L576.532 220.701L575.849 218.677M460.908 58.2422C457.037 55.4894 453.121 52.8049 449.159 50.2341L448.772 49.9611C452.893 52.6456 456.969 55.4212 460.953 58.2649M446.085 48.1866L445.698 47.9136C445.447 47.7316 445.447 47.7316 445.402 47.7316C446.199 48.2776 446.905 48.7098 447.679 49.1648L448.863 49.9839L446.085 48.1866ZM446.677 48.5733C451.504 51.6446 456.24 54.8296 460.908 58.1739C456.354 54.9661 451.094 51.5536 446.677 48.5733ZM587.666 280.239V280.557V280.261M588.167 287.086V287.314C588.156 287.239 588.156 287.162 588.167 287.086ZM588.167 286.722V285.653V285.471C588.167 286.017 588.167 286.586 588.281 287.064V286.7M588.099 284.061C588.087 283.924 588.087 283.787 588.099 283.651C588.099 283.173 588.099 282.696 588.099 282.218C588.099 282.923 588.099 283.651 588.258 284.356V284.061M585.799 263.267L585.457 260.218L586.095 264.495C586.231 265.383 586.3 266.293 586.414 267.18V267.408C586.231 266.02 586.026 264.655 585.799 263.29M578.968 229.665C579.032 229.489 579.032 229.295 578.968 229.119C579.196 230.302 579.492 231.53 579.765 232.804L578.854 229.665M77.4234 76.3286C75.1465 78.2851 72.9834 80.2644 70.843 82.2436C73.12 80.1279 75.0099 78.3534 77.4234 76.3286ZM163.424 69.0258C163.72 68.6163 164.016 68.2295 164.289 67.7973C164.562 67.365 165.132 66.364 165.587 65.6587L163.697 65.4085L160.669 66.6825L159.212 69.7538H161.898L163.424 69.094M158.506 65.09L158.733 64.9535L159.417 63.7477C158.916 63.998 158.437 64.3392 157.914 64.5895C157.599 64.7188 157.271 64.8104 156.935 64.8625C156.02 65.1476 155.136 65.521 154.293 65.9772C153.884 66.2047 153.405 66.4095 152.973 66.6143C153.109 66.8873 152.973 67.274 153.314 67.456C153.644 67.5303 153.986 67.5303 154.316 67.456C155.851 66.9865 157.276 66.2127 158.506 65.181M211.741 22.3196L214.519 21.7054V20.3176L211.764 20.2038H209.669L207.392 21.8191L205.98 23.1159H209.145L211.673 22.1604M439.368 44.1598C438.343 43.5228 437.319 42.9768 436.294 42.3853L435.725 42.2033L437.615 43.3408C438.981 44.1371 440.279 44.9561 441.622 45.7751H441.895C441.486 45.4566 441.007 45.2063 440.597 44.9106C439.778 44.3418 439.778 44.3418 439.3 44.0461M425.274 35.9015L422.223 34.5365L423.93 35.4237L422.109 34.491L421.904 34.3772L423.111 35.0142L422.723 34.8322C420.219 33.5355 417.623 32.2387 416.234 31.5334C414.276 30.5552 412.386 29.6679 410.86 28.9627L424.181 35.5375L425.41 36.1972M428.962 38.1082C428.643 37.9717 428.37 37.7897 428.074 37.6305L427.642 37.403L425.82 36.4247L429.053 38.1537M336.951 5.89397C336.313 5.73472 334.674 5.41621 334.4 5.41621H334.81H334.583C331.919 4.84746 330.78 4.66546 330.78 4.66546C331.611 4.80086 332.433 4.99086 333.239 5.23421L332.533 5.09771L330.848 4.96121L330.439 4.84746L329.528 4.68821C329.812 4.76605 330.101 4.82683 330.393 4.87021H329.892H329.551C332.374 5.41621 333.307 5.66647 334.104 5.82572C332.314 5.28219 330.463 4.96127 328.594 4.87021C328.731 4.87021 330.689 5.37071 332.306 5.66647H332.488C332.779 5.74153 333.076 5.79477 333.376 5.82572H333.08C333.512 5.82572 334.651 6.12147 335.357 6.28072H334.446L336.245 6.71298C336.905 6.82673 337.543 7.00873 338.203 7.09973H338.863C339.728 7.09973 340.503 7.80499 341.413 7.55473L339.751 6.71298C340.17 6.8198 340.596 6.89584 341.026 6.94048C339.888 6.53097 338.749 6.41722 337.52 6.05322L336.905 5.89397M337.133 6.64472H336.746H337.156M356.783 11.4223L356.009 11.1493C354.255 10.6715 352.502 10.2848 350.772 9.7615H349.838C347.925 9.19275 345.967 8.71499 344.032 8.21449C343.736 8.21449 340.981 7.48648 340.024 7.32723L340.594 7.53198C340.102 7.47343 339.616 7.38223 339.136 7.25898L337.178 6.75848C335.061 6.57647 333.057 5.82572 330.985 5.50721C331.691 5.71197 332.419 5.87122 333.125 6.03047L333.899 6.23522C336.996 7.00873 336.996 7.00873 337.543 7.19073C336.713 7.09853 335.896 6.91542 335.106 6.64472L334.355 6.43997L333.535 6.23522L332.784 6.05322C332.194 5.85422 331.582 5.72443 330.962 5.66647C331.6 5.89397 332.26 6.05322 332.898 6.25797H332.488L331.213 5.91672C330.643 5.75747 330.051 5.57547 329.459 5.43896C329.824 5.58047 330.197 5.70198 330.575 5.80297H329.755V5.93947C333.034 6.87223 336.404 7.48648 339.66 8.62399C338.297 8.14756 336.895 7.78981 335.471 7.55473C337.333 8.17387 339.225 8.6978 341.14 9.1245C341.004 9.1245 341.004 9.1245 339.068 8.39649C340.343 8.39649 341.345 9.23825 342.688 9.28375H343.144C342.259 8.90257 341.355 8.56844 340.434 8.28274L339.228 7.91874H339.364L342.393 8.78324H343.007L342.165 8.46474L342.871 8.62399C343.531 8.82874 344.214 9.05625 344.897 9.2155L345.512 9.42025C345.398 9.42025 345.398 9.42025 345.057 9.42025H344.783H344.146L344.419 9.60225H343.964C343.964 9.807 343.964 9.807 344.761 10.0573L346.468 10.626H346.582H346.833C347.629 10.808 347.652 10.808 347.834 10.7853C348.017 10.7625 347.698 10.626 346.924 10.262C347.822 10.4202 348.681 10.7525 349.451 11.2403C349.07 11.1514 348.681 11.1056 348.29 11.1038C349.397 11.7256 350.609 12.1418 351.865 12.3323C353.881 12.7508 355.855 13.3524 357.762 14.1295C357.762 14.1295 352.548 11.8545 351.91 11.6498H352.07C350.886 11.2175 349.588 10.7853 348.313 10.3758H348.586C347.067 9.67853 345.469 9.16675 343.827 8.85149C344.169 8.85149 344.556 8.85149 344.874 8.85149C350.681 10.535 350.681 10.535 355.143 12.0365H355.508C355.055 11.7802 354.583 11.5596 354.096 11.3768C355.191 11.6258 356.264 11.9605 357.307 12.3778H357.762C357.237 12.096 356.679 11.8819 356.1 11.7408C356.282 11.7408 356.601 11.7408 356.897 11.7408H356.76M584.911 259.513C583.309 249.247 581.173 239.072 578.513 229.028C576.923 227.818 575.049 227.035 573.071 226.753C567.249 225.454 561.357 224.489 555.424 223.864C555.712 225.737 555.811 227.635 555.72 229.528V229.983L555.584 230.325H555.401C555.047 230.349 554.707 230.476 554.422 230.689H554.172L553.99 230.802L553.83 231.03L553.443 231.394L553.033 230.916L552.692 230.37C552.282 229.983 552.214 229.983 552.145 229.983C551.449 229.829 550.786 229.552 550.187 229.164H549.709V229.733C550.916 230.802 550.916 230.802 551.667 231.053C552.011 231.351 552.237 231.763 552.305 232.213V232.827C552.51 233.259 552.806 233.805 553.011 234.238C553.141 234.702 553.247 235.173 553.329 235.648L553.466 236.103V236.717C554.154 239.069 555.053 241.353 556.153 243.543C556.596 244.841 557.242 246.062 558.066 247.16C558.362 247.16 558.498 247.16 558.658 247.296H559.204C559.432 246.546 559.204 245.772 559.363 245.021L559.819 245.795C565.488 259.672 565.488 259.672 565.762 261.72L565.875 262.471C565.875 268.204 569.519 272.822 570.816 278.168C571.477 281.149 570.338 284.288 571.727 287.268C572.812 289.494 573.659 291.827 574.255 294.23L574.437 295.003L577.579 315.638C577.442 319.005 577.306 322.053 577.101 325.056C577.161 326.618 577.492 328.158 578.08 329.607C578.457 329.663 578.841 329.663 579.218 329.607C579.856 328.264 579.856 326.74 580.539 325.421C581.039 325.24 581.587 325.24 582.087 325.421L582.201 325.944L582.793 324.283C582.787 323.22 583.046 322.173 583.547 321.235C584.048 320.298 584.775 319.5 585.662 318.914C585.662 318.368 585.89 317.617 585.981 317.071C586.209 315.729 587.484 310.883 587.507 310.86L588.121 311.384C588.121 307.698 588.281 305.605 588.281 305.582L588.554 305.833C588.554 304.331 588.554 302.83 588.554 301.283C588.417 291.454 587.825 282.241 586.823 273.118V273.687C586.619 272.162 586.459 270.661 586.209 269.137C585.981 267.157 585.753 265.474 585.503 263.745C585.503 263.221 585.321 262.675 585.207 262.152C585.412 264.427 585.412 264.427 586.095 270.911L585.776 270.479H585.662L585.343 269.432L585.184 269.25C585.184 270.229 585.184 271.207 585.184 272.185C584.457 270.588 584.121 268.841 584.205 267.089V266.589C584.364 266.247 584.364 266.247 584.41 266.247C584.503 266.599 584.674 266.926 584.911 267.203C585.097 266.443 585.025 265.642 584.706 264.928H584.41C584 264.359 583.954 263.585 583.203 263.244C583.131 263.103 583.021 262.984 582.884 262.903C582.634 261.219 582.406 259.513 582.133 257.852C580.562 251.573 577.579 245.704 577.351 239.084C577.807 239.22 578.763 239.561 580.949 248.343C581.651 251.559 582.728 254.682 584.159 257.648L584.342 257.852V257.352C584.342 257.056 584.342 257.079 584.342 257.102C584.548 257.661 584.693 258.24 584.774 258.831V259.035M578.376 228.55C567.813 188.445 549.172 150.916 523.592 118.257L531.015 128.063C540.328 140.985 540.328 140.985 555.743 168.535C562.984 182.845 562.984 182.845 573.959 212.784L578.74 229.051L578.535 228.709M464.118 87.8174L466.395 87.9994L465.826 87.7947H465.576C465.282 87.6247 465.001 87.4347 464.733 87.2259L464.187 86.5662H463.982H463.413L463.253 86.7482V86.8619L463.709 87.4989L463.891 87.6127L464.232 87.8629M411.475 36.675L408.06 34.5365H407.513L407.923 34.764L410.769 36.5612H411.635M466.373 87.9994C476.983 88.6101 487.541 89.9249 497.977 91.9352C499.396 92.165 500.748 92.7007 501.939 93.505L500.436 91.9807C477.461 70.459 477.461 70.459 464.665 60.9494L447.588 49.1193L441.668 45.4111C442.897 46.1846 443.011 46.2528 444.446 47.2083L445.63 48.0273L445.789 48.1866C448.066 50.2569 451.436 51.0759 453.166 53.8741L453.303 54.0334C451.231 52.7139 449.159 51.4399 447.155 50.0749H447.588L445.015 48.3913C444.127 47.8681 444.127 47.8681 443.762 47.6861L441.486 46.2301H441.281C440.824 45.9215 440.335 45.6623 439.823 45.4566H439.413C439.901 45.8669 440.418 46.2396 440.962 46.5713C441.296 46.6974 441.623 46.8417 441.941 47.0036L446.791 50.1886C447.792 51.0289 448.858 51.7896 449.979 52.4636C450.457 52.7366 450.821 52.9641 452.369 53.9651C452.567 54.0822 452.757 54.2113 452.939 54.3519C454.123 55.3756 455.489 56.2174 456.741 57.1502L455.716 56.6952L454.555 55.8989C454.282 55.7169 453.94 55.4666 453.644 55.3074L453.212 55.5349C454.282 56.5587 455.216 57.6962 456.286 58.7199V58.9702C458.312 60.4717 460.498 61.7685 462.411 63.3837C461.859 63.3379 461.323 63.175 460.84 62.906H460.43C458.613 62.1318 456.893 61.1468 455.307 59.9712C456.153 61.3525 457.411 62.4344 458.904 63.0652C459.29 63.414 459.701 63.7334 460.134 64.0207C460.297 64.1461 460.482 64.2388 460.68 64.2937C461.833 64.5814 462.877 65.1979 463.686 66.0682C463.686 66.3412 463.23 66.2957 462.889 66.2502L463.322 66.6825C461.045 66.273 456.491 62.5192 454.692 61.1087C454.369 60.9074 454.001 60.7901 453.622 60.7674L451.231 58.8792C447.269 55.6714 442.51 53.7376 438.412 50.7346C440.097 51.3716 445.948 54.2609 445.994 54.2836C446.607 54.4432 447.231 54.5572 447.861 54.6249C448.84 55.0344 449.728 55.6259 450.753 55.9444H451.14H451.322C451.242 55.601 451.196 55.2504 451.185 54.8979C446.251 50.6872 440.669 47.2995 434.655 44.8651C434.041 44.5014 433.402 44.1821 432.742 43.9095C432.15 43.5072 431.471 43.25 430.761 43.1588C430.488 43.2953 430.465 43.2953 430.42 43.2953C429.372 42.772 428.279 42.2488 427.255 41.68H426.64C427.275 42.0467 427.883 42.4572 428.461 42.9085H428.029C427.173 42.4944 426.364 41.9911 425.615 41.407L425.069 41.0203C423.962 40.4896 422.917 39.8412 421.949 39.0865H421.312L421.744 39.5188C420.678 39.2375 419.629 38.8957 418.602 38.495C418.175 38.3085 417.764 38.0879 417.373 37.8352H417.874L416.53 36.9025C414.775 35.893 412.891 35.1276 410.929 34.6275L413.206 35.9925C412.493 35.8091 411.816 35.5093 411.202 35.1052L410.337 34.5365L409.38 33.9222L407.764 33.763C408.754 34.2853 409.705 34.8783 410.61 35.5375L411.566 36.129L412.113 36.4247H411.908C410.846 35.6781 409.709 35.0451 408.515 34.5365C408.251 34.444 407.975 34.3904 407.696 34.3772L405.806 33.2397L405.328 33.1032L405.669 33.4672L405.214 33.6947C405.783 34.1952 406.466 34.582 407.058 35.0825V35.3327C406.325 35.0975 405.639 34.7356 405.031 34.2635C404.68 34.0271 404.27 33.8932 403.847 33.8767L403.574 34.309C404.658 35.4161 406.072 36.1425 407.604 36.3792C408.219 36.7205 408.743 37.0845 409.312 37.4257H408.743C407.913 37.1218 407.061 36.8859 406.193 36.7205H405.532C406.679 37.3645 407.755 38.1271 408.743 38.9955C406.466 38.1082 404.348 36.857 402.117 35.8332C402.117 36.1972 402.55 36.5157 403.005 36.7887C404.466 37.6093 405.807 38.6275 406.99 39.8145C406.307 39.9965 406.284 39.9965 404.212 38.4723L404.553 38.95L404.166 39.2685L405.168 40.1103C405.897 40.5653 406.739 40.7245 407.445 41.2478L408.288 41.9075L408.652 42.2488C406.859 41.5201 405.136 40.6292 403.506 39.587C403.665 40.1103 404.326 40.588 405.009 41.0885H403.939C403.939 41.3388 403.939 41.3388 405.532 42.408C405.226 42.5681 404.895 42.6757 404.553 42.7265L405.009 43.591L404.827 43.7048C405.052 44.0683 405.32 44.4042 405.623 44.7058H405.259L405.487 45.1608C405.753 45.3056 406.05 45.3837 406.352 45.3883C406.297 45.073 406.336 44.7483 406.466 44.4556H407.012V43.955C407.285 43.7568 407.511 43.5004 407.673 43.2043C408.176 43.1778 408.678 43.2641 409.143 43.4571C409.608 43.65 410.023 43.9445 410.36 44.319H409.358L409.722 44.6603L409.221 44.7741C410.149 46.037 411.227 47.1829 412.432 48.1866H411.862C411.862 48.1866 415.915 54.8524 416.735 55.6032L416.166 55.1254C415.915 56.2857 415.915 56.2857 416.029 56.6042C415.739 56.7738 415.483 56.9978 415.278 57.2639C415.505 57.5597 415.847 57.9464 416.097 58.2194L416.598 58.3787C416.991 58.3173 417.39 58.3173 417.782 58.3787C418.122 58.8162 418.495 59.2269 418.898 59.6072C418.773 59.9383 418.681 60.2813 418.625 60.6309H418.124C418.306 61.4727 418.238 61.5865 417.805 62.0415C418.039 62.5405 418.313 63.0198 418.625 63.4747L418.238 63.8842L416.963 63.2927C416.599 63.2668 416.234 63.2668 415.87 63.2927L416.644 64.3392L417.714 65.2492L417.577 65.7725L417.054 65.9545H416.598C416.166 66.455 416.166 66.455 415.984 67.365H415.483V67.8655C416.075 68.5253 417.304 69.913 415.483 69.8903C415.195 70.1798 414.991 70.5412 414.891 70.9368C416.189 72.2108 416.189 72.2108 416.325 72.6203L415.984 73.0298C416.507 74.2583 417.691 74.8498 418.42 75.8736C418.42 76.2603 418.215 76.2603 418.078 76.2376L418.215 76.7381C418.557 77.3068 418.875 77.7391 419.171 78.1714H420.56C421.995 77.8756 422.496 79.4454 422.541 79.4454L422.268 79.9231C422.541 80.3781 422.837 80.8786 423.156 81.3336L422.723 81.6294C423.315 83.0172 423.315 83.0172 425.934 83.3356C426.305 83.8331 426.626 84.3666 426.89 84.9282L426.685 85.4059L435.793 85.8837C435.714 85.3085 435.6 84.7386 435.452 84.1774L435.907 83.9272L436.385 84.1092C436.396 83.8091 436.347 83.5099 436.242 83.2287C436.136 82.9476 435.976 82.6901 435.77 82.4711C437.797 82.7441 439.914 85.9292 439.937 85.9519C445.151 86.4297 450.001 86.7027 454.578 87.0212V86.5434H455.079C454.804 85.3159 454.368 84.1301 453.781 83.0172L453.098 82.2209C452.187 81.2426 452.005 81.0151 450.183 81.1971C448.817 79.6956 446.768 78.9221 445.63 77.2386C444.104 75.4868 442.601 73.7578 441.076 72.0515C441.076 70.2315 439.186 69.367 438.799 67.729H439.345C439.459 67.2057 439.505 66.8873 438.753 65.7725C439.038 65.6106 439.359 65.5244 439.687 65.5222C439.404 64.848 439.012 64.2252 438.525 63.6795V63.179H439.049C438.708 60.0622 435.361 59.9939 433.88 58.0602L434.063 57.5597C433.428 56.7594 432.743 55.9996 432.013 55.2846C432.347 55.1827 432.704 55.1827 433.038 55.2846H433.334H433.471L436.226 57.0592L436.044 56.5587C436.749 56.5587 436.772 56.5587 439.254 58.2194L441.531 60.2442H440.552C443.876 63.2017 444.241 63.4975 444.354 64.6122C443.999 64.5378 443.649 64.439 443.307 64.3165L442.92 64.6577C446.95 71.4828 446.95 71.4828 450.98 75.3731C451.459 75.8963 451.663 76.1238 451.891 76.3286C455.035 78.6451 458.398 80.6491 461.933 82.3119H462.137C462.183 81.9417 462.183 81.5673 462.137 81.1971C462.866 81.0379 463.572 81.5839 464.301 81.4474L464.073 80.4919C465.007 80.3336 465.962 80.3336 466.896 80.4919V79.9686C467.039 79.9435 467.186 79.9435 467.329 79.9686C468.149 80.4919 468.763 81.2426 469.606 81.6976L471.245 81.8569L472.042 82.5394L472.315 82.9944C471.808 83.0452 471.297 83.0452 470.79 82.9944C470.79 83.7906 470.79 83.7906 472.179 86.5207C470.813 86.4069 469.902 85.2239 468.741 84.8144L468.376 85.2467C467.847 85.2356 467.324 85.1356 466.828 84.9509L466.509 85.3149V85.8154C466.163 85.7204 465.827 85.5908 465.507 85.4287L465.075 85.7244C465.396 86.3969 465.769 87.0435 466.19 87.6582L466.304 87.9312M435.77 85.9292L426.663 85.4287C426.663 85.8837 426.663 85.8837 426.845 86.0202C427.027 86.1567 427.346 86.4297 427.551 86.7027L427.892 87.2259H429.645L430.078 87.5672C430.508 87.9804 430.982 88.3465 431.49 88.6592L432.287 88.3407C432.992 88.5682 433.539 89.0687 434.313 88.9322C434.313 88.9322 435.133 88.7957 434.905 88.1587V87.8174C435.543 87.8174 435.543 87.8174 435.725 87.8174L435.907 87.2714C435.907 86.9529 435.656 86.7482 435.656 86.4524V85.8382M454.396 86.9984C449.842 86.6344 445.015 86.3614 439.937 86.0429C440.711 87.0667 442.009 87.5217 442.783 88.5454L443.034 88.8867V89.6375C443.639 90.4247 444.361 91.1152 445.174 91.685C446.973 92.686 446.973 92.686 447.451 93.3457L447.952 94.051L448.43 94.7562C449.351 96.0005 450.542 97.0195 451.914 97.7365C452.406 97.9613 452.808 98.3463 453.052 98.8285C453.417 99.3973 453.44 100.057 453.758 100.626L453.986 100.99C454.35 101.513 454.806 101.968 455.17 102.469L458.745 102.696C457.265 100.148 457.265 100.148 457.515 99.4883C457.515 99.4883 457.515 99.4883 458.016 99.4883H458.54C459.064 99.4883 459.382 100.194 459.997 100.057C460.179 99.7158 459.769 99.3518 459.997 99.0105C460.225 98.6693 460.293 99.0105 460.862 99.0105C460.43 98.2825 459.906 97.5773 459.405 96.8493H461.295C460.91 96.2246 460.476 95.6313 459.997 95.0748H459.086C458.221 95.3478 457.834 94.506 457.174 94.2785L456.787 93.0727C456.104 91.2072 454.51 89.865 453.827 87.9767L454.032 87.7947V87.1577L454.328 86.9757M578.308 228.527C567.762 188.436 549.145 150.915 523.592 118.257C517.217 110.727 508.701 100.671 501.939 93.505C500.748 92.7007 499.396 92.165 497.977 91.9352C487.541 89.9249 476.983 88.6101 466.373 87.9994L464.096 87.8174L464.642 88.0222H464.824L465.53 88.5454C464.947 88.6097 464.403 88.8658 463.982 89.2735C464.351 89.9407 464.887 90.5009 465.537 90.8996C466.188 91.2983 466.931 91.5219 467.693 91.5485C467.899 90.9904 467.899 90.3775 467.693 89.8195C470.335 90.1835 473.932 94.3695 473.955 94.3695C473.477 95.416 473.477 95.416 474.433 96.781C474.615 97.418 474.433 97.3953 474.114 97.3725C473.795 97.3498 473.682 97.2133 470.722 94.7562H470.289L469.196 93.323H468.354C471.109 100.148 472.293 102.855 475.412 105.836L475.708 106.564C471.883 105.631 471.883 105.631 471.45 105.676C471.723 107.496 473.522 108.156 474.41 109.498L474.091 109.612C472.384 108.52 470.813 107.337 469.151 106.154C468.763 106.336 468.763 106.336 467.033 109.68C466.486 109.68 465.735 109.68 465.189 109.68C463.139 111.955 460.976 108.315 460.27 107.11H459.223C459.223 107.383 459.223 107.701 459.064 107.951H458.107C457.634 107.858 457.155 107.797 456.673 107.769H455.762C456.012 108.27 456.377 108.952 456.65 109.453C456.65 110.022 456.217 109.999 455.853 109.976C454.373 109.68 454.305 109.589 453.075 107.883H452.46H451.367L450.571 106.564L450.001 105.813C450.243 105.546 450.553 105.348 450.897 105.24C451.241 105.132 451.608 105.118 451.96 105.199C453.166 105.54 454.236 106.291 455.352 106.655L455.921 105.949C454.965 103.902 452.802 100.148 452.802 100.125C452.432 99.7541 451.937 99.535 451.413 99.511C450.889 99.6703 450.252 99.9205 449.751 100.125C449.751 100.353 449.91 100.694 449.979 100.922C449.796 101.536 449.705 101.513 449.614 101.513C449.091 101.26 448.66 100.85 448.382 100.34C448.104 99.8299 447.994 99.2456 448.066 98.6693L447.223 97.3725C443.307 97.873 444.263 92.3902 441.19 91.5712C441.19 91.7305 441.19 91.7305 441.622 94.1647C441.19 94.4377 440.575 94.7562 440.119 94.9837C440.383 95.4861 440.721 95.9462 441.121 96.3488C441.213 96.5315 441.32 96.7065 441.44 96.872C441.44 97.1223 441.44 97.4635 441.44 97.7138L440.711 98.2825C440.985 99.2608 440.985 99.2608 446.017 105.108C446.171 105.348 446.308 105.599 446.427 105.858L447.132 107.519C447.907 108.566 448.886 109.407 449.683 110.386C450.115 111.114 450.388 111.614 450.639 112.115H449.774C449.136 112.246 448.489 112.329 447.838 112.365H447.132C445.995 112.078 444.819 111.97 443.649 112.046C443.649 112.319 443.649 112.661 443.649 112.934C443.113 113.204 442.634 113.575 442.237 114.026C442.51 115.595 442.51 115.595 441.736 116.301L440.962 115.732H440.188H439.618H438.753C438.717 116.229 438.845 116.725 439.117 117.142L440.711 117.984C441.098 118.826 441.531 119.668 441.918 120.509C440.279 120.509 439.983 120.942 438.298 123.968H437.592C437.016 124.002 436.438 124.002 435.861 123.968C436.241 125.599 436.775 127.191 437.455 128.722C436.276 128.576 435.079 128.724 433.972 129.155C434.222 129.974 434.541 130.77 434.86 131.589H432.378C431.854 131.316 431.854 131.316 429.896 131.043C429.076 130.588 429.008 130.315 428.871 130.042C428.424 129.612 427.848 129.341 427.232 129.268C427.177 130.134 427.333 131.001 427.687 131.794L428.507 132.135C428.712 132.726 429.008 133.477 429.19 134.046L429.828 134.865C429.964 135.229 430.101 135.57 430.215 135.911C429.014 136.081 427.791 136.01 426.618 135.701C425.445 135.393 424.345 134.853 423.384 134.114C419.9 135.434 419.9 135.434 419.627 135.889C419.724 136.171 419.8 136.46 419.854 136.753C420.651 137.367 420.856 137.367 421.107 137.367C421.554 137.949 422.135 138.415 422.801 138.724C423.467 139.033 424.199 139.176 424.932 139.142H425.934C427.71 140.393 429.372 141.781 431.08 143.078C431.74 144.556 432.302 146.076 432.765 147.628C436.044 151.45 441.554 157.843 438.161 161.46C438.161 161.71 438.161 162.074 438.161 162.324C436.476 163.621 436.476 163.621 435.611 163.758H434.86C432.469 162.688 429.714 162.461 427.551 160.755C424.682 160.527 422.427 160.436 420.15 160.368C417.031 159.913 417.031 159.913 416.485 159.572C415.938 159.23 415.528 159.139 415.369 159.139L414.686 159.64C414.686 159.89 414.845 160.254 414.891 160.527C413.606 161.072 412.204 161.284 410.815 161.141L410.61 162.006C412.887 164.804 412.067 169.013 414.686 171.743C415.073 173.631 415.46 175.406 415.779 177.18C415.779 177.43 415.779 177.749 415.779 178.022C413.069 180.752 414.481 183.004 415.779 185.166L416.348 185.871C416.546 186.323 416.691 186.796 416.781 187.281C416.781 187.577 416.781 187.896 416.94 188.214C416.28 189.374 416.234 189.738 416.94 192.514C417.733 192.807 418.577 192.938 419.422 192.901C421.699 192.4 423.976 194.084 426.253 193.651C426.663 194.061 426.663 194.061 429.668 195.585C430.624 196.723 431.125 198.201 432.355 199.089L432.674 198.042L431.854 197.769C437.893 194.046 444.265 190.893 450.889 188.351L450.206 185.302C447.747 181.503 447.747 181.503 448.499 177.385C448.499 176.839 448.703 176.134 448.772 175.61H450.593C450.945 175.131 451.208 174.591 451.367 174.018C451.88 173.765 452.437 173.61 453.007 173.563L453.235 172.721L457.515 172.334C457.715 171.42 457.627 170.467 457.265 169.604L457.014 168.694C456.23 167.026 455.752 165.231 455.603 163.394C456.992 162.552 456.992 162.552 459.952 163.189H460.27C461.384 163.909 462.585 164.482 463.845 164.895C464.87 164.895 465.166 164.895 465.507 164.895L466.373 164.759C466.279 163.569 466.41 162.373 466.76 161.232C467.228 161.173 467.703 161.173 468.171 161.232C468.763 161.232 470.175 161.414 470.949 158.593C475.754 159.936 476.801 165.418 480.626 167.693C481.637 168.149 482.447 168.958 482.903 169.968C489.188 174.518 500.823 182.64 502.121 189.647C499.502 190.148 499.502 190.148 499.206 191.536C496.856 191.78 494.483 191.657 492.171 191.172C492.307 191.49 492.512 191.945 492.626 192.286C494.903 193.651 496.315 196.29 498.979 197.269L502.644 197.473C502.326 196.313 501.984 195.198 501.688 193.97C502.622 193.31 503.054 192.15 504.102 191.695C503.965 190.466 503.783 189.238 503.578 188.009C503.977 187.602 504.47 187.298 505.013 187.122C505.149 186.592 505.149 186.037 505.013 185.507C504.775 184.992 504.577 184.459 504.421 183.914C503.328 183.914 502.94 183.914 502.531 183.914C502.299 183.796 502.095 183.629 501.934 183.425C501.773 183.221 501.658 182.984 501.597 182.731C501.597 182.481 501.46 182.14 501.415 181.912C502.093 181.488 502.912 181.349 503.692 181.526C504.854 181.981 505.853 182.773 506.561 183.801C506.697 181.89 505.422 180.479 504.853 178.818C501.913 177.61 499.372 175.6 497.521 173.017C495.085 172.858 493.764 170.537 491.556 169.923C490.69 167.216 488.049 165.942 486.592 163.758C486.375 163.668 486.143 163.622 485.909 163.621C484.156 160.436 484.156 160.436 482.106 160.482C481.696 159.753 481.346 158.992 481.059 158.207L481.332 157.365C481.605 156.614 481.56 156.478 481.514 156.341C480.012 153.588 480.012 153.588 480.012 153.292C482.903 152.815 494.174 164.304 494.265 164.44C494.605 164.97 495.073 165.407 495.627 165.709C496.18 166.011 496.8 166.169 497.43 166.169L498.068 167.216C500.049 169.673 503.487 170.287 505.377 172.926C508.269 177.044 509.043 182.185 511.661 186.576C512.238 186.621 512.81 186.72 513.369 186.872C514.161 188.109 514.76 189.459 515.145 190.876H513.779L513.551 190.011L512.709 189.738C512.709 191.24 513.984 192.764 516.101 194.903C516.261 194.584 516.488 194.152 516.693 193.833C519.266 195.107 519.13 198.042 520.61 199.999C521.101 200.262 521.646 200.41 522.204 200.431H523.069C523.388 198.156 523.388 198.156 523.274 197.906L522.955 196.836C522.665 196.319 522.494 195.744 522.454 195.153L523.137 194.652C523.579 195.003 523.991 195.391 524.367 195.813H525.323C525.687 194.607 525.687 194.607 524.822 192.15H525.687L525.961 191.354C524.594 189.352 524.503 189.329 523.433 189.079C523.849 189.963 524.155 190.895 524.344 191.854C523.684 191.854 522.203 191.467 517.035 183.55C516.739 182.663 516.625 182.344 516.511 182.049C516.397 181.753 516.511 181.435 516.511 181.184L517.217 181.685C518.538 183.004 518.538 183.004 519.357 183.186H520.223H520.724C520.724 182.185 520.724 182.185 519.699 180.911C519.721 180.593 519.721 180.274 519.699 179.956C521.976 178.613 523.183 181.23 525.027 181.594C526.188 183.528 526.188 183.528 526.507 183.869C526.914 184.363 527.23 184.925 527.44 185.53L526.826 186.144C527.577 188.715 530.173 190.262 530.674 192.969C530.935 193.521 531.134 194.101 531.266 194.698C531.331 195.016 531.422 195.328 531.539 195.631C531.958 196.514 532.453 197.359 533.019 198.156L533.338 198.656L533.657 198.907L533.975 199.407L534.431 199.908L534.75 200.272C535.086 200.879 535.273 201.557 535.296 202.251V202.729V203.32C535.54 204.265 535.868 205.186 536.275 206.073L536.639 206.551L536.981 206.937C537.071 206.449 537.071 205.947 536.981 205.459L536.844 204.253C536.662 203.684 536.412 202.911 536.207 202.365L535.979 201.5C535.979 200.977 535.979 200.977 536.23 201L536.503 201.113L536.867 201.523L537.14 201.978L537.505 202.387C537.846 202.82 538.324 203.411 538.666 203.889L539.053 204.48L539.372 204.981L539.69 205.231H540.123C540.592 205.294 541.03 205.5 541.375 205.823L542.15 206.005L542.286 205.777L542.423 205.459L542.241 205.004V204.503C541.603 202.956 541.603 202.956 541.626 202.046V201.568L541.763 201.136C542.333 201.16 542.879 201.377 543.311 201.75C543.603 202.223 543.923 202.679 544.267 203.115C544.632 203.548 545.064 204.116 545.428 204.503L545.724 205.004L546.02 205.368L546.248 205.527L546.612 205.8L549.299 206.096C549.163 205.595 548.958 204.935 548.776 204.435L548.616 203.843C548.382 203.236 548.192 202.613 548.047 201.978L548.571 202.114H548.707H549.003C549.345 202.296 549.345 202.296 550.62 203.798C550.816 203.882 551.023 203.936 551.235 203.957L551.371 203.752V203.32V202.956L551.599 203.115C551.789 203.549 552.026 203.961 552.305 204.344L552.487 204.799C552.836 205.805 553.095 206.841 553.261 207.893C553.464 209.698 553.94 211.463 554.673 213.126L554.855 213.603C555.376 214.434 555.645 215.398 555.629 216.379V216.72V216.538C555.796 217.088 555.918 217.651 555.994 218.222V218.699C555.88 221.498 555.88 221.498 555.698 221.816V222.157V222.612V223.113C563.485 224.523 569.359 225.388 573.435 226.48C575.414 226.762 577.287 227.545 578.877 228.755M588.508 287.314L588.053 281.399C588.053 281.058 588.053 280.694 588.053 280.352V280.216C587.575 274.779 586.937 270.251 586.937 270.229V270.092C587.165 272.026 587.233 272.481 587.279 273.368C588.281 282.468 588.865 291.69 589.032 301.032V301.214V299.19C589.032 297.574 588.895 295.959 588.918 294.321V295.572C588.918 295.572 588.804 291.932 588.508 287.359M586.231 264.609L585.594 260.309C583.772 250.959 581.427 238.447 579.127 229.187L578.922 228.846C581.583 238.89 583.719 249.065 585.321 259.331C585.617 260.992 585.799 262.675 586.14 264.313V264.632M394.945 85.4742V85.3149L394.057 85.7017C393.738 85.9292 393.783 86.3614 393.465 86.5889L392.964 86.7482V87.3852C392.964 87.7719 392.508 88.0677 392.508 88.4999C392.568 88.821 392.683 89.129 392.85 89.41L393.647 89.7739L394.125 89.4555C394.125 89.4555 394.125 89.4555 394.125 89.0004V88.5909V88.2042H394.284C394.808 88.2042 395.332 88.2042 395.377 88.0677L395.263 87.7947L395.058 87.4079L395.172 86.7254V86.5662C395.172 86.2022 394.99 85.8154 394.899 85.5424M434.154 117.552C433.912 116.998 433.639 116.459 433.334 115.937C431.877 115.072 431.057 113.525 429.554 112.638L429.053 112.911C429.349 113.298 429.349 113.298 429.053 114.685C428.461 115.004 428.461 115.004 425.706 110.431H423.839C423.5 109.468 423.105 108.526 422.655 107.61C421.835 106.632 420.515 106.359 419.627 105.472L418.989 105.062C418.42 103.993 417.008 103.765 416.576 102.582C416.28 101.877 414.094 99.6475 412.864 99.5793C410.747 99.5793 408.857 98.8285 409.95 97.145C409.768 96.6218 409.768 96.6218 409.768 96.4398C410.138 96.478 410.512 96.478 410.883 96.4398C410.769 96.1895 410.656 95.9393 410.428 95.5298C409.972 94.7335 410.997 94.0965 410.656 93.2547C410.314 92.413 409.676 91.3665 409.153 90.411C407.172 90.411 405.214 90.2745 403.21 90.0242C403.21 89.41 403.21 89.41 403.46 89.1597C403.46 88.4999 402.823 88.1132 402.823 87.4534C403.073 86.9977 403.293 86.5265 403.483 86.0429C402.823 85.4742 402.777 85.4287 402.299 85.3604H400.705C400.478 85.3604 400.136 85.6334 398.11 85.3604L397.95 85.4969C398.281 86.3544 398.511 87.2478 398.633 88.1587C398.929 89.0232 399.499 89.7512 399.84 90.593C398.679 90.593 397.722 89.9332 396.63 89.7739C394.899 89.5692 396.834 92.049 396.903 92.231C397.495 93.0272 398.679 92.595 399.316 93.3457V93.8462C399.473 94.1403 399.61 94.4443 399.726 94.7562C399.726 95.4615 400.751 95.8938 400.455 96.7583C398.724 97.1678 398.724 97.1678 399.658 98.8058C400.09 98.8058 400.523 98.8058 401.092 98.8058C401.229 98.6465 401.366 98.4418 403.369 100.034H404.667C404.427 99.5956 404.309 99.1007 404.326 98.601C404.326 98.601 407.149 101.195 406.899 102.355C405.282 102.355 406.102 103.31 407.035 104.266L410.291 104.402V103.674C412.454 104.789 412.955 107.587 415.209 108.611C415.551 110.158 415.551 110.158 415.87 110.522C416.803 111.569 416.917 111.933 416.507 112.41H414.526C413.889 112.251 413.342 111.751 412.614 111.751H411.657C411.657 111.887 411.657 111.887 411.453 112.524V113.32C411.073 113.297 410.693 113.297 410.314 113.32L410.451 114.071C411.749 114.822 414.321 114.071 414.435 116.141C414.186 116.108 413.933 116.108 413.684 116.141C413.251 116.665 413.251 116.665 413.32 117.324C413.092 117.529 413.001 117.597 412.432 117.552H411.976C412.637 120.76 414.071 119.827 414.64 119.463C416.452 119.599 418.254 119.842 420.037 120.191C420.333 120.191 421.038 121.306 420.401 121.783C419.763 122.261 418.124 121.783 417.19 122.375C417.214 122.64 417.214 122.906 417.19 123.171C416.557 123.201 415.93 123.308 415.323 123.49C415.703 124.194 415.935 124.968 416.006 125.765C415.606 126.34 415.005 126.745 414.321 126.902C415.483 127.539 415.483 127.539 417.145 126.902L417.76 126.334V125.765C418.364 125.895 418.946 126.109 419.49 126.402H421.539C420.902 124.673 420.947 124.582 421.107 124.263C426.344 125.219 426.275 124.445 426.184 123.422L426.344 123.24C427.596 123.376 428.37 124.536 429.6 124.741H430.01C430.852 124.4 431.74 124.991 432.583 124.605C432.97 124.423 432.924 123.967 432.879 123.376C433.448 123.126 434.154 123.535 434.7 122.989C434.45 121.783 433.311 121.192 432.697 120.214L432.492 119.69C432.332 119.304 432.332 119.304 432.492 119.008C432.87 118.973 433.251 118.973 433.63 119.008C433.63 119.008 433.448 118.143 433.243 117.438H434.518M406.193 106.086C405.942 105.039 404.895 104.698 404.326 103.925C403.756 103.151 403.961 102.855 403.529 102.446C403.281 102.189 402.977 101.995 402.641 101.877C402.39 101.741 402.117 101.877 401.867 101.877C401.616 101.877 401.388 101.445 401.07 101.354H400.751C400.262 101.425 399.791 101.587 399.362 101.832V102.56L398.838 102.901C398.124 102.328 397.363 101.818 396.561 101.377C396.058 101.276 395.539 101.276 395.036 101.377C395.582 102.605 395.81 103.902 396.425 105.085H396.151H395.992L395.514 105.426C395.241 105.426 394.99 105.426 394.717 105.426L394.444 105.585C394.193 105.767 393.829 106.04 393.465 105.813C392.713 105.335 392.713 105.335 392.098 105.472C392.781 107.246 393.396 109.021 394.057 110.818C394.813 110.908 395.577 110.908 396.334 110.818C396.63 111.591 396.926 112.388 397.199 113.093C396.63 113.093 396.06 113.093 395.514 113.229C394.854 114.344 396.038 115.277 395.81 116.369C395.195 116.687 394.945 116.847 395.559 117.916C396.046 118.506 396.695 118.941 397.426 119.167C398.064 119.372 398.451 118.712 399.043 118.689C399.643 118.72 400.224 118.909 400.728 119.235C401.366 119.235 401.935 118.348 401.98 118.234C402.026 118.121 401.98 118.234 401.821 117.347C401.821 116.983 402.185 116.96 402.299 116.687L408.242 116.892C408.083 116.551 407.969 116.164 407.832 115.8C407.696 115.436 406.785 114.845 406.694 114.071C407.4 113.571 407.4 113.571 407.308 113.07C406.86 111.495 406.25 109.97 405.487 108.52L404.872 106.996C406.147 106.996 406.284 106.404 406.17 105.858M542.901 462.013C543.083 461.74 543.265 461.444 543.425 461.148C549.709 450.183 549.595 449.637 549.368 448.181C547.151 452.065 544.711 455.818 542.059 459.419C539.782 459.578 540.419 462.149 539.007 463.014C537.049 462.513 537.049 462.513 531.585 470.339C529.194 473.797 528.442 478.256 524.959 481.009L524.776 480.782C522.5 483.352 520.519 486.105 518.355 488.721C518.143 488.983 517.946 489.257 517.763 489.54C516.853 490.837 516.101 492.248 515.145 493.544C514.758 494.045 514.394 494.568 513.961 495.114C512.891 496.616 511.684 498.026 510.637 499.664L510.819 499.892C511.138 499.892 511.479 499.892 511.798 499.892C511.069 501.052 511.069 501.052 511.069 501.28L511.32 501.416V501.735C516.488 500.461 538.051 469.498 538.256 469.179L539.326 467.495C539.645 466.904 539.941 466.335 540.283 465.766C540.624 465.198 540.601 465.198 540.783 464.925C541.489 463.946 542.286 463.036 542.901 462.035M583.658 341.232C583.853 340.605 583.878 339.938 583.73 339.298C583.582 338.659 583.266 338.07 582.816 337.592L582.11 339.344L580.243 339.867C579.572 339.804 578.895 339.85 578.239 340.003C577.898 339.617 577.465 339.093 577.146 338.684C577.146 332.564 577.146 332.564 576.645 331.199C576.645 318.095 568.13 306.697 569.109 293.388C569.109 292.683 569.109 291.978 569.109 290.704C569.109 290.34 564.168 251.164 548.297 229.483C548.138 229.483 548.001 229.483 547.022 229.801C546.704 230.211 546.271 230.78 545.929 231.189H545.497C537.323 227.617 530.583 221.02 521.27 219.814C522.067 223.773 523.16 227.663 523.547 231.667L521.885 232.031H519.79C518.105 230.438 517.103 228.095 514.712 227.253C512.621 227.152 510.537 226.925 508.474 226.571C507.927 225.57 507.768 223.955 506.993 223.09C503.328 218.768 497.339 218.768 492.99 215.651C488.163 212.17 491.487 205.322 487.252 201.614C487.252 201.068 487.138 200.317 487.116 199.748C488.108 199.202 488.905 198.359 489.393 197.337C487.927 196.187 486.291 195.273 484.543 194.63C481.053 195.599 477.44 196.059 473.818 195.995C473.094 196.867 472.184 197.567 471.154 198.042C467.192 194.561 467.192 194.561 459.769 195.767C459.496 196.245 459.155 196.927 458.881 197.428C456.224 197.101 453.527 197.462 451.049 198.474C450.982 199.622 450.704 200.748 450.229 201.796C447.952 202.296 445.675 201.659 443.535 202.865C442.953 202.838 442.374 202.762 441.804 202.638L439.937 202.251H438.639C434.495 202.251 433.585 201.523 431.945 200.09L430.169 199.066C428.621 201.796 429.896 204.867 429.031 207.665C427.249 207.921 425.439 207.921 423.657 207.665C424.021 210.282 424.386 212.966 424.704 215.628C422.561 215.375 420.388 215.649 418.374 216.424C418.374 220.792 417.896 225.16 418.147 229.551C418.147 230.711 418.352 231.826 418.443 233.032C416.663 232.812 414.857 233.063 413.206 233.76C413.225 235.733 412.5 237.641 411.175 239.104C409.85 240.566 408.023 241.477 406.056 241.654C404.371 241.905 396.812 260.537 396.789 260.719L395.104 260.582L393.442 260.924L391.802 261.947C392.463 272.185 391.142 272.708 387.112 274.233C386.907 274.733 386.679 275.416 386.52 275.916C386.411 277.26 386.764 278.6 387.522 279.715C394.717 281.058 394.717 281.058 395.446 282.445C393.51 286.336 393.51 286.336 393.51 299.372C393.51 300.054 393.51 300.759 393.51 301.465C393.51 303.057 393.51 303.057 389.776 306.834C389.958 309.336 390.914 311.679 391.324 314.136C391.324 314.819 391.324 315.501 391.324 317.89C391.324 317.89 398.61 330.517 405.623 334.202C405.282 337.205 404.417 345.236 415.414 346.009C422.814 360.479 423.27 361.343 430.101 360.433C430.763 359.36 431.284 358.205 431.649 356.998C433.926 356.065 436.203 357.134 438.48 356.566H439.55C441.076 356.566 441.076 356.566 444.855 356.679C446.267 358.795 446.267 358.795 455.762 358.795C458.677 352.925 461.136 353.471 466.555 354.655C466.902 354.711 467.255 354.711 467.602 354.655C467.602 354.655 472.156 349.9 476.072 353.085C476.687 361.093 476.687 361.093 479.92 362.526L492.307 363.186C491.966 365.233 491.647 367.281 491.26 369.601C489.643 373.674 489.643 373.674 485.362 388.302C484.326 388.644 483.436 389.325 482.835 390.236C483.439 391.231 484.327 392.023 485.385 392.511C486.501 395.218 485.385 398.631 487.981 400.883C487.093 409.323 491.715 417.923 487.275 426.249C487.07 426.864 486.842 427.478 486.205 429.548C486.081 430.763 486.285 431.988 486.797 433.097L473.978 454.232C465.986 459.715 467.648 477.892 467.716 478.029C466.111 480.625 465.078 483.534 464.688 486.56C463.117 489.29 461.523 491.997 459.656 495.114C459.656 495.273 450.343 519.002 449.068 522.665C448.84 522.915 448.658 523.142 448.066 523.757C445.129 525.281 445.129 525.281 444.4 527.51C444.673 527.51 444.969 527.51 444.4 528.625L443.193 529.99L443.489 531.765C445.147 531.926 446.818 531.926 448.476 531.765C449.617 531.312 450.789 530.939 451.982 530.65C453.867 530.871 455.777 530.724 457.606 530.218C471.86 516.75 489.78 507.923 503.965 494.341L536.48 454.528C536.958 453.641 537.391 452.753 538.575 450.569C539.079 449.517 539.527 448.438 539.918 447.339C541.671 443.813 543.402 440.263 545.041 436.282C545.77 429.776 549.595 424.316 550.961 417.968C551.075 417.65 551.189 417.331 551.462 416.649C556.768 404.409 565.807 394.331 571.044 382.091C581.609 357.498 581.609 357.498 583.795 341.414M304.527 413.236C304.527 413.236 304.117 403.203 299.199 401.065H294.531C287.131 398.79 287.131 398.79 286.471 394.467C281.917 391.487 281.917 391.487 278.501 392.443H271.989C265.659 389.895 265.659 389.895 263.815 390.645C263.815 391.169 263.815 391.851 263.815 392.374C262.471 393.171 261.743 393.603 258.555 391.965C258.555 391.533 258.555 390.964 258.555 390.532C259.306 390.077 260.24 389.462 260.969 388.985C257.624 386.259 253.659 384.399 249.424 383.57C248.632 383.536 247.856 383.335 247.148 382.979C246.317 382.415 245.372 382.041 244.38 381.884C243.388 381.726 242.374 381.789 241.41 382.068C241.41 383.615 241.41 385.163 241.569 386.619H237.288C237.242 385.724 237.242 384.828 237.288 383.934C237.812 383.297 238.518 382.41 239.042 381.659L240.248 380.749C240.021 380.339 239.702 379.816 239.451 379.407C239.451 379.407 236.742 378.588 233.873 377.45H232.78C232.014 377.464 231.251 377.556 230.503 377.723C230.731 381.022 230.799 382.546 226.632 381.909C226.576 381.084 226.576 380.255 226.632 379.429V377.951C228.088 378.137 229.565 377.85 230.845 377.132C231.983 371.512 230.981 369.237 230.617 368.373C229.752 368.373 228.59 368.373 227.725 368.373C227.657 366.281 227.429 364.197 227.042 362.139C226.373 360.394 225.613 358.686 224.765 357.021C219.619 355.792 219.141 354.382 218.686 353.017C215.969 352.093 213.309 351.015 210.716 349.786C208.189 348.557 205.753 350.195 203.248 350.059H201.495C189.472 347.784 189.495 342.893 189.518 340.822C187.365 339.769 185.268 338.608 183.233 337.342C183.233 337 183.233 336.659 181.89 336.159C179.613 334.612 179.613 334.384 179.613 331.427C179.032 331.43 178.452 331.491 177.883 331.609C176.448 332.041 175.105 332.678 173.647 332.996C172.463 331.904 172.463 331.904 172.213 328.879L173.693 328.446C173.693 328.037 173.875 327.491 173.921 327.081C172.73 326.282 171.377 325.754 169.959 325.534L167.864 327.354C167.682 327.354 167.522 327.354 166.634 326.967C165.755 326.65 164.835 326.458 163.902 326.399C162.627 327.878 162.377 329.925 161.17 331.449H159.872C157.732 327.946 157.595 327.923 154.362 327.286C152.606 327.342 150.849 327.282 149.102 327.104C148.181 326.777 147.237 326.519 146.278 326.331C146.332 325.751 146.242 325.168 146.016 324.632C145.789 324.096 145.434 323.625 144.981 323.259C142.704 322.599 140.973 320.984 138.696 320.415L137.512 321.234C137.512 321.439 137.512 321.439 132.139 327.127C132.75 329.577 133.161 332.072 133.368 334.589L132.321 335.544C130.841 333.065 126.515 324.533 133.573 318.709L133.14 317.64C132.435 317.64 131.82 317.64 130.704 317.799C128.086 318.664 128.108 318.937 128.427 322.19H123.463C117.566 326.285 117.566 326.285 114.356 326.308C114.356 328.287 114.561 330.289 114.356 332.541C113.263 333.724 113.263 333.724 110.508 334.589C110.508 338.775 104.587 341.141 106.864 345.964L108.231 346.191C108.481 350.377 113.695 354.95 109.141 358.704C108.618 366.348 108.618 366.348 106.022 366.803C106.25 367.85 106.591 369.26 106.887 370.307C106.227 370.807 105.384 371.535 104.77 372.081C104.77 372.718 104.77 373.537 104.77 374.151C101.901 375.198 101.81 376.426 102.356 380.112C101.278 380.07 100.203 380.24 99.1911 380.612C100.034 383.479 99.8059 386.505 100.808 389.303C102.175 389.473 103.554 389.519 104.929 389.44C105.043 390.077 105.179 390.714 105.271 391.487C105.066 391.874 104.815 392.374 104.633 392.761C103.734 393.031 102.913 393.515 102.242 394.172C102.72 397.106 100.512 400.246 102.766 403.09C102.843 403.512 102.942 403.929 103.062 404.341C104.861 412.872 115.153 414.738 117.543 422.814C117.703 423.519 117.885 424.225 118.158 425.089C120.298 427.887 120.89 431.596 123.577 434.053C128.792 438.807 128.609 450.342 138.491 449.045C147.599 447.839 148.214 460.42 156.707 460.306C157.572 463.287 158.437 466.267 159.417 469.406C159.519 470.356 159.765 471.284 160.145 472.159V472.569C160.145 472.865 160.327 473.138 160.783 474.184C160.988 474.548 161.238 475.049 161.42 475.413C161.503 475.91 161.503 476.417 161.42 476.914C161.531 477.894 161.784 478.852 162.172 479.758V480.008C162.364 480.595 162.648 481.148 163.014 481.646L163.561 483.011L163.697 483.466C163.897 484.145 163.959 484.856 163.879 485.559C164.248 486.463 164.738 487.313 165.337 488.084C165.337 488.357 165.519 488.63 165.633 488.903C165.74 489.194 165.831 489.49 165.906 489.791C166.338 492.612 165.655 495.547 166.771 498.299C167.887 501.052 167.682 500.847 168.775 509.674C168.775 509.834 168.957 509.993 169.481 510.88C175.287 520.412 177.245 523.643 175.924 528.216C176.257 528.911 176.653 529.574 177.108 530.195C177.268 530.582 177.518 531.105 177.7 531.492C178.497 532.516 178.497 532.516 178.292 537.703C181.753 541.047 182.254 546.234 185.784 549.487C188.266 551.626 187.582 555.835 190.975 557.359H192.455L189.04 552.081H190.93C191.317 552.672 191.704 553.264 192.114 553.946C192.114 554.356 192 554.924 191.931 555.357C192.66 556.38 193.434 557.404 194.208 558.542C195.252 560.655 196.454 562.685 197.806 564.616C196.986 564.161 195.962 563.501 195.187 563.001L194.778 562.455L193.776 561.34C193.776 561.34 193.912 561.522 193.343 561.636C193.818 562.306 194.403 562.89 195.074 563.365C196.689 564.283 198.093 565.531 199.195 567.028C197.874 566.595 196.781 565.663 195.461 565.208C195.95 565.653 196.285 566.243 196.417 566.891C196.417 567.323 196.576 567.869 196.599 568.279C199.4 570.008 202.792 570.69 205.001 573.329C204.142 573.568 203.358 574.023 202.724 574.649L203.931 575.673C204.591 576.173 205.502 576.833 206.208 577.288C206.532 577.708 206.828 578.149 207.096 578.607C208.758 579.517 210.147 580.882 211.764 581.77L211.559 582.225L212.583 582.657C213.047 582.676 213.504 582.784 213.927 582.976C214.497 583.72 215.297 584.256 216.204 584.5L216.568 584.818L226.997 590.369C227.242 590.599 227.509 590.804 227.793 590.984C229.151 591.427 230.535 591.784 231.937 592.053C232.437 592.113 232.926 592.235 233.395 592.417C234.368 592.428 235.341 592.382 236.309 592.28L236.97 591.461C235.743 590.709 234.333 590.307 232.894 590.301C232.598 590.005 232.302 589.71 230.845 589.346C230.845 589.346 228.773 587.844 226.291 585.842C225.949 585.498 225.584 585.179 225.198 584.887C224.173 583.863 222.921 583.066 221.987 582.065C221.681 581.725 221.337 581.42 220.963 581.156L219.642 579.677C219.391 579.335 219.073 578.903 218.777 578.562C219.38 578.625 219.988 578.514 220.53 578.243C219.892 577.545 219.327 576.782 218.845 575.968L219.961 575.127C219.642 574.239 219.164 573.034 218.845 572.124C219.095 571.805 219.369 571.305 219.596 570.963C219.369 570.622 219.095 570.281 217.866 569.849L216.477 569.553C212.06 566.573 212.06 566.573 211.513 565.89C211.399 565.731 211.286 565.549 211.081 564.411C211.354 564.093 211.718 563.638 211.969 563.297H214.838C214.011 562.084 213.403 560.737 213.039 559.315C212.664 557.989 212.458 556.621 212.424 555.243L213.904 555.38C213.904 554.97 214.041 554.424 214.109 553.992C214.177 553.56 213.904 553.605 212.948 552.809H212.697H212.515L211.263 553.514C210.352 552.9 210.352 552.9 208.53 550.306C208.189 549.692 207.893 549.055 207.551 548.441H208.69C209.653 548.823 210.589 549.272 211.49 549.783H214.906C214.701 549.442 214.428 548.941 214.2 548.577C213.972 548.213 214.018 548.145 213.631 547.098C213.79 545.506 213.79 545.506 212.128 543.322C211.9 542.821 211.718 542.344 211.49 541.82C212.601 541.834 213.711 541.781 214.815 541.661H216.91C217.274 541.479 217.843 541.274 218.253 541.092C219.232 541.092 220.234 541.092 221.6 541.092L222.944 541.32C222.944 538.84 224.879 537.202 225.744 535.086L226.04 533.79C225.812 533.107 225.608 532.425 225.425 531.742C224.966 531.736 224.508 531.683 224.059 531.583C224.059 531.128 223.786 530.673 223.49 529.626C221.942 527.693 219.232 527.124 217.889 524.917H220.78C230.321 527.192 232.552 527.67 233.304 524.189C235.763 512.404 237.994 511.13 238.837 510.675C239.165 511.53 239.26 512.457 239.11 513.36L240.522 513.656C241.775 511.602 242.842 509.439 243.709 507.195C243.983 504.647 247.421 504.601 247.808 502.121C248.332 498.527 244.37 495.706 246.009 491.906C248.432 488.966 251.089 486.227 253.956 483.716C255.299 483.716 256.642 483.716 258.51 483.716C259.641 482.84 260.686 481.857 261.629 480.782C265.032 480.861 268.436 480.77 271.83 480.509C271.96 479.604 272.295 478.74 272.809 477.983C274.641 476.614 275.97 474.679 276.589 472.478C277.445 471.998 278.267 471.458 279.048 470.862C278.994 468.743 279.564 466.655 280.687 464.856C281.621 464.288 281.621 464.288 282.964 456.939C283.006 456.234 283.192 455.545 283.51 454.915C284.458 453.186 284.995 451.264 285.082 449.295C285.1 448.535 285.054 447.773 284.945 447.02C284.945 446.611 284.786 446.065 284.694 445.655C284.737 444.704 284.683 443.752 284.535 442.812C284.412 440.846 284.812 438.884 285.696 437.124C286.607 436.874 286.607 436.874 292.186 429.707C292.932 429.715 293.668 429.533 294.325 429.179C294.982 428.824 295.539 428.31 295.943 427.683L302.591 418.469C304.367 415.147 304.367 415.147 304.481 413.327M158.756 287.496L158.984 287.359C158.483 286.836 157.481 287.155 157.14 286.336C156.798 285.517 157.299 284.311 157.14 283.31C155.315 283.914 153.413 284.251 151.493 284.311H149.626C148.647 284.106 147.872 283.378 146.871 283.31H145.937C145.117 283.606 144.867 284.629 144.002 284.902H140.837C139.516 284.902 139.106 283.378 137.968 283.105C136.829 282.832 135.691 281.171 134.188 281.126L127.995 280.876C126.829 280.931 125.674 281.13 124.556 281.467C124.556 283.583 124.556 285.699 124.556 287.792C126.264 290.067 127.425 291.272 128.017 291.432H129.93C131.524 291.432 131.524 291.432 132.822 289.725C133.436 288.906 135.713 288.633 135.713 288.633C136.784 288.633 137.74 289.179 138.765 289.179C139.789 289.179 140.791 288.611 141.838 288.633C144.215 288.647 146.583 288.333 148.874 287.701C149.155 287.527 149.478 287.436 149.808 287.436C150.138 287.436 150.461 287.527 150.741 287.701C152.235 288.079 153.759 288.33 155.295 288.451H157.185C157.868 288.451 158.301 287.814 158.847 287.496M110.826 290.476L111.008 290.158C110.804 289.498 111.282 288.679 110.644 288.087C110.007 287.496 109.642 287.905 109.164 287.701C108.686 287.496 108.253 286.927 107.684 286.654H107.229L102.356 286.791C102.675 287.382 102.857 288.065 103.199 288.679L103.631 289.225C103.95 289.543 104.064 289.498 104.952 289.225C105.84 288.952 107.229 290.271 107.229 290.271C107.229 290.271 107.502 290.84 107.502 291.568C107.455 291.864 107.502 292.166 107.639 292.433C108.162 292.433 108.732 292.728 109.301 292.433C109.87 292.137 109.642 292.228 110.804 290.544M105.976 278.51L118.978 278.214C118.204 276.735 115.107 272.253 112.443 271.821H110.599C108.754 271.821 106.956 272.708 105.111 271.821C103.836 271.23 103.563 269.774 102.607 268.886C101.111 267.783 99.5442 266.78 97.916 265.883C96.1628 264.7 96.1628 264.7 95.9123 263.881C95.6618 263.062 95.5707 262.698 94.5006 262.653C93.4304 262.607 92.2236 262.88 90.8802 262.948C90.1061 262.948 90.1061 262.948 89.218 263.79C88.33 264.632 87.7836 263.79 87.0777 263.631H83.6623C80.725 263.631 80.725 263.631 80.2924 263.949C76.8086 267.453 81.7724 273.277 85.8937 270.524C86.9411 269.842 87.4876 268.591 88.6944 268.113C89.6601 267.963 90.6431 267.963 91.6088 268.113C91.6088 268.113 94.9104 269.387 95.1837 271.48C95.1837 271.958 95.3203 272.367 95.7074 272.595C98.508 274.142 98.9179 274.051 99.8287 273.891C100.739 273.732 101.24 274.142 101.719 275.097C102.116 275.927 102.712 276.647 103.455 277.19C104.198 277.734 105.064 278.086 105.976 278.214M358.422 56.6724L357.147 54.3974C356.81 53.9695 356.411 53.5939 355.963 53.2826C355.166 52.9075 354.294 52.7206 353.413 52.7366C352.99 51.4834 352.392 50.2962 351.637 49.2103C350.817 49.2103 349.975 49.2103 349.11 49.2103C348.244 49.2103 348.176 49.2103 346.127 51.2579C344.92 51.1214 343.85 50.6436 342.552 50.6209C340.457 50.6209 339.888 51.0759 339.524 51.4399C339.376 51.5833 339.202 51.6956 339.01 51.7699C338.818 51.8441 338.613 51.8789 338.408 51.8721H336.131C335.971 51.4854 335.835 51.1214 335.653 50.7574C335.471 50.3934 335.334 50.0294 335.197 49.6881C335.061 49.3468 334.309 49.0056 333.899 48.5961L332.898 48.8463L333.376 49.8929C331.999 49.5069 330.563 49.3834 329.141 49.5289C328.776 49.5289 325.953 50.1204 328.253 52.5091C329.391 52.5091 330.393 51.6219 331.554 52.0541L333.945 53.4419C334.355 53.8514 334.264 54.3974 334.491 54.8524C332.566 54.3817 330.562 54.3351 328.617 54.7159L329.664 56.3994C330.325 56.1719 330.325 56.1719 330.598 56.1719H332.875L333.285 56.4677C333.558 57.2184 333.831 57.9692 334.082 58.7427L335.106 59.9484H336.313C337.474 59.9484 338.59 59.6982 339.82 59.7437H341.095C342.757 59.6299 343.668 61.1769 345.079 61.5865C345.079 61.5865 349.633 62.6102 349.519 60.2897C349.519 59.3569 349.519 59.3569 350.202 58.6289C350.886 57.9009 351.409 58.9702 351.728 58.3332C352.32 57.1729 352.32 57.1729 352.912 56.9454C353.504 56.7179 353.777 56.6042 358.149 56.7634M226.404 132.362L226.769 131.93C226.769 131.452 226.564 130.793 226.473 130.315C224.56 130.315 224.56 130.315 223.945 129.905C222.887 129.296 221.927 128.528 221.099 127.63C220.803 127.13 220.644 126.834 220.188 126.698C219.067 126.484 217.934 126.34 216.796 126.265C216.263 126.024 215.746 125.75 215.247 125.446C216.773 122.511 216.773 122.511 218.572 121.783C218.868 121.647 220.12 120.123 219.46 119.076C219.295 118.854 219.165 118.609 219.073 118.348C218.667 118.354 218.263 118.316 217.866 118.234C217.055 118.373 216.28 118.675 215.589 119.122C214.929 119.781 215.247 120.691 214.929 121.397C214.2 123.126 214.2 123.126 213.335 123.831C213.335 123.831 204.569 131.703 204.227 132.112C203.701 132.782 203.328 133.558 203.134 134.387C203.088 135.031 203.088 135.677 203.134 136.321H215.634C216.705 136.321 217.16 136.571 218.162 137.913C219.148 139.492 220.594 140.73 222.306 141.462C222.602 141.171 222.972 140.967 223.376 140.871C223.809 140.734 224.788 140.37 224.742 136.662C224.742 134.387 224.742 134.387 226.404 132.408M193.093 127.312V127.175C192.637 126.993 192.318 126.629 191.84 126.447C191.556 126.383 191.26 126.383 190.975 126.447C190.11 126.447 190.019 126.447 189.654 126.447C189.295 126.325 188.965 126.13 188.683 125.876C188.401 125.622 188.174 125.313 188.015 124.969C187.719 124.286 187.446 124.15 187.013 124.15C186.628 124.206 186.237 124.206 185.852 124.15L184.03 124.969C184.528 125.158 184.996 125.419 185.419 125.742C185.784 126.152 185.761 126.743 186.057 127.175L186.353 127.494C186.717 127.835 187.127 128.154 187.491 128.518C187.856 128.882 188.015 129.268 188.334 129.587C188.555 129.822 188.84 129.988 189.154 130.065C189.586 130.201 190.338 130.383 192.979 127.403M301.385 2.00368C300.517 1.86273 299.643 1.76402 298.766 1.70793C298.479 1.67315 298.188 1.67315 297.901 1.70793C298.194 1.80914 298.476 1.93868 298.743 2.09468C298.288 2.11393 297.833 2.05231 297.4 1.91268L297.081 2.23119H296.967C296.967 2.23119 296.967 2.23119 296.694 2.57244L296.944 2.95919L295.806 2.14018C295.503 2.00831 295.214 1.84836 294.941 1.66243C294.518 1.52448 294.084 1.42549 293.643 1.36668H293.301H292.869L293.301 1.68518C293.006 1.66189 292.709 1.66189 292.413 1.68518L292.049 1.54868H292.208H292.641C292.129 1.46037 291.605 1.46037 291.093 1.54868H290C289.706 1.54779 289.414 1.59387 289.135 1.68518H288.93H288.77H288.315V1.25293C288.982 1.30972 289.652 1.30972 290.319 1.25293C290.901 1.31662 291.489 1.31662 292.072 1.25293H292.504L291.935 0.820673H291.298L289.476 0.638672H288.861H288.36H286.493H286.675H288.725H287.837H284.763L284.285 0.775173H283.829H283.214H281.325H280.892H281.006L280.55 0.820673H279.754H279.594L279.776 0.934424H280.254V1.27568L280.118 1.41218H279.913H279.662H279.526H279.139H278.706C278.381 1.37805 278.052 1.37805 277.727 1.41218L277.568 1.57143L277.454 1.70793L277.272 1.86718H276.953V1.20743H276.816H276.452L275.974 1.38943L275.564 1.54868H275.427H275.291L274.585 1.79893H274.425H274.084L274.494 1.63968L275.04 1.52593H275.222H275.359H275.518H275.632L275.951 1.41218H275.655H275.222H275.04H274.448H274.107H273.469H273.128H272.444H272.217H272.08H271.921H272.148H271.944H271.625H270.919H270.714H270.19C269.912 1.45624 269.637 1.52476 269.371 1.61693H269.234H269.075L266.889 2.20844H266.365H265.591L264.885 2.34494L263.2 2.64069L262.335 2.82269V2.68619H261.652H261.379H261.128H260.878H260.559H260.103L259.124 2.93644H258.897L258.031 3.18669H258.396H258.555H259.42H259.944L259.056 3.52795H258.919H258.737H258.578L257.371 4.0512L256.438 4.34695H256.141H255.504C255.164 4.31686 254.822 4.36351 254.502 4.48346H254.001C253.713 4.50454 253.424 4.50454 253.136 4.48346C252.767 4.41279 252.389 4.41279 252.02 4.48346L251.656 4.61996L251.178 4.80196L250.722 4.91571H250.517H249.789H249.356C248.79 4.99505 248.22 5.04064 247.648 5.05221H247.398H247.17H246.943H246.647H246.396H246.146L245.85 5.16596H245.599H244.984C243.391 5.64372 243.322 5.78022 243.072 6.28072L243.482 6.43997L243.117 6.69023H244.347V6.91773V7.14523H245.212L245.941 6.98598H246.214C246.57 7.00994 246.928 7.00994 247.284 6.98598H247.717H248.195L247.216 7.53198L246.806 7.71398H246.556L245.44 8.05524H245.167H244.984H244.119H243.732L242.935 8.21449H242.73L242.115 8.05524H241.842L241.068 8.39649H240.271C240.063 8.41904 239.862 8.48544 239.681 8.59133C239.501 8.69722 239.345 8.84017 239.224 9.01075C239.612 9.10661 239.953 9.34128 240.18 9.6705H239.725L239.406 9.807L239.11 11.7863V11.9228L239.315 12.0593V12.1958V12.3323L239.155 12.4688L239.36 12.6735V12.81L239.839 12.9465H240.112H240.408L240.567 12.81L241.159 12.2413H241.501C241.801 12.2534 242.099 12.2992 242.389 12.3778H242.594L242.981 12.082H243.618C243.897 12.1304 244.182 12.1304 244.461 12.082L244.734 11.9455H244.984H245.258H245.463H245.599H245.827L246.1 11.809L246.738 11.6043L247.056 11.9H248.149L248.468 12.1958V12.3323H249.698H249.834L250.199 12.6053H250.996V13.0375L251.36 13.1968H251.77V13.5835C251.376 13.9966 251.032 14.4548 250.745 14.9485V15.1078V15.2671H251.018H251.223V15.4036V15.8813V16.0406V16.5183V16.6548V16.9051V17.0643V17.8833V18.6113V18.7478L251.428 19.2483L251.246 19.4986C250.813 19.8626 250.768 19.9081 250.859 20.7043L250.244 21.6826C249.516 22.1831 249.516 22.1831 249.288 22.6154H250.335C250.178 22.9423 249.924 23.2126 249.607 23.3889C249.313 23.4206 249.027 23.5054 248.764 23.6391C248.512 24.1741 248.223 24.691 247.899 25.1861H247.034C246.897 25.4591 246.738 25.7321 246.578 26.0051V26.4601C246.853 26.5807 247.145 26.6575 247.444 26.6876C247.735 26.6927 248.026 26.7308 248.309 26.8014H248.764C249.579 26.8021 250.393 26.7489 251.201 26.6421C251.428 26.2099 251.428 26.2099 253.637 25.8914C253.432 26.8242 253.159 27.9844 254.912 28.0527H255.208C255.686 28.3945 256.135 28.7749 256.551 29.1902V29.6224L256.255 30.0547H255.117H254.661H253.546C252.567 30.0547 251.975 30.0547 251.542 29.3267C248.058 28.9627 247.694 29.3267 247.671 30.2822L248.332 30.9874C247.466 31.9429 245.759 31.6017 245.144 33.0122L245.394 33.399C247.421 33.6037 247.421 33.6037 248.195 34.7867H248.696C249.351 34.3224 250.124 34.0525 250.925 34.0082C251.727 33.9639 252.525 34.147 253.227 34.5365C253.409 34.0132 253.591 33.4672 253.728 32.9667C253.09 32.9667 252.43 32.9667 251.793 32.8302V32.3979C251.497 32.4215 251.2 32.4215 250.905 32.3979L251.337 31.9429H252.658C253.318 32.4662 253.318 32.4662 254.73 32.671H256.164C256.458 32.7152 256.738 32.8239 256.984 32.9895V33.4672L256.847 33.763C256.255 34.0132 255.914 34.6047 255.436 34.9687C255.387 35.1242 255.387 35.291 255.436 35.4465C256.028 36.1517 256.028 36.1517 256.119 36.6067C255.943 37.0689 255.791 37.5397 255.663 38.0173C255.046 38.0276 254.428 37.9819 253.819 37.8807C253.113 38.1082 252.589 38.768 251.77 38.7225C251.5 38.7294 251.23 38.691 250.973 38.6088C250.665 38.5401 250.347 38.5401 250.039 38.6088C249.787 39.4468 249.36 40.2221 248.787 40.8838C248.493 40.7941 248.204 40.6877 247.922 40.5653C244.984 42.0668 244.984 42.0668 244.893 42.3625C244.868 42.5969 244.868 42.8334 244.893 43.0678C244.943 43.3848 245.043 43.6919 245.189 43.9778C247.079 44.4101 247.216 44.9333 247.193 45.0698C247.193 46.4803 244.916 46.0026 245.053 47.3448L245.28 47.8226C245.28 47.8226 245.554 48.6871 245.781 49.7336C246.92 50.1204 247.785 49.1421 248.878 49.1876C249.178 49.1864 249.476 49.2247 249.766 49.3013L249.971 49.6881C249.971 49.9611 249.675 50.3024 249.561 50.5526C249.289 50.5263 249.014 50.5263 248.741 50.5526L248.309 50.7119C246.806 54.4884 246.806 54.4884 247.17 55.0799C248.924 55.0799 250.039 53.1916 251.884 53.5101C251.697 54.3673 251.43 55.2052 251.087 56.0127C250.404 56.6497 249.379 56.6269 248.673 57.1729C247.967 57.7189 251.815 66.0682 251.861 66.1365C254.593 70.2088 256.893 72.2108 258.692 72.0515C259.025 72.0767 259.36 72.0767 259.694 72.0515C260.167 71.7887 260.701 71.6553 261.242 71.6648H261.697C262.175 71.7785 262.631 71.824 263.086 71.9378C263.086 74.6223 266.069 74.2128 267.299 75.6916C267.959 76.4423 273.082 76.4878 272.968 74.1446C272.968 73.9171 272.968 73.7123 272.968 73.1208C273.219 70.186 278.137 67.2968 275.017 64.5895C275.017 64.5895 273.036 62.724 276.133 62.5192C276.467 62.5444 276.802 62.5444 277.135 62.5192C277.618 62.4411 278.11 62.4411 278.592 62.5192C279.15 61.287 280.071 60.2549 281.234 59.5617C281.195 58.4938 281.326 57.4266 281.621 56.3994L281.917 56.0809C281.955 55.5936 281.866 55.1046 281.659 54.6619C281.451 54.2192 281.132 53.838 280.733 53.5556V53.1006C281.712 52.5091 283.01 52.9641 283.898 52.2361C284.786 51.5081 284.034 51.0076 284.216 50.4389H287.928C287.792 49.7861 287.792 49.1124 287.928 48.4596C288.626 48.4249 289.326 48.5017 290 48.6871C290 50.1659 290 50.2114 290.273 50.7119C292.186 50.5071 293.529 49.1193 295.237 48.4368H295.943C296.728 48.5227 297.521 48.3722 298.22 48.0046V47.5268C298.766 46.4576 299.905 45.9116 300.497 44.9561C301.18 44.7058 301.18 44.7058 301.794 43.318C302.141 43.223 302.476 43.0935 302.796 42.9313C302.724 42.6863 302.724 42.4255 302.796 42.1805C303.98 41.1795 303.98 41.1795 303.661 39.9055H303.844H304.322H304.481H304.618H304.754L305.073 40.1103H305.233L305.551 40.406C306.007 40.6133 306.513 40.6844 307.009 40.6108C308.352 40.6108 309.468 41.4753 310.811 41.4525C312.542 41.4525 312.633 38.9955 314.409 39.0638C315.616 39.0638 316.686 38.1082 317.892 38.313C319.691 38.586 318.985 35.856 320.443 35.4237H323.107C323.63 35.1507 323.63 35.1507 324.336 34.036L324.131 33.6265L323.562 33.399L322.947 34.0815L322.788 34.6502H321.832C320.853 34.4455 320.329 33.3535 319.236 33.3535H318.484C315.365 33.217 314.819 32.2387 314.545 31.7609L314.158 30.8737C317.688 30.3049 317.688 30.3049 318.325 29.7134C319.851 30.2822 320.078 32.4662 321.945 32.6482L322.264 32.3297L322.401 31.5334C323.243 31.1467 324.222 31.6699 325.088 31.1922C323.949 29.5997 322.082 28.9172 320.534 27.7569C318.985 26.5966 317.414 26.4146 316.686 24.6629L317.141 24.5036C319.077 25.6184 319.076 25.6184 319.213 25.6184C319.478 25.6459 319.745 25.6459 320.01 25.6184H320.465C320.215 25.0899 319.925 24.5805 319.6 24.0941C319.44 23.853 319.31 23.5933 319.213 23.3206C319.088 23.0471 318.899 22.8071 318.663 22.6201C318.427 22.4331 318.15 22.3044 317.855 22.2446C317.56 22.1847 317.255 22.1953 316.965 22.2756C316.674 22.3558 316.407 22.5034 316.185 22.7064C315.691 22.7304 315.201 22.612 314.773 22.3651L315.456 21.7509C315.297 21.5916 315.297 21.5916 313.817 21.0001V20.7498H315.479L316.139 21.7281C316.775 21.7911 317.416 21.7911 318.052 21.7281L318.302 21.3186H318.758C319.015 21.2906 319.275 21.2906 319.532 21.3186C320.443 21.6826 320.443 21.6826 320.989 21.4551C321.353 19.1801 317.801 20.0901 316.435 19.1801V18.7706C318.302 19.1573 318.849 18.9298 319.099 18.7706L319.35 18.2928L319.782 18.4521H320.374C320.663 18.4589 320.95 18.4047 321.217 18.2928C319.873 17.0188 317.756 16.8368 316.663 15.2443C316.8 15.1078 316.8 15.1078 317.779 15.085C317.483 14.7893 317.187 14.4935 316.549 13.9248C316.062 13.7413 315.609 13.4801 315.206 13.1513L314.887 12.8783C313.635 12.2413 312.063 12.4915 310.971 11.4905L310.788 11.3085C311.062 11.0128 311.062 11.0128 311.972 10.8535H312.655C313.265 10.8465 313.86 11.0471 314.34 11.4223C314.34 11.4223 314.34 11.4223 314.636 11.809C314.932 12.1958 315.001 12.4005 316.458 13.3105L316.686 13.174L314.09 10.899L313.976 10.4895L313.748 10.3075C312.997 9.92075 312.997 9.92075 311.471 9.87525H310.879H310.424C310.128 9.65473 309.88 9.37602 309.695 9.05625L310.105 9.19275H310.424L310.879 9.03349C309.951 8.56664 308.909 8.36958 307.874 8.46474L308.056 8.89699C307.47 8.68908 306.967 8.29819 306.622 7.78223V7.41823C306.133 7.07823 305.662 6.71376 305.21 6.32622H305.893L305.46 6.05322V5.64372C305.46 5.64372 305.597 5.64372 305.46 5.39346C304.345 4.84746 304.322 4.73371 304.162 4.21045H304.595L304.185 4.0057V3.57345L303.684 3.4142H302.159L301.772 3.07294L302.66 3.23219H303.024L302.273 2.77719L302.569 2.57244L301.385 2.00368ZM271.784 0.957175L272.649 0.797923H271.875H271.693H272.513H273.105H272.353H271.944H270.782L271.807 0.684172H271.169H271.898H271.443H270.122H270.919H270.236H269.029H269.462H267.822H267.003H266.889H267.435L264.065 0.866174L262.312 1.02543H262.79C261.801 1.23991 260.796 1.37683 259.785 1.43493L260.855 1.25293H260.536L262.335 1.07093H261.674H262.221H261.31L258.35 1.36668H258.054H258.578H258.396L255.823 1.61693H255.504L253.933 1.82168H253.682L251.952 2.04918H251.747L249.47 2.39044C248.855 2.61554 248.211 2.75338 247.557 2.79994H247.853L247.626 3.00469L249.903 2.59519L251.292 2.39044H252.202L250.29 2.66344L248.013 3.07294L246.032 3.48245C247.459 3.47442 248.881 3.2988 250.267 2.95919H250.586H251.428L253.477 2.61794L255.162 2.36769C256.187 2.20844 257.234 2.09468 258.259 1.95818H258.51L257.781 2.00368L254.047 2.68619H254.935H255.071L253.728 2.93644H252.977H252.18L251.178 3.07294L248.901 3.3687H248.445H247.74L246.123 3.7327H246.282L245.668 3.93745L244.301 4.34695L244.802 4.48346H244.028H243.55C244.295 4.24942 245.007 3.92063 245.668 3.5052H245.372H244.802L242.867 3.9147L241.728 4.2787L240.317 4.75646L238.723 5.43896L238.359 5.73472L239.064 5.87122C238.336 6.07597 237.516 6.12147 236.787 6.37172L234.92 6.98598L236.446 6.14422H236.173L234.898 6.28072L233.736 6.43997L231.892 6.82673L230.002 7.39548L228.704 7.85048L228.909 7.98699H229.979L231.232 7.85048L228.955 8.39649L227.429 9.01075C228.112 9.14725 228.112 9.14725 232.233 8.07799L229.957 8.85149L227.293 9.51125L226.154 9.625V9.10175L226.541 8.57849H225.448C223.632 9.46568 221.701 10.0937 219.71 10.444L217.433 11.172L215.634 12.173V12.6053C216.403 12.4549 217.163 12.2651 217.911 12.0365C217.911 12.0365 217.911 12.0365 221.145 11.9V12.173C221.699 12.1564 222.25 12.0724 222.784 11.9228C223.103 11.9228 223.422 11.9228 223.513 11.9228C222.238 12.4915 222.238 12.4915 222.101 12.6735C222.604 12.7839 223.124 12.7839 223.627 12.6735H224.401C226.254 12.2954 228.073 11.7705 229.843 11.1038L231.118 10.3985L229.137 10.8763L230.981 9.92075L232.37 9.716L234.647 8.85149L236.104 8.12349H236.81C238.563 8.12349 239.975 7.09973 241.615 6.69023H242.662C243.327 6.65926 243.955 6.3742 244.415 5.89397V5.64372H244.119L242.503 5.98497L241.136 6.28072L242.411 5.80297C243.664 5.55271 244.916 5.25696 246.168 4.98396H246.874L246.1 5.32521C246.76 5.46171 246.76 5.46171 249.698 4.84746L250.563 4.30145H251.588L250.768 4.66546H251.633L253.273 4.39245L254.616 3.84645V3.66445H256.187L257.576 3.34595L258.874 3.16394C260.741 2.82269 262.585 2.54969 264.43 2.18569H265.181L266.16 2.02643L266.752 1.79893C265.803 1.93984 264.843 2.00073 263.883 1.98093L265.044 1.77618L266.069 1.66243H267.617L269.894 1.43493C270.612 1.38595 271.327 1.29479 272.035 1.16193M237.288 5.64372L239.793 4.96121C239.998 4.68821 239.998 4.68821 240.248 4.57446L241.774 4.1877L243.14 3.8692L243.891 3.6417L242.389 3.89195C242.389 3.89195 244.916 3.16394 247.079 2.75444C248.161 2.6255 249.233 2.42793 250.29 2.16294L248.013 2.43594H248.309C247.678 2.5634 247.039 2.64701 246.396 2.68619H245.895C244.62 2.84544 243.391 3.11844 242.161 3.34595H241.842H241.182L238.7 3.8237L237.22 4.07395L234.829 4.57446H235.011L232.507 5.16596L231.482 5.48446H232.347L233.645 5.30246H234.488C233.484 5.65359 232.446 5.89762 231.391 6.03047H230.753L229.182 6.34897L228.112 6.75848L225.835 7.46373V7.75948L227.338 7.55473V7.78223L229.046 7.32723H229.433C230.044 7.19657 230.645 7.02169 231.232 6.80398L233.258 6.23522L232.871 6.50822L235.148 6.03047C235.84 5.92133 236.524 5.76937 237.197 5.57547M218.526 10.4213C219.941 10.1702 221.308 9.70207 222.579 9.03349L220.78 9.32925L217.798 10.2165L218.526 10.4213ZM218.094 15.8813L220.143 14.63L219.437 14.0613L218.503 13.6745L216.044 14.2433L212.948 14.8348L211.354 15.0168L210.42 14.6983L208.826 14.8348L210.284 13.7655L212.743 12.6735L214.769 11.7863H213.471C210.841 12.3628 208.34 13.4194 206.094 14.903L202.747 16.1771L201.358 17.1098L200.47 18.0653L202.542 17.8151L204.819 17.1553C204.5 17.4738 204.204 17.8378 203.908 18.1563C204.503 18.2668 205.112 18.2668 205.707 18.1563H207.984L209.669 17.7696L211.217 17.1781L210.762 17.8151C214.838 17.4738 214.838 17.4738 215.976 16.7686C216.663 16.3223 217.441 16.0348 218.253 15.9268M191.362 18.7933H192.159L193.503 18.0653L191.362 18.8388M198.398 17.6558L201.29 16.3363L201.904 15.7221L203.498 14.903L202.405 15.085L199.832 15.7676L197.76 16.5638L196.167 17.5876H197.055L196.781 18.0653L198.398 17.6103M208.325 13.1968L210.853 12.4005L212.47 11.7863L213.79 11.0583H212.857L213.289 10.7625L211.9 10.99L209.327 11.8545L208.325 12.5143L207.506 13.1058H208.325M219.073 9.51125L220.917 8.91974H219.938H219.073L216.796 9.51125L215.27 10.0345L216.523 9.898L217.684 9.6705L219.073 9.51125ZM221.35 8.32824L223.035 7.87324L224.697 7.23623H224.173L225.904 6.59922L224.173 6.98598L222.306 7.55473L219.073 8.55574L219.209 8.69224L220.302 8.53299L221.35 8.32824ZM231.482 5.09771L232.848 4.87021L235.535 4.30145L236.036 4.1422H235.672L233.19 4.61996H233.622L231.482 5.07496M215.225 9.32925L217.206 8.80599L219.483 8.10074L220.667 7.69123L222.944 7.05423L223.627 6.78123L224.651 6.46272H223.854L225.175 6.07597L226.427 5.71197L225.653 5.84847L223.627 6.32622L221.668 6.78123H222.238L221.509 7.00873L219.073 7.57748H218.526L216.409 8.19174H217.001L215.794 8.60124L217.228 8.25999H217.365H217.775L215.498 9.10175V9.28375M212.287 9.78425L213.312 9.51125L214.655 9.01075H213.767L211.627 9.6705L212.287 9.78425ZM204.159 13.6518C205.058 13.34 205.909 12.9035 206.686 12.355C206.055 12.4962 205.432 12.6709 204.819 12.8783L206.299 12.082H205.593C203.996 13.0079 202.29 13.7338 200.516 14.2433L203.362 12.9238H202.679L200.402 13.7655L198.125 14.721L199.468 13.9475L203.134 12.537L203.931 11.991L200.402 13.1968C198.922 13.7655 197.487 14.5163 196.03 15.176L195.666 15.6538L197.032 15.3126L197.897 15.1305L196.531 15.8131L193.411 17.2463L194.914 16.7913L195.962 16.6776L196.963 16.4728L199.24 15.6083C200.265 15.176 201.244 14.7665 202.292 14.3798C203.339 13.993 203.749 13.9248 204.568 13.6745M191.749 16.5183C192.66 16.1543 192.637 15.9951 192.637 15.9723C192.091 15.9723 191.658 16.3818 191.112 16.4501L189.085 17.3146C190.01 17.1925 190.909 16.9237 191.749 16.5183ZM205.411 11.3085L206.868 10.9673L209.965 9.92075L211.354 9.51125C209.341 9.99798 207.356 10.598 205.411 11.3085ZM191.089 44.1598L193.73 42.3625L194.504 40.5198C193.278 40.526 192.053 40.6173 190.838 40.7928C189.616 41.4229 188.43 42.1217 187.286 42.8858L186.763 44.5011L188.539 44.7058L191.089 44.1598ZM192.774 21.7509C196.303 20.2721 196.303 20.2721 196.303 19.8398H195.119V19.3621C193.184 19.5441 193.184 19.5441 192.842 19.7488C191.466 20.5452 189.998 21.1716 188.47 21.6144C186.945 22.3879 185.465 23.1614 183.917 23.8894L179.772 26.4374L181.617 26.0734L184.076 25.1406L186.626 23.7756L187.332 24.0941L189.609 23.2069L192.956 21.6599M174.74 28.0754L178.156 26.3919L179.932 25.1406L181.275 24.0259L181.845 23.2979C183.95 22.8593 185.914 21.9056 187.56 20.5223L188.63 19.8398L187.514 19.9763L185.237 20.9773H184.918L185.101 20.5678L183.484 20.9773L181.571 21.9556L180.046 23.0476C176.152 24.8449 176.152 24.8449 175.765 24.8221C176.168 24.4609 176.594 24.1265 177.04 23.8211L176.175 23.9349L173.898 25.0269L173.055 25.8686L172.418 26.5056L172.623 26.9151C169.64 28.9854 169.64 28.9854 169.845 29.5542C170.893 29.1789 171.919 28.746 172.919 28.2574L174.695 28.0527M174.854 23.6164L178.088 22.2969L179.021 21.6826L178.497 21.3414C177.72 21.5706 176.96 21.8518 176.22 22.1831L174.854 23.1614C174.854 23.1614 174.399 23.4571 172.577 24.5264L174.718 23.7301M174.558 22.6154L176.835 21.6826L176.061 21.8191L174.285 22.4789L174.581 22.6154H174.558ZM213.858 8.28274C214.9 8.05782 215.926 7.7691 216.932 7.41823H216.204L214.883 7.66848L211.832 8.37374H212.287H212.925H213.745H213.858M208.826 9.51125L211.103 8.94249H210.739H210.01L208.667 9.51125L206.39 10.0345L202.633 11.172H202.496L203.726 10.8763H204.614L206.527 10.353L208.212 9.82975H208.713M205.411 10.08H205.593L208.462 9.3065L209.464 8.988H208.963L206.686 9.60225L205.411 10.08ZM189.928 16.6093L194.482 14.9258L195.802 14.357H195.347L193.366 15.0395L194.026 14.7438L196.121 13.811L198.261 13.083L200.538 12.264H200.015L198.261 12.7645L197.259 13.0148L195.552 13.5835C194.277 14.1295 194.277 14.1295 190.998 15.2898V15.4263C190.284 15.7866 189.514 16.025 188.721 16.1316H187.947L189.199 15.5401L192.205 14.357L193.024 14.0613H192.569L193.662 13.5835L193.821 13.4698L191.931 14.0613L188.47 15.1533L185.966 15.9496L183.165 16.8823L180.524 17.8606H181.025L180.774 18.1108L181.776 17.8833L183.37 17.4511L183.484 17.6558H184.099C183.438 17.8946 182.761 18.0847 182.072 18.2246H181.344L179.59 18.7933L177.746 19.5441L177.063 19.9536H178.042L180.956 19.0663L184.144 17.9971L185.305 17.7696H186.307H187.355L189.996 16.8596M196.508 12.9693H196.736L199.013 12.264C198.704 12.3638 198.381 12.4175 198.056 12.4233H198.33L196.576 12.9693M183.188 16.7458L187.97 15.1305L186.307 15.5856L183.325 16.5638L183.188 16.7458ZM199.127 11.7635L202.269 10.8763L202.838 10.626L200.265 11.3085H199.696C199.4 11.3085 190.588 13.8793 190.588 13.902L190.155 14.0613L188.174 14.6528L185.533 15.5401L184.395 16.0178L186.922 15.1988L185.397 15.7903L187.013 15.2898L188.88 14.6528H189.45L192.296 13.7655L194.413 13.1513L191.749 13.902L192.911 13.5835L194.732 13.1058L199.127 11.7863M156.616 35.9697L158.506 34.9232L159.234 33.854L159.098 32.7392L161.375 30.9647L164.79 29.1219L166.02 28.0299L170.346 25.7549L172.623 24.3216L173.283 23.5481C172.964 23.5481 172.646 23.5481 172.35 23.5481L168.934 25.1861L166.657 26.3691L163.948 27.9617L162.263 28.7124H162.035L162.991 28.0072L165.268 26.8014L167.022 25.8231L169.572 24.2989H169.094L167.022 25.3681L165.473 26.2326H164.654L162.969 27.0289L161.898 27.3019L163.902 26.3691L166.338 25.2544H166.02L166.407 24.8221L165.564 24.9814L163.287 26.0734V25.9141L164.927 25.2089L167.727 23.8894L168.069 23.6164H167.363L164.79 24.6174L163.265 25.1634L161.807 25.6184L159.348 26.5966L156.502 28.0072L153.77 29.1219L152.062 29.9637H152.495L151.128 30.7599L152.745 30.1684L153.724 29.9864L152.358 30.8737L150.536 31.5107L149.011 32.0339L147.007 32.9667L146.028 33.854L146.984 33.7402L148.487 33.4217C148.78 33.3635 149.082 33.3635 149.375 33.4217C148.624 34.2407 148.624 34.2407 146.779 35.1735H145.254L143.774 35.31L140.745 36.584L137.285 38.859H138.264H139.288L136.123 41.134L135.281 42.044L136.761 41.9303L138.4 41.6573L141.11 40.4743L143.159 39.769L146.21 38.3585L147.963 37.6077L147.167 38.3813L148.237 38.1082L147.485 39.678H148.487L150.058 39.3595L152.882 37.767L153.906 36.5385L154.817 36.3792L156.548 35.947M142.886 41.2705L145.368 39.678L142.339 40.6563L138.286 42.3853L138.765 42.7948L141.292 41.7255L142.886 41.2705ZM165.655 24.0259L167.932 23.2751L170.619 22.0694L173.147 20.7271V20.5906L170.87 21.4096L171.689 20.8863L172.873 20.2493H172.646L171.12 20.6588L168.843 21.5461L164.858 23.1614L158.711 25.8004L150.263 29.5314L148.943 30.4187L143.933 33.1487L147.463 31.5107H148.146L150.696 30.3732C154.885 28.3712 161.397 25.6639 161.466 25.6639L165.746 24.1396M217.775 114.845L219.733 113.298L218.185 111.887L219.756 110.363L220.644 107.155L216.545 106.609L216.204 104.744H211.65L207.688 106.586L204.956 108.088L203.134 107.337L204.546 105.062L209.1 103.72L214.246 102.605L216.796 100.808L213.699 100.626L211.012 99.1925L207.255 98.237L205.411 95.962L203.316 93.8462L202.861 91.9125L204.614 91.5485L205.639 90.138L204.273 86.8619L202.61 83.3129L200.971 77.1931L200.857 74.5086L196.303 78.1031C195.848 79.1496 195.415 80.1961 194.937 81.2426L191.248 82.4711L188.266 84.7462H185.328L185.601 82.7214L184.349 81.2426L181.116 81.9479L183.643 78.4444C184.417 76.9201 185.214 75.4186 185.92 73.8943L187.036 71.6193L183.803 71.5055L182.209 69.7993L181.366 67.3878L179.089 64.8625L176.812 66.091H173.579L172.828 65.2037H169.162L166.475 66.91L166.111 69.3443L163.31 72.6658L162.285 74.9408L161.693 77.7618H159.667L157.937 80.7649L155.66 82.4484L156.639 83.7679L158.05 85.8837L156.616 89.8422C155.796 91.3437 154.976 92.8907 154.18 94.3923L150.445 97.6683L146.21 100.307L142.021 100.944L142.18 104.926C141.292 106.677 140.449 108.429 139.607 110.204L139.379 113.229L137.603 115.709L134.393 118.894L130.272 119.554L130.089 115.163L129.27 111.409C129.793 110.34 130.363 109.271 130.886 108.202L132.503 103.652L134.825 100.057L130.613 99.4883H127.403L126.469 98.237L123.213 97.0995L123.054 95.0293L121.255 92.7542L119.593 90.4792L114.333 92.049L114.993 89.7739L117.156 84.7007L116.268 83.4267L116.61 81.4929L122.143 75.4868L127.995 70.9368L133.391 66.9782L137.011 65.4995L140.723 63.452L141.93 61.4044L139.903 60.6309L138.241 59.3114L141.133 59.9029L143.227 60.7902L145.049 60.2897L147.485 58.0147L148.988 59.0612L150.946 58.5607L152.7 56.8544L154.384 56.0809L157.14 53.8059L155.546 53.5784L153.519 53.3964L153.952 52.1906L152.882 50.8939H154.476L156.229 51.7584L157.299 52.5319L160.031 51.6219L163.424 49.5516L163.697 47.9818H165.61L165.246 49.3923L162.673 51.0531L158.802 54.1244C157.595 55.3757 156.388 56.6497 155.204 57.9464L152.358 58.9019L151.311 60.6309H153.383C152.904 61.1769 152.426 61.723 153.519 62.4055L155.204 61.8595L157.823 59.7892H160.578L161.898 60.0394L162.786 60.8584C163.583 60.8584 164.358 60.8584 165.063 60.8584L167.09 58.5834L165.2 58.0602L166.475 55.3756L163.993 55.1709L163.857 53.1461L162.49 52.7366C162.991 52.2361 163.469 51.7356 163.993 51.2351L165.359 51.5991L167.181 50.4616L168.137 49.2558C168.866 49.2558 169.526 49.2558 170.255 49.2558L172.759 47.5041L176.403 45.7523L178.452 44.319L178.93 42.8175L180.638 40.3605L182.801 39.951L185.305 38.1082L185.989 36.3792L185.26 35.492L184.736 34.1952C185.556 34.1952 186.376 34.1952 187.218 34.1952L188.584 33.2852L190.155 33.4445L190.429 34.4227L192.706 34.2635L195.119 33.763L195.483 32.1249L196.941 31.7609L196.463 33.6265L198.17 33.7857L197.077 35.6057L198.193 35.9242L197.669 37.312L198.626 37.9945L197.852 39.769L199.172 40.4743V42.2943L197.647 44.5693L193.093 47.0946L188.971 49.6653L188.197 52.0996L183.985 52.7366L182.437 52.2361H180.296L175.97 54.3746L174.126 56.6497L176.881 57.1729L179.59 56.9454L181.23 55.6714L182.915 54.9206L184.281 55.3301L186.74 56.2402L187.696 59.3569L187.241 61.1087L187.81 63.3837H190.702L192.068 66.364H196.622L198.899 67.7063L200.128 65.8635L197.214 62.178L196.303 60.4717V58.7427L198.58 60.2897L202.519 63.0652L204.614 64.6577C205.069 63.7477 205.502 62.8605 205.98 61.9732L208.804 59.6982L206.914 58.2649L208.303 54.7159L205.411 53.3964L204.113 49.0738L206.253 47.8681L208.28 46.7988L211.149 50.7346L211.65 53.3281L213.927 53.7149L216.34 50.6891L219.892 49.5743L220.985 48.3686H222.966L224.492 47.0263L225.38 45.0698H221.555C221.759 44.7286 221.942 44.3873 222.169 44.0233L220.894 42.408L219.483 42.1578L217.707 41.3615H215.908L216.363 39.9965L216.614 38.7908H213.654L212.583 38.677C213.084 37.9945 213.585 37.312 214.154 36.6522H216.181L217.98 35.6967L215.839 35.0597L216.819 34.2407L218.299 33.9905L217.934 32.671L216.386 32.1477L218.276 30.9192L217.001 29.9864L214.724 30.1229L215.361 29.1674H213.676L213.198 28.9627L215.634 27.9844L214.359 27.4157L211.263 28.0754L211.582 26.4601L212.447 25.5729H211.172L212.401 24.5036L211.217 23.7756C210.306 23.7756 209.373 23.7756 208.485 23.7756L206.937 24.6401L205.252 24.8676L204.341 24.6174L202.428 25.7094L200.971 25.8459L202.815 24.4581L205.411 23.1614L206.663 21.5234L208.439 20.0901H206.162L203.407 21.1821L201.791 21.3186L199.514 22.0921L196.85 23.5936L195.21 25.2316L192.933 26.3464L191.157 28.4622L189.723 28.7124L190.907 26.9151L194.095 24.6401L196.371 23.0931L200.015 21.5006L203.567 20.2038H201.654L199.149 20.5451L194.14 22.4334L188.47 25.1634L182.778 28.7124L184.008 29.0764H185.169L183.757 30.4414L182.687 30.1684L180.41 30.7599L179.272 32.4662H181.184L182.733 31.9884L182.573 33.0577L183.871 33.9677L181.594 34.6047L179.476 36.22L179.203 37.3575L173.534 40.7245L169.891 43.136L166.361 45.0926L165.951 44.3418L168.228 41.498L171.257 39.7463L172.259 37.1755L167.841 39.2913L170.118 35.7195L169.913 35.2872L172.668 33.4672L175.264 31.4879L174.581 31.3059L176.858 29.6907L178.156 27.9844H176.539L174.535 29.0309L173.556 29.1674L169.959 30.9192L168.16 32.3069L166.202 33.4445L164.881 35.31L164.54 36.5157L161.557 38.313L160.555 37.9035L158.278 39.951L159.963 39.7463L163.583 38.222C162.581 38.9273 161.625 39.678 160.692 40.497L154.749 42.772L150.832 46.0936L151.174 44.3646L154.658 42.0895H153.496L156.229 39.9965C156.57 39.9965 156.957 39.9965 157.299 39.9965L161.17 37.0162L161.306 35.401L157.686 37.5167L154.999 38.5405L153.952 40.8155L150.992 42.226L148.487 43.9323L143.933 44.4328V43.1588L143.022 42.863L143.956 41.134L140.768 42.59L136.693 44.2508L134.028 46.3893L128.905 49.8474L133.459 45.8433L134.006 44.4556L131.137 45.3656L128.655 44.9788L130.363 43.7958L133.118 42.681L134.848 40.7473L133.619 40.9748L134.598 39.223L136.693 37.7215L136.374 37.5167L135.6 37.7215L133.072 39.0865L131.956 39.5188L136.784 36.6295L131.865 39.2913L131.979 39.041L137.74 35.6967L138.377 35.2417L134.142 37.5167L131.251 39.0865L130.226 39.5643L127.812 40.7928L124.647 42.59L129.201 39.9738L130.864 39.132L132.48 38.313L134.757 37.0845L135.008 36.9025L132.548 38.04L129.27 39.769L128.86 39.9965H128.723C120.23 44.9561 109.278 52.2134 101.081 57.6279C88.1251 66.8645 88.1251 66.8645 64.7636 88.0222L60.8244 92.049L61.5303 91.3437L60.1413 92.8225L57.8644 95.2113L57.2041 96.0758L54.9271 98.3508L53.8797 99.784L51.8077 102.059L51.3068 102.855V103.106L49.0298 105.699L46.935 108.384L44.3621 111.569L42.0851 114.572L42.3356 114.799L39.6488 118.416L37.6678 121.761L35.9829 124.286L35.3226 126.106L35.1859 127.335V128.199L33.9336 130.178L33.1822 132.635L32.5219 134.728L30.0856 139.665C29.2886 140.962 28.4462 142.304 27.6492 143.624L28.56 141.189L29.9262 138.004L31.0874 135.957L31.5884 134.091V133.363L33.6376 130.087L33.0228 130.224L33.6604 128.7L33.8198 127.972V127.471L33.1139 127.972L31.6567 130.52L31.0874 132.021L30.0856 134.182L28.9243 137.618L26.9661 141.462L24.4387 146.422L22.0479 150.562L18.8374 156.068C17.6989 158.161 16.5605 160.277 15.5131 162.393L14.2607 163.985C13.5549 165.396 12.8718 166.806 12.1432 168.217L10.6176 172.562L8.34066 176.884L7.02002 180.251L6.22309 183.118L4.33322 187.532L3.53629 191.126L3.35413 193.97L1.76026 200.226V202.706L0.849481 205.982L0.485168 209.713L1.78303 209.531L1.98796 211.988L2.92151 213.967L3.1492 217.221L2.37504 221.316L1.96519 225.411L1.12272 232.236L1.57811 235.102L2.26119 238.447V240.904L0.712864 243.179L0.872251 246.113L1.85134 248.707L3.24028 251.596L3.9006 254.804L3.30859 257.488L3.42244 259.763L4.81138 261.174L5.97263 264.109L6.79233 266.611L6.5874 269.683L7.58926 268.591L8.1585 265.201L7.90804 261.424L6.65571 259.991L6.86064 256.669L5.65385 254.03V245.772L4.83415 242.86L5.19846 238.902L4.15106 237.764L4.4243 232.895L3.94614 228.823L5.03908 223.363L6.20032 223.022L7.42988 224.546L7.70311 227.413L6.74679 232.099L7.31603 238.196L8.3862 243.042L9.59298 246.409L10.3671 249.844L10.1167 253.871L11.8472 256.146L12.8946 259.877L13.646 263.881L15.6724 269.387L16.4238 274.369L17.6534 276.644L16.1506 278.578L15.5586 281.74L18.2682 286.29L20.5451 290.067L23.619 291.727L26.8751 295.254L30.8597 298.211L35.4136 301.92L39.2389 303.58L41.7436 303.194L42.495 301.032L45.3639 300.373L48.62 302.875L52.3314 307.198L54.4262 310.815H57.5001H58.6841L60.4601 311.793L62.5094 315.661L66.4713 317.367V314.728L68.7482 316.229C75.8068 328.651 75.8068 328.651 75.3969 331.176L76.8542 333.224L78.4708 332.132L80.7478 333.588C85.6205 339.139 85.6205 339.139 87.8063 338.843L93.9996 342.506L97.324 344.235L96.7548 340.14L98.1437 337.501L103.836 337.865L104.633 340.436L106.477 340.163L107.274 336.75L104.997 333.679L99.1 333.838L95.2975 333.679L89.7417 333.315L87.0777 331.04L83.3207 326.217V322.281C83.3207 320.529 83.1614 318.8 83.1158 317.048L84.0494 310.428V305.878L82.4555 302.375L79.0401 300.1L73.9852 300.805L70.4787 299.849L66.6762 302.124L64.1716 299.849L66.4485 297.096V294.822C66.4485 293.957 66.4485 293.092 66.4485 292.205L67.3821 289.225L68.771 284.447C68.771 282.696 68.9304 280.921 68.9987 279.169L71.2757 277.008L71.8449 273.072L70.2966 271.594L64.8774 272.299L61.5075 273.186L59.8909 276.917L58.297 282.468L56.5665 287.541L53.8342 288.178L49.9861 289.93L46.047 290.908L44.3621 287.268L41.3109 284.811L40.3774 280.648L38.5331 275.256L38.0321 265.997L38.2143 259.308L40.2863 254.099L41.7891 248.206L41.1516 242.246L44.7491 236.353L47.0261 235.989L49.8495 232.895L52.8551 229.415L56.0884 230.006L58.3653 231.121L60.6423 229.801L61.8035 232.941H64.8319L67.2454 232.577L67.1316 230.143L68.6572 226.161L72.3914 225.638L75.1237 225.047L80.0191 225.57L81.4309 228.982H83.093L84.5048 226.98L86.0531 226.434L88.0113 229.324L89.7645 232.964C89.5596 234.397 89.3774 235.807 89.1953 237.241L90.1971 239.698L90.4476 242.451L91.9504 244.43L92.5879 247.41L94.5917 248.866L94.455 252.165L96.3677 252.87L97.8022 250.595L99.1 247.001L98.3942 242.701L97.9615 236.217L96.1172 230.552C96.4588 228.072 96.8458 225.593 97.62 221.93C98.1437 220.747 98.8496 219.154 99.396 217.994L102.447 212.557L106.045 210.805L110.735 206.619L115.061 203.434L118.978 201.682L120.185 198.611L123.441 196.632L122.052 191.513L120.799 189.238L122.188 186.44L121.164 183.96L124.306 182.276L125.831 185.916L128.108 182.208L130.385 178.977L132.662 176.884L136.101 170.059H141.497L145.459 167.784L149.626 167.261L149.239 164.599L150.377 159.117L154.18 154.885H157.39L159.029 152.61L163.265 152.747L167.818 150.471L171.052 147.241C178.361 146.968 178.361 146.968 180.752 148.401C180.296 148.72 179.704 149.129 179.272 149.493C177.316 149.462 175.36 149.568 173.42 149.812C169.686 152.292 169.686 152.292 169.549 155.363L171.644 156.432L174.672 154.157L176.949 152.86L180.774 151.723L184.918 149.584L188.949 148.697L192.706 145.057L196.212 142.509L197.214 139.62L192.956 140.643L189.267 145.193L184.554 145.444L181.184 143.601L178.019 140.484L177.336 135.138L181.344 132.362L182.277 128.131L177.427 127.812L171.644 129.473L164.813 133.022L157.458 138.869L152.039 142.281L154.703 139.119L158.369 135.752L160.646 134.114L156.639 132.954H162.194L164.471 130.065L168.342 127.403L172.099 127.175L174.604 123.945L178.065 122.716H182.937L192.045 122.443L196.485 123.194L200.197 122.966L204.455 120.373L208.553 116.847L214.519 116.028L217.843 114.845" fill="white"/>
</mask>
<g mask="url(#mask0_15_1091)">
<path d="M51.6483 84.5869C-103.276 230.188 -103.276 375.789 51.6483 521.391" stroke="#4D4D4D" stroke-width="0.4" stroke-miterlimit="10"/>
<path d="M56.3844 80.1958C-95.4125 228.739 -95.4125 377.275 56.3844 525.804" stroke="#4D4D4D" stroke-width="0.4" stroke-miterlimit="10"/>
<path d="M61.1205 75.896C-87.4432 227.306 -87.4432 378.709 61.1205 530.104" stroke="#4D4D4D" stroke-width="0.4" stroke-miterlimit="10"/>
<path d="M65.8565 71.6875C-79.5497 225.903 -79.5497 380.112 65.8565 534.313" stroke="#4D4D4D" stroke-width="0.4" stroke-miterlimit="10"/>
<path d="M70.6153 67.5693C-71.6487 224.531 -71.6487 381.507 70.6153 538.498" stroke="#4D4D4D" stroke-width="0.4" stroke-miterlimit="10"/>
<path d="M75.3514 63.543C-63.7401 223.189 -63.7401 382.827 75.3514 542.457" stroke="#4D4D4D" stroke-width="0.4" stroke-miterlimit="10"/>
<path d="M80.1786 59.5615C-55.7556 221.846 -55.7556 384.131 80.1786 546.416" stroke="#4D4D4D" stroke-width="0.4" stroke-miterlimit="10"/>
<path d="M84.7324 55.7852C-47.9684 220.588 -47.9684 385.405 84.7324 550.238" stroke="#4D4D4D" stroke-width="0.4" stroke-miterlimit="10"/>
<path d="M89.5823 52.0312C-40.0522 219.336 -40.0522 386.656 89.5823 553.992" stroke="#4D4D4D" stroke-width="0.4" stroke-miterlimit="10"/>
<path d="M94.3184 48.3457C-32.1436 218.108 -32.1436 387.877 94.3184 557.654" stroke="#4D4D4D" stroke-width="0.4" stroke-miterlimit="10"/>
<path d="M99.0545 44.7739C-24.2197 216.932 -24.2197 389.075 99.0545 561.203" stroke="#4D4D4D" stroke-width="0.4" stroke-miterlimit="10"/>
<path d="M103.813 41.3613C-16.3187 215.78 -16.3187 390.251 103.813 564.775" stroke="#4D4D4D" stroke-width="0.4" stroke-miterlimit="10"/>
<path d="M108.549 37.9033C-8.42531 214.627 -8.42531 391.358 108.549 568.097" stroke="#4D4D4D" stroke-width="0.4" stroke-miterlimit="10"/>
<path d="M113.285 34.5361C-0.562257 213.504 -0.562257 392.473 113.285 571.441" stroke="#4D4D4D" stroke-width="0.4" stroke-miterlimit="10"/>
<path d="M118.021 31.397C7.39192 212.473 7.39192 393.542 118.021 574.603" stroke="#4D4D4D" stroke-width="0.4" stroke-miterlimit="10"/>
<path d="M122.78 28.2798C15.293 211.419 15.293 394.566 122.78 577.72" stroke="#4D4D4D" stroke-width="0.4" stroke-miterlimit="10"/>
<path d="M127.516 25.2544C23.1864 210.411 23.1864 395.582 127.516 580.769" stroke="#4D4D4D" stroke-width="0.4" stroke-miterlimit="10"/>
<path d="M132.252 22.3193C31.095 209.432 31.095 396.56 132.252 583.703" stroke="#4D4D4D" stroke-width="0.4" stroke-miterlimit="10"/>
<path d="M137.102 19.4531C39.0264 208.477 39.0264 397.508 137.102 586.547" stroke="#4D4D4D" stroke-width="0.4" stroke-miterlimit="10"/>
<path d="M141.656 16.7002C46.8591 207.559 46.8591 398.426 141.656 589.3" stroke="#4D4D4D" stroke-width="0.4" stroke-miterlimit="10"/>
<path d="M146.483 14.061C54.8133 206.679 54.8133 399.298 146.483 591.916" stroke="#4D4D4D" stroke-width="0.4" stroke-miterlimit="10"/>
<path d="M151.219 11.4678C62.7067 205.815 62.7067 400.178 151.219 594.555" stroke="#4D4D4D" stroke-width="0.4" stroke-miterlimit="10"/>
<path d="M155.978 8.96484C70.6077 204.981 70.6077 401.004 155.978 597.035" stroke="#4D4D4D" stroke-width="0.4" stroke-miterlimit="10"/>
<path d="M160.714 6.57617C78.5164 204.184 78.5164 401.808 160.714 599.446" stroke="#4D4D4D" stroke-width="0.4" stroke-miterlimit="10"/>
<path d="M165.45 4.27832C86.425 203.418 86.425 402.574 165.45 601.744" stroke="#4D4D4D" stroke-width="0.4" stroke-miterlimit="10"/>
<path d="M170.187 2.04883C94.2881 202.69 94.2881 403.324 170.187 603.951" stroke="#4D4D4D" stroke-width="0.4" stroke-miterlimit="10"/>
<path d="M174.945 -0.0668945C102.219 201.97 102.219 404.022 174.945 606.089" stroke="#4D4D4D" stroke-width="0.4" stroke-miterlimit="10"/>
<path d="M179.681 -2.11426C110.128 201.288 110.128 404.697 179.681 608.114" stroke="#4D4D4D" stroke-width="0.4" stroke-miterlimit="10"/>
<path d="M184.417 -4.13916C117.961 200.613 117.961 405.364 184.417 610.116" stroke="#4D4D4D" stroke-width="0.4" stroke-miterlimit="10"/>
<path d="M189.153 -5.91357C125.945 200.052 125.945 405.994 189.153 611.914" stroke="#4D4D4D" stroke-width="0.4" stroke-miterlimit="10"/>
<path d="M194.026 -7.66553C133.869 199.437 133.869 406.555 194.026 613.688" stroke="#4D4D4D" stroke-width="0.4" stroke-miterlimit="10"/>
<path d="M198.58 -9.34863C141.732 198.876 141.732 407.109 198.58 615.349" stroke="#4D4D4D" stroke-width="0.4" stroke-miterlimit="10"/>
<path d="M203.384 -10.9644C149.648 198.337 149.648 407.639 203.384 616.941" stroke="#4D4D4D" stroke-width="0.4" stroke-miterlimit="10"/>
<path d="M208.143 -12.4199C157.549 197.853 157.549 408.133 208.143 618.42" stroke="#4D4D4D" stroke-width="0.4" stroke-miterlimit="10"/>
<path d="M212.879 -13.8306C165.45 194.732 165.45 411.268 212.879 619.831" stroke="#4D4D4D" stroke-width="0.4" stroke-miterlimit="10"/>
<path d="M217.615 -15.1274C173.352 194.66 173.352 411.363 217.615 621.15" stroke="#4D4D4D" stroke-width="0.4" stroke-miterlimit="10"/>
<path d="M222.351 -16.356C181.253 194.568 181.253 411.432 222.351 622.356" stroke="#4D4D4D" stroke-width="0.4" stroke-miterlimit="10"/>
<path d="M227.11 -17.4937C189.153 194.486 189.153 411.514 227.11 623.493" stroke="#4D4D4D" stroke-width="0.4" stroke-miterlimit="10"/>
<path d="M231.846 -18.5171C197.077 194.428 197.077 411.595 231.846 624.54" stroke="#4D4D4D" stroke-width="0.4" stroke-miterlimit="10"/>
<path d="M236.583 -19.4727C204.978 194.35 204.978 411.65 236.583 625.473" stroke="#4D4D4D" stroke-width="0.4" stroke-miterlimit="10"/>
<path d="M241.318 -20.3374C212.879 194.284 212.879 411.715 241.318 626.337" stroke="#4D4D4D" stroke-width="0.4" stroke-miterlimit="10"/>
<path d="M246.077 -21.1108C220.78 194.224 220.78 411.776 246.077 627.111" stroke="#4D4D4D" stroke-width="0.4" stroke-miterlimit="10"/>
<path d="M250.813 -21.7705C228.681 194.186 228.681 411.837 250.813 627.793" stroke="#4D4D4D" stroke-width="0.4" stroke-miterlimit="10"/>
<path d="M255.504 -22.3394C236.542 194.132 236.542 411.845 255.504 628.316" stroke="#4D4D4D" stroke-width="0.4" stroke-miterlimit="10"/>
<path d="M260.286 -22.8623C244.484 194.092 244.484 411.908 260.286 628.863" stroke="#4D4D4D" stroke-width="0.4" stroke-miterlimit="10"/>
<path d="M265.044 -23.272C252.385 194.059 252.385 411.941 265.044 629.272" stroke="#4D4D4D" stroke-width="0.4" stroke-miterlimit="10"/>
<path d="M269.78 -23.5903C260.263 194.129 260.263 411.856 269.78 629.591" stroke="#4D4D4D" stroke-width="0.4" stroke-miterlimit="10"/>
<path d="M274.516 -23.8179C268.187 194.068 268.187 411.947 274.516 629.818" stroke="#4D4D4D" stroke-width="0.4" stroke-miterlimit="10"/>
<path d="M279.253 -23.9546C276.11 194.023 276.11 411.992 279.253 629.954" stroke="#4D4D4D" stroke-width="0.4" stroke-miterlimit="10"/>
<path d="M284.011 -24V630" stroke="#4D4D4D" stroke-width="0.4" stroke-miterlimit="10"/>
<path d="M288.747 -23.9546C291.92 194.023 291.92 411.992 288.747 629.954" stroke="#4D4D4D" stroke-width="0.4" stroke-miterlimit="10"/>
<path d="M293.484 -23.8179C299.813 194.068 299.813 411.947 293.484 629.818" stroke="#4D4D4D" stroke-width="0.4" stroke-miterlimit="10"/>
<path d="M298.22 -23.5903C307.722 194.129 307.722 411.856 298.22 629.591" stroke="#4D4D4D" stroke-width="0.4" stroke-miterlimit="10"/>
<path d="M302.978 -23.272C315.615 194.059 315.615 411.941 302.978 629.272" stroke="#4D4D4D" stroke-width="0.4" stroke-miterlimit="10"/>
<path d="M307.714 -22.8623C323.516 194.092 323.516 411.908 307.714 628.863" stroke="#4D4D4D" stroke-width="0.4" stroke-miterlimit="10"/>
<path d="M312.428 -22.3394C331.389 194.132 331.389 411.845 312.428 628.316" stroke="#4D4D4D" stroke-width="0.4" stroke-miterlimit="10"/>
<path d="M317.209 -21.7705C339.319 194.187 339.319 411.835 317.209 627.793" stroke="#4D4D4D" stroke-width="0.4" stroke-miterlimit="10"/>
<path d="M321.945 -21.1108C347.22 194.225 347.22 411.775 321.945 627.111" stroke="#4D4D4D" stroke-width="0.4" stroke-miterlimit="10"/>
<path d="M326.681 -20.3374C355.143 194.283 355.143 411.717 326.681 626.337" stroke="#4D4D4D" stroke-width="0.4" stroke-miterlimit="10"/>
<path d="M331.417 -19.4727C363.044 194.348 363.044 411.652 331.417 625.473" stroke="#4D4D4D" stroke-width="0.4" stroke-miterlimit="10"/>
<path d="M336.176 -18.5171C370.945 194.428 370.945 411.595 336.176 624.54" stroke="#4D4D4D" stroke-width="0.4" stroke-miterlimit="10"/>
<path d="M340.912 -17.4937C378.846 194.488 378.846 411.512 340.912 623.493" stroke="#4D4D4D" stroke-width="0.4" stroke-miterlimit="10"/>
<path d="M345.648 -16.356C386.747 194.568 386.747 411.432 345.648 622.356" stroke="#4D4D4D" stroke-width="0.4" stroke-miterlimit="10"/>
<path d="M350.385 -15.1274C394.648 194.66 394.648 411.363 350.385 621.15" stroke="#4D4D4D" stroke-width="0.4" stroke-miterlimit="10"/>
<path d="M355.143 -13.8306C402.549 194.734 402.549 411.266 355.143 619.831" stroke="#4D4D4D" stroke-width="0.4" stroke-miterlimit="10"/>
<path d="M359.879 -12.4199C410.473 197.868 410.473 408.148 359.879 618.42" stroke="#4D4D4D" stroke-width="0.4" stroke-miterlimit="10"/>
<path d="M364.615 -10.9644C418.382 198.337 418.382 407.639 364.615 616.941" stroke="#4D4D4D" stroke-width="0.4" stroke-miterlimit="10"/>
<path d="M369.352 -9.34863C426.275 198.876 426.275 407.109 369.352 615.349" stroke="#4D4D4D" stroke-width="0.4" stroke-miterlimit="10"/>
<path d="M374.11 -7.66553C434.176 199.452 434.176 406.57 374.11 613.688" stroke="#4D4D4D" stroke-width="0.4" stroke-miterlimit="10"/>
<path d="M378.846 -5.91357C442.085 200.052 442.085 405.994 378.846 611.914" stroke="#4D4D4D" stroke-width="0.4" stroke-miterlimit="10"/>
<path d="M383.583 -4.13916C449.994 200.613 449.994 405.364 383.583 610.116" stroke="#4D4D4D" stroke-width="0.4" stroke-miterlimit="10"/>
<path d="M388.341 -2.11426C457.88 201.303 457.88 404.712 388.341 608.114" stroke="#4D4D4D" stroke-width="0.4" stroke-miterlimit="10"/>
<path d="M393.077 -0.0668945C465.788 201.97 465.788 404.022 393.077 606.089" stroke="#4D4D4D" stroke-width="0.4" stroke-miterlimit="10"/>
<path d="M397.814 2.04883C473.712 202.69 473.712 403.324 397.814 603.951" stroke="#4D4D4D" stroke-width="0.4" stroke-miterlimit="10"/>
<path d="M402.55 4.25586C481.575 203.426 481.575 402.589 402.55 601.744" stroke="#4D4D4D" stroke-width="0.4" stroke-miterlimit="10"/>
<path d="M407.308 6.57617C489.506 204.184 489.506 401.808 407.308 599.446" stroke="#4D4D4D" stroke-width="0.4" stroke-miterlimit="10"/>
<path d="M412.044 8.96484C497.43 204.981 497.43 401.004 412.044 597.035" stroke="#4D4D4D" stroke-width="0.4" stroke-miterlimit="10"/>
<path d="M416.781 11.4678C505.308 205.83 505.308 400.193 416.781 594.555" stroke="#4D4D4D" stroke-width="0.4" stroke-miterlimit="10"/>
<path d="M421.517 14.061C513.217 206.679 513.217 399.298 421.517 591.916" stroke="#4D4D4D" stroke-width="0.4" stroke-miterlimit="10"/>
<path d="M426.275 16.7002C521.118 207.559 521.118 398.426 426.275 589.3" stroke="#4D4D4D" stroke-width="0.4" stroke-miterlimit="10"/>
<path d="M431.011 19.4531C529.012 208.492 529.012 397.524 431.011 586.547" stroke="#4D4D4D" stroke-width="0.4" stroke-miterlimit="10"/>
<path d="M435.748 22.3193C536.92 209.447 536.92 396.575 435.748 583.703" stroke="#4D4D4D" stroke-width="0.4" stroke-miterlimit="10"/>
<path d="M440.506 25.2544C544.867 210.411 544.867 395.582 440.506 580.769" stroke="#4D4D4D" stroke-width="0.4" stroke-miterlimit="10"/>
<path d="M445.242 28.2798C552.715 211.419 552.715 394.566 445.242 577.72" stroke="#4D4D4D" stroke-width="0.4" stroke-miterlimit="10"/>
<path d="M449.979 31.397C560.623 212.473 560.623 393.542 449.979 574.603" stroke="#4D4D4D" stroke-width="0.4" stroke-miterlimit="10"/>
<path d="M454.715 34.5361C568.562 213.504 568.562 392.473 454.715 571.441" stroke="#4D4D4D" stroke-width="0.4" stroke-miterlimit="10"/>
<path d="M459.473 37.9033C576.433 214.642 576.433 391.373 459.473 568.097" stroke="#4D4D4D" stroke-width="0.4" stroke-miterlimit="10"/>
<path d="M464.209 41.3613C584.342 215.78 584.342 390.251 464.209 564.775" stroke="#4D4D4D" stroke-width="0.4" stroke-miterlimit="10"/>
<path d="M468.946 44.7739C592.235 216.932 592.235 389.075 468.946 561.203" stroke="#4D4D4D" stroke-width="0.4" stroke-miterlimit="10"/>
<path d="M473.682 48.3457C600.144 218.138 600.144 387.908 473.682 557.654" stroke="#4D4D4D" stroke-width="0.4" stroke-miterlimit="10"/>
<path d="M478.44 52.0083C608.045 219.344 608.045 386.671 478.44 553.991" stroke="#4D4D4D" stroke-width="0.4" stroke-miterlimit="10"/>
<path d="M483.199 55.7622C615.961 220.58 615.961 385.405 483.199 550.238" stroke="#4D4D4D" stroke-width="0.4" stroke-miterlimit="10"/>
<path d="M487.913 59.5615C623.877 221.846 623.877 384.131 487.913 546.416" stroke="#4D4D4D" stroke-width="0.4" stroke-miterlimit="10"/>
<path d="M492.649 63.543C631.771 223.189 631.771 382.827 492.649 542.457" stroke="#4D4D4D" stroke-width="0.4" stroke-miterlimit="10"/>
<path d="M497.407 67.5693C639.672 224.531 639.672 381.507 497.407 538.498" stroke="#4D4D4D" stroke-width="0.4" stroke-miterlimit="10"/>
<path d="M502.144 71.6875C647.58 225.888 647.58 380.097 502.144 534.313" stroke="#4D4D4D" stroke-width="0.4" stroke-miterlimit="10"/>
<path d="M506.88 75.896C655.474 227.306 655.474 378.709 506.88 530.104" stroke="#4D4D4D" stroke-width="0.4" stroke-miterlimit="10"/>
<path d="M511.616 80.1958C663.412 228.739 663.412 377.283 511.616 525.827" stroke="#4D4D4D" stroke-width="0.4" stroke-miterlimit="10"/>
<path d="M516.375 84.5869C671.207 230.188 671.207 375.789 516.375 521.391" stroke="#4D4D4D" stroke-width="0.4" stroke-miterlimit="10"/>
</g>
</svg>
