<svg width="22" height="22" viewBox="0 0 22 22" fill="none" xmlns="http://www.w3.org/2000/svg">
<circle cx="11" cy="11" r="13.5" stroke="#444444"/>
<path d="M11.1466 9.96414C11.055 9.95497 10.945 9.95497 10.8441 9.96414C9.79197 9.92841 8.79504 9.48457 8.06445 8.7266C7.33385 7.96863 6.92696 6.95605 6.92995 5.9033C6.92995 3.65747 8.74495 1.8333 11 1.8333C11.5338 1.82367 12.0644 1.91929 12.5613 2.1147C13.0582 2.31011 13.5118 2.60148 13.8961 2.97218C14.2804 3.34288 14.588 3.78565 14.8012 4.2752C15.0144 4.76475 15.1291 5.29151 15.1387 5.82539C15.1483 6.35926 15.0527 6.88981 14.8573 7.38674C14.6619 7.88366 14.3705 8.33723 13.9998 8.72155C13.6291 9.10587 13.1864 9.41341 12.6968 9.62661C12.2073 9.83982 11.6805 9.95451 11.1466 9.96414ZM6.56329 13.3466C4.34495 14.8316 4.34495 17.2516 6.56329 18.7275C9.08412 20.4141 13.2183 20.4141 15.7391 18.7275C17.9575 17.2425 17.9575 14.8225 15.7391 13.3466C13.2275 11.6691 9.09329 11.6691 6.56329 13.3466Z" stroke="#444444" stroke-linecap="round" stroke-linejoin="round"/>
</svg>
