<svg width="1300" height="920" viewBox="0 0 1300 920" fill="none" xmlns="http://www.w3.org/2000/svg">
<g clip-path="url(#clip0_107_11)">
<path d="M509.551 39.5537C509.551 39.5537 617.755 18.1494 714.924 20.7369C837.786 24.0086 892.625 79.0567 1014.09 94.0616C1078.96 102.075 1183.03 14.3241 1247.32 3.74516C1298.44 -4.66829 1343 60.9396 1343 60.9396V509H501L509.551 39.5537Z" fill="#D9D9D9"/>
<path d="M0 120.713C0 120.713 204.132 19.311 355.695 24.3699C547.336 30.7666 597.515 79.3954 786.977 108.732C888.164 124.4 967.324 23.644 1067.59 2.96055C1147.34 -13.489 1300 43.9737 1300 43.9737V920H0V120.713Z" fill="#F9F4F4"/>
</g>
<defs>
<clipPath id="clip0_107_11">
<rect width="1300" height="920" fill="white"/>
</clipPath>
</defs>
</svg>
