<svg width="28" height="28" viewBox="0 0 28 28" fill="none" xmlns="http://www.w3.org/2000/svg">
<circle cx="14" cy="14" r="13.5" stroke="#444444"/>
<path d="M14.1467 12.9641C14.055 12.955 13.945 12.955 13.8442 12.9641C12.792 12.9284 11.7951 12.4846 11.0645 11.7266C10.3339 10.9686 9.92703 9.95605 9.93001 8.9033C9.93001 6.65747 11.745 4.8333 14 4.8333C14.5339 4.82367 15.0644 4.91929 15.5614 5.1147C16.0583 5.31011 16.5119 5.60148 16.8962 5.97218C17.2805 6.34288 17.588 6.78565 17.8012 7.2752C18.0144 7.76475 18.1291 8.29151 18.1388 8.82539C18.1484 9.35926 18.0528 9.88981 17.8574 10.3867C17.662 10.8837 17.3706 11.3372 16.9999 11.7215C16.6292 12.1059 16.1864 12.4134 15.6969 12.6266C15.2073 12.8398 14.6806 12.9545 14.1467 12.9641ZM9.56335 16.3466C7.34501 17.8316 7.34501 20.2516 9.56335 21.7275C12.0842 23.4141 16.2183 23.4141 18.7392 21.7275C20.9575 20.2425 20.9575 17.8225 18.7392 16.3466C16.2275 14.6691 12.0933 14.6691 9.56335 16.3466Z" stroke="#444444" stroke-linecap="round" stroke-linejoin="round"/>
</svg>
