<svg width="1300" height="920" viewBox="0 0 1300 920" fill="none" xmlns="http://www.w3.org/2000/svg">
<path d="M509.359 39.3259C509.359 39.3259 617.177 17.9113 714 20.5C836.425 23.7733 891.069 78.8481 1012.1 93.8603C1076.74 101.878 1180.44 14.0841 1244.5 3.50004C1295.44 -4.9175 1339.84 60.7222 1339.84 60.7222V509H500.838L509.359 39.3259Z" fill="#D9D9D9"/>
<path d="M0 120.713C0 120.713 201.463 19.311 351.044 24.3699C540.179 30.7666 589.701 79.3954 776.686 108.732C876.55 124.4 954.674 23.644 1053.63 2.96056C1132.34 -13.489 1283 43.9737 1283 43.9737V920H0V120.713Z" fill="#F9F4F4"/>
</svg>
