<svg width="102" height="18" viewBox="0 0 102 18" fill="none" xmlns="http://www.w3.org/2000/svg">
<path d="M8.04894 2.92705C8.3483 2.00574 9.6517 2.00574 9.95106 2.92705L10.7961 5.52786C10.93 5.93989 11.3139 6.21885 11.7472 6.21885H14.4818C15.4505 6.21885 15.8533 7.45846 15.0696 8.02786L12.8572 9.63525C12.5067 9.8899 12.3601 10.3413 12.494 10.7533L13.339 13.3541C13.6384 14.2754 12.5839 15.0415 11.8002 14.4721L9.58779 12.8647C9.2373 12.6101 8.7627 12.6101 8.41222 12.8647L6.19983 14.4721C5.41612 15.0415 4.36164 14.2754 4.66099 13.3541L5.50604 10.7533C5.63992 10.3413 5.49326 9.8899 5.14277 9.63525L2.93039 8.02787C2.14668 7.45846 2.54945 6.21885 3.51818 6.21885H6.25283C6.68606 6.21885 7.07001 5.93989 7.20389 5.52786L8.04894 2.92705Z" fill="#E7A600"/>
<path d="M29.0489 2.92705C29.3483 2.00574 30.6517 2.00574 30.9511 2.92705L31.7961 5.52786C31.93 5.93989 32.3139 6.21885 32.7472 6.21885H35.4818C36.4505 6.21885 36.8533 7.45846 36.0696 8.02786L33.8572 9.63525C33.5067 9.8899 33.3601 10.3413 33.494 10.7533L34.339 13.3541C34.6384 14.2754 33.5839 15.0415 32.8002 14.4721L30.5878 12.8647C30.2373 12.6101 29.7627 12.6101 29.4122 12.8647L27.1998 14.4721C26.4161 15.0415 25.3616 14.2754 25.661 13.3541L26.506 10.7533C26.6399 10.3413 26.4933 9.8899 26.1428 9.63525L23.9304 8.02787C23.1467 7.45846 23.5495 6.21885 24.5182 6.21885H27.2528C27.6861 6.21885 28.07 5.93989 28.2039 5.52786L29.0489 2.92705Z" fill="#E7A600"/>
<path d="M50.0489 2.92705C50.3483 2.00574 51.6517 2.00574 51.9511 2.92705L52.7961 5.52786C52.93 5.93989 53.3139 6.21885 53.7472 6.21885H56.4818C57.4505 6.21885 57.8533 7.45846 57.0696 8.02786L54.8572 9.63525C54.5067 9.8899 54.3601 10.3413 54.494 10.7533L55.339 13.3541C55.6384 14.2754 54.5839 15.0415 53.8002 14.4721L51.5878 12.8647C51.2373 12.6101 50.7627 12.6101 50.4122 12.8647L48.1998 14.4721C47.4161 15.0415 46.3616 14.2754 46.661 13.3541L47.506 10.7533C47.6399 10.3413 47.4933 9.8899 47.1428 9.63525L44.9304 8.02787C44.1467 7.45846 44.5495 6.21885 45.5182 6.21885H48.2528C48.6861 6.21885 49.07 5.93989 49.2039 5.52786L50.0489 2.92705Z" fill="#E7A600"/>
<path d="M71.0489 2.92705C71.3483 2.00574 72.6517 2.00574 72.9511 2.92705L73.7961 5.52786C73.93 5.93989 74.3139 6.21885 74.7472 6.21885H77.4818C78.4505 6.21885 78.8533 7.45846 78.0696 8.02786L75.8572 9.63525C75.5067 9.8899 75.3601 10.3413 75.494 10.7533L76.339 13.3541C76.6384 14.2754 75.5839 15.0415 74.8002 14.4721L72.5878 12.8647C72.2373 12.6101 71.7627 12.6101 71.4122 12.8647L69.1998 14.4721C68.4161 15.0415 67.3616 14.2754 67.661 13.3541L68.506 10.7533C68.6399 10.3413 68.4933 9.8899 68.1428 9.63525L65.9304 8.02787C65.1467 7.45846 65.5495 6.21885 66.5182 6.21885H69.2528C69.6861 6.21885 70.07 5.93989 70.2039 5.52786L71.0489 2.92705Z" fill="#E7A600"/>
<path d="M92.0489 2.92705C92.3483 2.00574 93.6517 2.00574 93.9511 2.92705L94.7961 5.52786C94.93 5.93989 95.3139 6.21885 95.7472 6.21885H98.4818C99.4505 6.21885 99.8533 7.45846 99.0696 8.02786L96.8572 9.63525C96.5067 9.8899 96.3601 10.3413 96.494 10.7533L97.339 13.3541C97.6384 14.2754 96.5839 15.0415 95.8002 14.4721L93.5878 12.8647C93.2373 12.6101 92.7627 12.6101 92.4122 12.8647L90.1998 14.4721C89.4161 15.0415 88.3616 14.2754 88.661 13.3541L89.506 10.7533C89.6399 10.3413 89.4933 9.8899 89.1428 9.63525L86.9304 8.02787C86.1467 7.45846 86.5495 6.21885 87.5182 6.21885H90.2528C90.6861 6.21885 91.07 5.93989 91.2039 5.52786L92.0489 2.92705Z" fill="#E7A600"/>
</svg>
