<svg width="702" height="351" viewBox="0 0 702 351" fill="none" xmlns="http://www.w3.org/2000/svg">
<path fill-rule="evenodd" clip-rule="evenodd" d="M701.991 353.518L700.991 353.511C700.997 352.675 701 351.838 701 351C701 350.162 700.997 349.325 700.991 348.488L701.991 348.481C701.997 349.32 702 350.16 702 351C702 351.84 701.997 352.68 701.991 353.518ZM701.921 343.456L700.921 343.477C700.886 341.81 700.839 340.145 700.78 338.484L701.78 338.449C701.838 340.115 701.885 341.784 701.921 343.456ZM701.569 333.459L700.57 333.508C700.488 331.836 700.394 330.168 700.289 328.503L701.287 328.439C701.393 330.109 701.487 331.783 701.569 333.459ZM700.933 323.434L699.936 323.511C699.807 321.85 699.667 320.193 699.515 318.539L700.51 318.447C700.663 320.106 700.804 321.768 700.933 323.434ZM700.017 313.466L699.022 313.571C698.846 311.908 698.657 310.249 698.457 308.593L699.45 308.473C699.65 310.134 699.839 311.798 700.017 313.466ZM698.813 303.501L697.822 303.635C697.599 301.987 697.365 300.342 697.119 298.7L698.108 298.552C698.355 300.198 698.59 301.848 698.813 303.501ZM697.328 293.592L696.342 293.754C696.07 292.106 695.788 290.463 695.494 288.823L696.478 288.646C696.773 290.291 697.056 291.939 697.328 293.592ZM695.559 283.725L694.578 283.915C694.26 282.28 693.931 280.649 693.591 279.021L694.57 278.817C694.911 280.449 695.241 282.085 695.559 283.725ZM693.507 273.908L692.531 274.127C692.167 272.5 691.791 270.877 691.403 269.258L692.376 269.025C692.764 270.649 693.141 272.276 693.507 273.908ZM691.177 264.169L690.208 264.415C689.796 262.797 689.373 261.183 688.939 259.574L689.904 259.313C690.34 260.927 690.764 262.546 691.177 264.169ZM688.562 254.48L687.601 254.754C687.143 253.152 686.675 251.555 686.196 249.962L687.153 249.674C687.634 251.271 688.104 252.873 688.562 254.48ZM685.675 244.888L684.722 245.19C684.217 243.598 683.702 242.011 683.176 240.429L684.125 240.114C684.652 241.7 685.169 243.292 685.675 244.888ZM682.508 235.37C681.959 233.794 681.398 232.223 680.827 230.657L679.887 231C680.457 232.561 681.016 234.128 681.564 235.699L682.508 235.37ZM679.072 225.954L678.137 226.31C677.543 224.752 676.938 223.199 676.322 221.651L677.251 221.281C677.869 222.833 678.476 224.391 679.072 225.954ZM675.366 216.641L674.442 217.025C673.804 215.485 673.154 213.95 672.495 212.422L673.413 212.025C674.074 213.558 674.725 215.097 675.366 216.641ZM671.392 207.434L670.479 207.843C669.797 206.323 669.104 204.808 668.401 203.299L669.307 202.877C670.012 204.39 670.707 205.909 671.392 207.434ZM667.159 198.353L666.259 198.789C665.532 197.286 664.795 195.79 664.048 194.3L664.941 193.852C665.691 195.346 666.43 196.847 667.159 198.353ZM662.662 189.387L661.775 189.848C661.007 188.37 660.228 186.898 659.44 185.433L660.321 184.959C661.111 186.429 661.892 187.905 662.662 189.387ZM657.914 180.56L657.04 181.046C656.229 179.589 655.408 178.138 654.577 176.694L655.444 176.196C656.277 177.644 657.1 179.099 657.914 180.56ZM652.914 171.87L652.054 172.381C651.203 170.949 650.341 169.524 649.47 168.105L650.322 167.582C651.196 169.005 652.06 170.434 652.914 171.87ZM647.667 163.326L646.822 163.862C645.93 162.454 645.028 161.054 644.116 159.66L644.953 159.112C645.867 160.51 646.772 161.915 647.667 163.326ZM642.181 154.94L641.352 155.499C640.419 154.117 639.477 152.741 638.526 151.373L639.346 150.802C640.301 152.174 641.246 153.553 642.181 154.94ZM636.454 146.707L635.642 147.29C634.671 145.936 633.691 144.589 632.701 143.25L633.506 142.655C634.498 143.999 635.481 145.349 636.454 146.707ZM630.499 138.645L629.703 139.25C628.693 137.924 627.675 136.605 626.647 135.293L627.434 134.676C628.465 135.992 629.486 137.314 630.499 138.645ZM624.315 130.753L623.536 131.381C622.49 130.085 621.435 128.796 620.371 127.514L621.14 126.875C622.207 128.16 623.265 129.453 624.315 130.753ZM617.909 123.041L617.149 123.691C616.066 122.424 614.974 121.166 613.874 119.915L614.625 119.254C615.728 120.509 616.823 121.771 617.909 123.041ZM611.288 115.515L610.546 116.186C609.428 114.951 608.301 113.723 607.165 112.504L607.897 111.822C609.036 113.045 610.166 114.276 611.288 115.515ZM604.454 108.178L603.732 108.87C602.579 107.667 601.418 106.473 600.248 105.286L600.96 104.584C602.133 105.774 603.298 106.972 604.454 108.178ZM597.416 101.04L596.714 101.752C595.527 100.582 594.333 99.4206 593.13 98.2678L593.822 97.5458C595.028 98.7019 596.226 99.8665 597.416 101.04ZM590.178 94.1031L589.496 94.8349C588.277 93.6992 587.049 92.5721 585.814 91.4538L586.485 90.7124C587.724 91.834 588.955 92.9642 590.178 94.1031ZM582.746 87.3752L582.085 88.126C580.834 87.0256 579.576 85.9339 578.309 84.8511L578.959 84.091C580.229 85.1768 581.491 86.2716 582.746 87.3752ZM575.125 80.8601L574.486 81.6294C573.204 80.5651 571.915 79.5099 570.619 78.4637L571.247 77.6854C572.547 78.7346 573.84 79.7929 575.125 80.8601ZM567.324 74.5659L566.707 75.353C565.395 74.3252 564.076 73.3065 562.75 72.2972L563.355 71.5014C564.686 72.5136 566.008 73.5351 567.324 74.5659ZM559.345 68.4942L558.75 69.2985C557.411 68.3091 556.064 67.3289 554.71 66.3582L555.293 65.5455C556.651 66.519 558.001 67.5019 559.345 68.4942ZM551.198 62.6534L550.627 63.4743C549.258 62.5226 547.883 61.5804 546.501 60.6478L547.06 59.8188C548.446 60.7541 549.826 61.699 551.198 62.6534ZM542.888 57.0468L542.34 57.8837C540.946 56.9719 539.545 56.0699 538.138 55.1776L538.673 54.333C540.085 55.2278 541.49 56.1325 542.888 57.0468ZM534.418 51.6779L533.895 52.5301C532.476 51.6588 531.05 50.7973 529.618 49.9457L530.129 49.0862C531.566 49.9402 532.995 50.8041 534.418 51.6779ZM525.804 46.5561L525.305 47.4229C523.861 46.5919 522.411 45.7709 520.954 44.96L521.44 44.0862C522.901 44.8994 524.356 45.7228 525.804 46.5561ZM517.041 41.6791L516.567 42.5598C515.102 41.7715 513.63 40.9933 512.152 40.2253L512.613 39.338C514.095 40.1081 515.571 40.8885 517.041 41.6791ZM508.148 37.0584C506.654 36.3089 505.153 35.5697 503.646 34.841L503.211 35.7412C504.713 36.4678 506.209 37.2049 507.7 37.9523L508.148 37.0584ZM499.123 32.6928L498.701 33.5992C497.192 32.8959 495.677 32.203 494.157 31.5206L494.566 30.6083C496.091 31.2926 497.61 31.9875 499.123 32.6928ZM489.974 28.5872L489.578 29.5053C488.049 28.8455 486.515 28.1962 484.975 27.5576L485.358 26.6339C486.902 27.2743 488.441 27.9254 489.974 28.5872ZM480.718 24.7488L480.349 25.6779C478.801 25.062 477.248 24.4569 475.689 23.8626L476.046 22.9282C477.609 23.5243 479.166 24.1311 480.718 24.7488ZM471.343 21.1733L471 22.1127C469.439 21.5428 467.872 20.9838 466.3 20.4357L466.63 19.4914C468.206 20.0412 469.777 20.6018 471.343 21.1733ZM461.886 17.8751L461.57 18.824C459.988 18.2977 458.401 17.7824 456.81 17.2782L457.112 16.3249C458.708 16.8306 460.299 17.3473 461.886 17.8751ZM452.325 14.8465L452.037 15.8041C450.445 15.3247 448.847 14.8564 447.246 14.3993L447.52 13.4377C449.126 13.8961 450.728 14.3658 452.325 14.8465ZM442.686 12.0957L442.426 13.0612C440.816 12.6269 439.203 12.2037 437.584 11.7919L437.831 10.8228C439.454 11.2358 441.072 11.6602 442.686 12.0957ZM432.974 9.62393L432.742 10.5965C431.123 10.2092 429.5 9.8332 427.873 9.46852L428.091 8.49272C429.723 8.85846 431.351 9.23555 432.974 9.62393ZM423.183 7.42971L422.978 8.40855C421.351 8.06842 419.72 7.73958 418.084 7.42213L418.275 6.44046C419.915 6.75882 421.551 7.0886 423.183 7.42971ZM413.353 5.52165L413.177 6.50596C411.537 6.21196 409.893 5.92938 408.245 5.65831L408.408 4.67158C410.06 4.94342 411.708 5.22681 413.353 5.52165ZM403.447 3.89202L403.299 4.88098C401.658 4.63505 400.013 4.40053 398.364 4.17748L398.498 3.18651C400.151 3.41019 401.801 3.64539 403.447 3.89202ZM393.526 2.55008L393.407 3.54287C391.751 3.34287 390.091 3.15443 388.428 2.97764L388.534 1.98324C390.202 2.16054 391.866 2.34951 393.526 2.55008ZM383.552 1.48942L383.46 2.48522C381.806 2.33312 380.149 2.19252 378.488 2.06351L378.566 1.06651C380.231 1.19589 381.893 1.33689 383.552 1.48942ZM373.56 0.713337L373.497 1.71133C371.831 1.6057 370.163 1.51171 368.492 1.42945L368.541 0.430657C370.217 0.513152 371.89 0.607406 373.56 0.713337ZM363.551 0.220207L363.516 1.21959C361.854 1.16119 360.189 1.11438 358.522 1.07922L358.543 0.0794468C360.215 0.1147 361.884 0.161646 363.551 0.220207ZM353.518 0.00884454L353.511 1.00882C352.675 1.00294 351.838 1 351 1C350.162 1 349.325 1.00294 348.488 1.00882L348.481 0.00884839C349.32 0.00295273 350.16 0 351 0C351.84 0 352.68 0.00295145 353.518 0.00884454ZM343.456 0.0794586L343.477 1.07924C341.81 1.11439 340.145 1.16121 338.484 1.21961L338.449 0.220228C340.115 0.161664 341.784 0.114715 343.456 0.0794586ZM333.459 0.430686L333.508 1.42948C331.836 1.51174 330.168 1.60573 328.503 1.71137L328.439 0.713376C330.109 0.607441 331.783 0.513185 333.459 0.430686ZM323.434 1.06656L323.511 2.06356C321.85 2.19257 320.193 2.33317 318.539 2.48528L318.447 1.48948C320.106 1.33694 321.768 1.19594 323.434 1.06656ZM313.466 1.98331L313.571 2.97771C311.908 3.1545 310.249 3.34295 308.593 3.54295L308.473 2.55017C310.134 2.34959 311.798 2.16061 313.466 1.98331ZM303.501 3.1866L303.635 4.17757C301.987 4.40062 300.342 4.63515 298.7 4.88108L298.552 3.89211C300.198 3.64548 301.848 3.41028 303.501 3.1866ZM293.592 4.67168L293.754 5.65841C292.106 5.92948 290.463 6.21206 288.823 6.50606L288.646 5.52176C290.291 5.22692 291.939 4.94353 293.592 4.67168ZM283.725 6.44057C282.085 6.75893 280.449 7.08872 278.817 7.42983L279.021 8.40867C280.649 8.06854 282.28 7.7397 283.915 7.42225L283.725 6.44057ZM273.908 8.49285L274.127 9.46864C272.5 9.83332 270.877 10.2093 269.258 10.5966L269.025 9.62405C270.649 9.23568 272.276 8.85858 273.908 8.49285ZM264.169 10.8229L264.415 11.792C262.797 12.2039 261.183 12.627 259.574 13.0613L259.313 12.0959C260.927 11.6603 262.546 11.236 264.169 10.8229ZM254.48 13.4378L254.754 14.3994C253.152 14.8566 251.555 15.3249 249.962 15.8042L249.674 14.8467C251.271 14.3659 252.873 13.8963 254.48 13.4378ZM244.888 16.325L245.19 17.2784C243.598 17.7826 242.011 18.2979 240.429 18.8241L240.114 17.8753C241.7 17.3475 243.292 16.8307 244.888 16.325ZM235.37 19.4916L235.699 20.4358C234.128 20.984 232.561 21.543 231 22.1128L230.657 21.1735C232.223 20.602 233.794 20.0413 235.37 19.4916ZM225.954 22.9284L226.31 23.8627C224.752 24.457 223.199 25.0622 221.651 25.6781L221.281 24.7489C222.833 24.1313 224.391 23.5244 225.954 22.9284ZM216.641 26.6341L217.025 27.5578C215.485 28.1964 213.95 28.8456 212.422 29.5055L212.025 28.5873C213.558 27.9256 215.097 27.2745 216.641 26.6341ZM207.434 30.6085L207.843 31.5208C206.323 32.2031 204.808 32.896 203.299 33.5993L202.877 32.693C204.39 31.9876 205.909 31.2928 207.434 30.6085ZM198.353 34.8411L198.789 35.7413C197.286 36.468 195.79 37.205 194.3 37.9524L193.852 37.0585C195.346 36.309 196.847 35.5698 198.353 34.8411ZM189.387 39.3381L189.848 40.2255C188.37 40.9934 186.898 41.7716 185.433 42.5599L184.959 41.6792C186.429 40.8887 187.905 40.1083 189.387 39.3381ZM180.56 44.0864L181.046 44.9602C179.589 45.771 178.138 46.592 176.694 47.423L176.196 46.5562C177.644 45.7229 179.099 44.8996 180.56 44.0864ZM171.87 49.0863L172.381 49.9459C170.949 50.7974 169.524 51.6589 168.105 52.5302L167.582 51.6781C169.005 50.8043 170.434 49.9403 171.87 49.0863ZM163.326 54.3331L163.862 55.1777C162.454 56.07 161.054 56.9721 159.66 57.8838L159.112 57.0469C160.51 56.1326 161.915 55.228 163.326 54.3331ZM154.94 59.819L155.499 60.6479C154.117 61.5805 152.741 62.5227 151.373 63.4744L150.802 62.6535C152.174 61.6991 153.553 60.7542 154.94 59.819ZM146.707 65.5456L147.29 66.3583C145.936 67.329 144.589 68.3091 143.25 69.2986L142.655 68.4943C143.999 67.502 145.349 66.5191 146.707 65.5456ZM138.645 71.5014L139.25 72.2972C137.924 73.3066 136.605 74.3252 135.293 75.353L134.676 74.5659C135.992 73.5352 137.314 72.5137 138.645 71.5014ZM130.753 77.6855L131.381 78.4637C130.085 79.5099 128.796 80.5652 127.514 81.6294L126.875 80.8602C128.16 79.7929 129.453 78.7346 130.753 77.6855ZM123.041 84.091L123.691 84.8511C122.424 85.9339 121.166 87.0256 119.915 88.1261L119.254 87.3753C120.509 86.2717 121.771 85.1769 123.041 84.091ZM115.515 90.7124L116.186 91.4538C114.951 92.5721 113.723 93.6992 112.504 94.8349L111.822 94.1031C113.045 92.9642 114.276 91.834 115.515 90.7124ZM108.178 97.5458C106.972 98.7019 105.774 99.8665 104.584 101.04L105.286 101.752C106.473 100.582 107.667 99.4206 108.87 98.2678L108.178 97.5458ZM101.04 104.584L101.752 105.286C100.582 106.473 99.4206 107.667 98.2678 108.87L97.5458 108.178C98.7019 106.972 99.8665 105.774 101.04 104.584ZM94.1031 111.822L94.8349 112.504C93.6992 113.723 92.5721 114.951 91.4538 116.186L90.7124 115.515C91.8339 114.276 92.9642 113.045 94.1031 111.822ZM87.3752 119.254L88.126 119.915C87.0256 121.166 85.9339 122.424 84.8511 123.691L84.091 123.041C85.1768 121.771 86.2716 120.509 87.3752 119.254ZM80.8601 126.875L81.6294 127.514C80.5651 128.796 79.5099 130.085 78.4637 131.381L77.6854 130.753C78.7346 129.453 79.7929 128.16 80.8601 126.875ZM74.5658 134.676L75.353 135.293C74.3252 136.605 73.3065 137.924 72.2972 139.25L71.5014 138.645C72.5136 137.314 73.5351 135.992 74.5658 134.676ZM68.4942 142.655L69.2985 143.25C68.3091 144.589 67.3289 145.936 66.3582 147.29L65.5455 146.707C66.519 145.349 67.5019 143.999 68.4942 142.655ZM62.6534 150.802L63.4743 151.373C62.5226 152.742 61.5804 154.117 60.6478 155.499L59.8188 154.94C60.7541 153.554 61.699 152.174 62.6534 150.802ZM57.0468 159.113L57.8837 159.66C56.9719 161.054 56.0699 162.455 55.1776 163.862L54.333 163.327C55.2278 161.915 56.1325 160.51 57.0468 159.113ZM51.6779 167.582L52.5301 168.105C51.6588 169.524 50.7973 170.95 49.9457 172.382L49.0862 171.871C49.9402 170.434 50.8041 169.005 51.6779 167.582ZM46.5561 176.196L47.4229 176.695C46.5919 178.139 45.7709 179.589 44.96 181.046L44.0862 180.56C44.8994 179.099 45.7228 177.644 46.5561 176.196ZM41.6791 184.959L42.5598 185.433C41.7715 186.898 40.9933 188.37 40.2253 189.848L39.338 189.387C40.1081 187.905 40.8885 186.429 41.6791 184.959ZM37.0584 193.852L37.9523 194.3C37.2049 195.791 36.4678 197.287 35.7412 198.789L34.841 198.354C35.5697 196.847 36.3089 195.346 37.0584 193.852ZM32.6928 202.877L33.5992 203.299C32.8959 204.808 32.203 206.323 31.5206 207.843L30.6083 207.434C31.2926 205.909 31.9875 204.39 32.6928 202.877ZM28.5872 212.026L29.5053 212.422C28.8455 213.951 28.1962 215.485 27.5576 217.025L26.6339 216.642C27.2743 215.098 27.9254 213.559 28.5872 212.026ZM24.7488 221.282L25.6779 221.651C25.062 223.199 24.4569 224.752 23.8626 226.311L22.9282 225.954C23.5243 224.391 24.1311 222.834 24.7488 221.282ZM21.1733 230.657L22.1127 231C21.5428 232.561 20.9838 234.128 20.4357 235.7L19.4914 235.37C20.0412 233.794 20.6018 232.223 21.1733 230.657ZM17.8751 240.114L18.824 240.43C18.2977 242.012 17.7824 243.599 17.2782 245.19L16.3249 244.888C16.8306 243.292 17.3473 241.701 17.8751 240.114ZM14.8465 249.675C14.3658 251.272 13.8961 252.874 13.4377 254.48L14.3993 254.754C14.8564 253.153 15.3247 251.555 15.8041 249.963L14.8465 249.675ZM12.0957 259.314L13.0612 259.574C12.6269 261.184 12.2037 262.797 11.7919 264.416L10.8228 264.169C11.2358 262.546 11.6602 260.928 12.0957 259.314ZM9.62393 269.026L10.5965 269.258C10.2092 270.877 9.8332 272.5 9.46852 274.127L8.49272 273.909C8.85845 272.277 9.23555 270.649 9.62393 269.026ZM7.42971 278.817L8.40855 279.022C8.06842 280.649 7.73958 282.28 7.42213 283.916L6.44046 283.725C6.75882 282.085 7.0886 280.449 7.42971 278.817ZM5.52165 288.647L6.50596 288.823C6.21196 290.463 5.92938 292.107 5.65831 293.755L4.67158 293.592C4.94342 291.94 5.22681 290.292 5.52165 288.647ZM3.89202 298.553L4.88098 298.701C4.63505 300.342 4.40053 301.987 4.17748 303.636L3.18651 303.502C3.41019 301.849 3.64539 300.199 3.89202 298.553ZM2.55008 308.473L3.54287 308.593C3.34287 310.249 3.15443 311.909 2.97764 313.572L1.98324 313.466C2.16054 311.798 2.34951 310.134 2.55008 308.473ZM1.48942 318.448L2.48522 318.54C2.33312 320.194 2.19252 321.851 2.06351 323.512L1.06651 323.434C1.19589 321.769 1.33689 320.107 1.48942 318.448ZM0.713337 328.44L1.71133 328.503C1.6057 330.169 1.51171 331.837 1.42945 333.508L0.430657 333.459C0.513152 331.783 0.607406 330.11 0.713337 328.44ZM0.220207 338.449L1.21959 338.484C1.16119 340.146 1.11438 341.811 1.07922 343.478L0.0794467 343.457C0.1147 341.785 0.161646 340.116 0.220207 338.449ZM0.00884453 348.482C0.00295145 349.32 0 350.16 0 351C0 351.84 0.00295274 352.68 0.0088484 353.519L1.00882 353.512C1.00294 352.675 1 351.838 1 351C1 350.162 1.00294 349.325 1.00882 348.489L0.00884453 348.482ZM0.0794587 358.544L1.07924 358.523C1.11439 360.19 1.16121 361.855 1.21961 363.516L0.220228 363.551C0.161664 361.885 0.114715 360.216 0.0794587 358.544ZM0.430686 368.541L1.42948 368.492C1.51174 370.164 1.60573 371.832 1.71137 373.497L0.713376 373.561C0.607441 371.891 0.513185 370.217 0.430686 368.541ZM1.06656 378.566L2.06356 378.489C2.19257 380.15 2.33317 381.807 2.48528 383.461L1.48949 383.553C1.33694 381.894 1.19594 380.232 1.06656 378.566ZM1.98331 388.534L2.97771 388.429C3.1545 390.092 3.34295 391.751 3.54295 393.407L2.55017 393.527C2.34959 391.866 2.16061 390.202 1.98331 388.534ZM3.1866 398.499L4.17757 398.365C4.40062 400.013 4.63515 401.658 4.88108 403.3L3.89211 403.448C3.64548 401.802 3.41028 400.152 3.1866 398.499ZM4.67168 408.408L5.65841 408.246C5.92948 409.894 6.21206 411.537 6.50606 413.177L5.52176 413.354C5.22692 411.709 4.94353 410.061 4.67168 408.408ZM6.44057 418.275C6.75893 419.915 7.08872 421.551 7.42983 423.183L8.40867 422.979C8.06854 421.351 7.7397 419.72 7.42225 418.085L6.44057 418.275ZM8.49285 428.092L9.46864 427.873C9.83332 429.5 10.2093 431.123 10.5966 432.742L9.62405 432.975C9.23568 431.351 8.85858 429.724 8.49285 428.092ZM10.8229 437.831L11.792 437.585C12.2039 439.203 12.627 440.817 13.0613 442.426L12.0959 442.687C11.6603 441.073 11.236 439.454 10.8229 437.831ZM13.4378 447.52L14.3994 447.246C14.8566 448.848 15.3249 450.445 15.8042 452.038L14.8467 452.326C14.3659 450.729 13.8963 449.127 13.4378 447.52ZM16.325 457.112L17.2784 456.81C17.7826 458.402 18.2979 459.989 18.8241 461.571L17.8753 461.886C17.3475 460.3 16.8307 458.708 16.325 457.112ZM19.4916 466.63L20.4358 466.301C20.984 467.872 21.543 469.439 22.1128 471L21.1735 471.343C20.602 469.777 20.0413 468.206 19.4916 466.63ZM22.9284 476.046L23.8627 475.69C24.457 477.248 25.0622 478.801 25.6781 480.349L24.7489 480.719C24.1313 479.167 23.5244 477.609 22.9284 476.046ZM26.6341 485.359L27.5578 484.975C28.1964 486.515 28.8456 488.05 29.5055 489.578L28.5873 489.975C27.9256 488.442 27.2745 486.903 26.6341 485.359ZM30.6085 494.566L31.5208 494.157C32.2031 495.677 32.896 497.192 33.5993 498.701L32.693 499.123C31.9876 497.61 31.2928 496.091 30.6085 494.566ZM34.8411 503.647L35.7413 503.211C36.468 504.714 37.205 506.21 37.9524 507.7L37.0585 508.148C36.309 506.654 35.5698 505.153 34.8411 503.647ZM39.3381 512.613L40.2255 512.152C40.9934 513.63 41.7716 515.102 42.5599 516.567L41.6792 517.041C40.8887 515.571 40.1082 514.095 39.3381 512.613ZM44.0864 521.44L44.9602 520.954C45.771 522.411 46.592 523.862 47.423 525.306L46.5562 525.804C45.7229 524.356 44.8996 522.901 44.0864 521.44ZM49.0863 530.13L49.9459 529.619C50.7974 531.051 51.6589 532.476 52.5302 533.895L51.6781 534.418C50.8043 532.995 49.9403 531.566 49.0863 530.13ZM54.3331 538.674C55.2279 540.085 56.1326 541.49 57.0469 542.888L57.8838 542.34C56.9721 540.946 56.07 539.546 55.1777 538.138L54.3331 538.674ZM59.819 547.06L60.6479 546.501C61.5805 547.883 62.5227 549.259 63.4744 550.627L62.6535 551.198C61.6991 549.826 60.7542 548.447 59.819 547.06ZM65.5456 555.293L66.3583 554.71C67.329 556.064 68.3091 557.411 69.2986 558.75L68.4943 559.345C67.502 558.001 66.5191 556.651 65.5456 555.293ZM71.5014 563.355L72.2972 562.75C73.3066 564.076 74.3252 565.395 75.353 566.707L74.5659 567.324C73.5352 566.008 72.5137 564.686 71.5014 563.355ZM77.6855 571.247L78.4637 570.619C79.5099 571.915 80.5652 573.205 81.6294 574.486L80.8602 575.125C79.7929 573.84 78.7346 572.547 77.6855 571.247ZM84.091 578.959L84.8511 578.309C85.9339 579.576 87.0256 580.834 88.1261 582.085L87.3753 582.746C86.2717 581.491 85.1769 580.229 84.091 578.959ZM90.7124 586.485L91.4538 585.814C92.5721 587.049 93.6992 588.277 94.8349 589.496L94.1031 590.178C92.9642 588.955 91.834 587.724 90.7124 586.485ZM97.5458 593.822C98.7019 595.028 99.8665 596.226 101.04 597.416L101.752 596.714C100.582 595.527 99.4206 594.333 98.2678 593.13L97.5458 593.822ZM104.584 600.96L105.286 600.248C106.473 601.418 107.667 602.579 108.87 603.732L108.178 604.454C106.972 603.298 105.774 602.133 104.584 600.96ZM111.822 607.897L112.504 607.165C113.723 608.301 114.951 609.428 116.186 610.546L115.515 611.288C114.276 610.166 113.045 609.036 111.822 607.897ZM119.254 614.625L119.915 613.874C121.166 614.974 122.424 616.066 123.691 617.149L123.041 617.909C121.771 616.823 120.509 615.728 119.254 614.625ZM126.875 621.14L127.514 620.371C128.796 621.435 130.085 622.49 131.381 623.536L130.753 624.315C129.453 623.265 128.16 622.207 126.875 621.14ZM134.676 627.434C135.992 628.465 137.314 629.486 138.645 630.499L139.25 629.703C137.924 628.693 136.605 627.675 135.293 626.647L134.676 627.434ZM142.655 633.506L143.25 632.701C144.589 633.691 145.936 634.671 147.29 635.642L146.707 636.455C145.349 635.481 143.999 634.498 142.655 633.506ZM150.802 639.347L151.373 638.526C152.742 639.477 154.117 640.42 155.499 641.352L154.94 642.181C153.554 641.246 152.174 640.301 150.802 639.347ZM159.113 644.953L159.66 644.116C161.054 645.028 162.455 645.93 163.862 646.822L163.327 647.667C161.915 646.772 160.51 645.868 159.113 644.953ZM167.582 650.322L168.105 649.47C169.524 650.341 170.95 651.203 172.382 652.054L171.871 652.914C170.434 652.06 169.005 651.196 167.582 650.322ZM176.196 655.444L176.695 654.577C178.139 655.408 179.589 656.229 181.046 657.04L180.56 657.914C179.099 657.101 177.644 656.277 176.196 655.444ZM184.959 660.321L185.433 659.44C186.898 660.229 188.37 661.007 189.848 661.775L189.387 662.662C187.905 661.892 186.429 661.111 184.959 660.321ZM193.852 664.942L194.3 664.048C195.791 664.795 197.287 665.532 198.789 666.259L198.354 667.159C196.847 666.43 195.346 665.691 193.852 664.942ZM202.877 669.307L203.299 668.401C204.808 669.104 206.323 669.797 207.843 670.479L207.434 671.392C205.909 670.707 204.39 670.013 202.877 669.307ZM212.026 673.413L212.422 672.495C213.951 673.155 215.485 673.804 217.025 674.442L216.642 675.366C215.098 674.726 213.559 674.075 212.026 673.413ZM221.282 677.251L221.651 676.322C223.199 676.938 224.752 677.543 226.311 678.137L225.954 679.072C224.391 678.476 222.834 677.869 221.282 677.251ZM230.657 680.827L231 679.887C232.561 680.457 234.128 681.016 235.7 681.564L235.37 682.509C233.794 681.959 232.223 681.398 230.657 680.827ZM240.114 684.125L240.43 683.176C242.012 683.702 243.599 684.218 245.19 684.722L244.888 685.675C243.292 685.169 241.701 684.653 240.114 684.125ZM249.675 687.154L249.963 686.196C251.555 686.675 253.153 687.144 254.754 687.601L254.48 688.562C252.874 688.104 251.272 687.634 249.675 687.154ZM259.314 689.904L259.574 688.939C261.184 689.373 262.797 689.796 264.416 690.208L264.169 691.177C262.546 690.764 260.928 690.34 259.314 689.904ZM269.026 692.376L269.258 691.404C270.877 691.791 272.5 692.167 274.127 692.531L273.909 693.507C272.277 693.142 270.649 692.764 269.026 692.376ZM278.817 694.57L279.022 693.591C280.649 693.932 282.28 694.26 283.916 694.578L283.725 695.56C282.085 695.241 280.449 694.911 278.817 694.57ZM288.647 696.478L288.823 695.494C290.463 695.788 292.107 696.071 293.755 696.342L293.592 697.328C291.94 697.057 290.292 696.773 288.647 696.478ZM298.553 698.108L298.701 697.119C300.342 697.365 301.987 697.599 303.636 697.823L303.502 698.813C301.849 698.59 300.199 698.355 298.553 698.108ZM308.474 699.45L308.593 698.457C310.249 698.657 311.909 698.846 313.572 699.022L313.466 700.017C311.798 699.839 310.134 699.65 308.474 699.45ZM318.448 700.511L318.54 699.515C320.194 699.667 321.851 699.807 323.512 699.936L323.434 700.933C321.769 700.804 320.107 700.663 318.448 700.511ZM328.44 701.287L328.503 700.289C330.169 700.394 331.837 700.488 333.508 700.571L333.459 701.569C331.783 701.487 330.11 701.393 328.44 701.287ZM338.449 701.78L338.484 700.78C340.146 700.839 341.811 700.886 343.478 700.921L343.457 701.921C341.785 701.885 340.116 701.838 338.449 701.78ZM348.482 701.991L348.489 700.991C349.325 700.997 350.162 701 351 701C351.838 701 352.675 700.997 353.512 700.991L353.519 701.991C352.68 701.997 351.84 702 351 702C350.16 702 349.32 701.997 348.482 701.991ZM358.544 701.921L358.523 700.921C360.19 700.886 361.855 700.839 363.516 700.78L363.551 701.78C361.885 701.838 360.216 701.885 358.544 701.921ZM368.541 701.569L368.492 700.57C370.164 700.488 371.832 700.394 373.497 700.289L373.561 701.287C371.891 701.393 370.217 701.487 368.541 701.569ZM378.566 700.933L378.489 699.936C380.15 699.807 381.807 699.667 383.461 699.515L383.553 700.51C381.894 700.663 380.232 700.804 378.566 700.933ZM388.534 700.017L388.429 699.022C390.092 698.846 391.751 698.657 393.407 698.457L393.527 699.45C391.866 699.65 390.202 699.839 388.534 700.017ZM398.499 698.813L398.365 697.822C400.013 697.599 401.658 697.365 403.3 697.119L403.448 698.108C401.802 698.355 400.152 698.59 398.499 698.813ZM408.408 697.328L408.246 696.342C409.894 696.07 411.537 695.788 413.177 695.494L413.354 696.478C411.709 696.773 410.061 697.056 408.408 697.328ZM418.275 695.559L418.085 694.578C419.72 694.26 421.351 693.931 422.979 693.591L423.183 694.57C421.551 694.911 419.915 695.241 418.275 695.559ZM428.092 693.507L427.873 692.531C429.5 692.167 431.123 691.791 432.742 691.403L432.975 692.376C431.351 692.764 429.724 693.141 428.092 693.507ZM437.831 691.177L437.585 690.208C439.203 689.796 440.817 689.373 442.426 688.939L442.687 689.904C441.073 690.34 439.454 690.764 437.831 691.177ZM447.52 688.562L447.246 687.601C448.848 687.143 450.445 686.675 452.038 686.196L452.326 687.153C450.729 687.634 449.127 688.104 447.52 688.562ZM457.112 685.675L456.81 684.722C458.402 684.217 459.989 683.702 461.571 683.176L461.886 684.125C460.3 684.652 458.708 685.169 457.112 685.675ZM466.63 682.508L466.301 681.564C467.872 681.016 469.439 680.457 471 679.887L471.343 680.827C469.777 681.398 468.206 681.959 466.63 682.508ZM476.046 679.072L475.69 678.137C477.248 677.543 478.801 676.938 480.349 676.322L480.719 677.251C479.167 677.869 477.609 678.476 476.046 679.072ZM485.359 675.366L484.975 674.442C486.515 673.804 488.05 673.154 489.578 672.495L489.975 673.413C488.442 674.074 486.903 674.725 485.359 675.366ZM494.566 671.392L494.157 670.479C495.677 669.797 497.192 669.104 498.701 668.401L499.123 669.307C497.61 670.012 496.091 670.707 494.566 671.392ZM503.647 667.159L503.211 666.259C504.714 665.532 506.21 664.795 507.7 664.048L508.148 664.941C506.654 665.691 505.153 666.43 503.647 667.159ZM512.613 662.662L512.152 661.775C513.63 661.007 515.102 660.228 516.567 659.44L517.041 660.321C515.571 661.111 514.095 661.892 512.613 662.662ZM521.44 657.914L520.954 657.04C522.411 656.229 523.862 655.408 525.306 654.577L525.804 655.444C524.356 656.277 522.901 657.1 521.44 657.914ZM530.13 652.914L529.619 652.054C531.051 651.203 532.476 650.341 533.895 649.47L534.418 650.322C532.995 651.196 531.566 652.06 530.13 652.914ZM538.674 647.667L538.138 646.822C539.546 645.93 540.946 645.028 542.34 644.116L542.888 644.953C541.49 645.867 540.085 646.772 538.674 647.667ZM547.06 642.181L546.501 641.352C547.883 640.419 549.259 639.477 550.627 638.526L551.198 639.346C549.826 640.301 548.447 641.246 547.06 642.181ZM555.293 636.454L554.71 635.642C556.064 634.671 557.411 633.691 558.75 632.701L559.345 633.506C558.001 634.498 556.651 635.481 555.293 636.454ZM563.355 630.499L562.75 629.703C564.076 628.693 565.395 627.675 566.707 626.647L567.324 627.434C566.008 628.465 564.686 629.486 563.355 630.499ZM571.247 624.315L570.619 623.536C571.915 622.49 573.205 621.435 574.486 620.371L575.125 621.14C573.84 622.207 572.547 623.265 571.247 624.315ZM578.959 617.909L578.309 617.149C579.576 616.066 580.834 614.974 582.085 613.874L582.746 614.625C581.491 615.728 580.229 616.823 578.959 617.909ZM586.485 611.288L585.814 610.546C587.049 609.428 588.277 608.301 589.496 607.165L590.178 607.897C588.955 609.036 587.724 610.166 586.485 611.288ZM593.822 604.454L593.13 603.732C594.333 602.579 595.527 601.418 596.714 600.248L597.416 600.96C596.226 602.133 595.028 603.298 593.822 604.454ZM600.96 597.416L600.248 596.714C601.418 595.527 602.579 594.333 603.732 593.13L604.454 593.822C603.298 595.028 602.133 596.226 600.96 597.416ZM607.897 590.178L607.165 589.496C608.301 588.277 609.428 587.049 610.546 585.814L611.288 586.485C610.166 587.724 609.036 588.955 607.897 590.178ZM614.625 582.746L613.874 582.085C614.974 580.834 616.066 579.576 617.149 578.309L617.909 578.959C616.823 580.229 615.728 581.491 614.625 582.746ZM621.14 575.125L620.371 574.486C621.435 573.204 622.49 571.915 623.536 570.619L624.315 571.247C623.265 572.547 622.207 573.84 621.14 575.125ZM627.434 567.324C628.465 566.008 629.486 564.686 630.499 563.355L629.703 562.75C628.693 564.076 627.675 565.395 626.647 566.707L627.434 567.324ZM633.506 559.345L632.701 558.75C633.691 557.411 634.671 556.064 635.642 554.71L636.455 555.293C635.481 556.651 634.498 558.001 633.506 559.345ZM639.347 551.198C640.301 549.826 641.246 548.446 642.181 547.06L641.352 546.501C640.42 547.883 639.477 549.258 638.526 550.627L639.347 551.198ZM644.953 542.887L644.116 542.34C645.028 540.946 645.93 539.545 646.822 538.138L647.667 538.673C646.772 540.085 645.867 541.49 644.953 542.887ZM650.322 534.418L649.47 533.895C650.341 532.476 651.203 531.05 652.054 529.618L652.914 530.129C652.06 531.566 651.196 532.995 650.322 534.418ZM655.444 525.804L654.577 525.305C655.408 523.861 656.229 522.411 657.04 520.954L657.914 521.44C657.101 522.901 656.277 524.356 655.444 525.804ZM660.321 517.041L659.44 516.567C660.229 515.102 661.007 513.63 661.775 512.152L662.662 512.613C661.892 514.095 661.111 515.571 660.321 517.041ZM664.942 508.148L664.048 507.7C664.795 506.209 665.532 504.713 666.259 503.211L667.159 503.646C666.43 505.153 665.691 506.654 664.942 508.148ZM669.307 499.123C670.013 497.61 670.707 496.091 671.392 494.566L670.479 494.157C669.797 495.677 669.104 497.192 668.401 498.701L669.307 499.123ZM673.413 489.974L672.495 489.578C673.155 488.049 673.804 486.515 674.442 484.975L675.366 485.358C674.726 486.902 674.075 488.441 673.413 489.974ZM677.251 480.718L676.322 480.349C676.938 478.801 677.543 477.248 678.137 475.689L679.072 476.046C678.476 477.609 677.869 479.166 677.251 480.718ZM680.827 471.343L679.887 471C680.457 469.439 681.016 467.872 681.564 466.3L682.509 466.63C681.959 468.206 681.398 469.777 680.827 471.343ZM684.125 461.886L683.176 461.57C683.702 459.988 684.218 458.401 684.722 456.81L685.675 457.112C685.169 458.708 684.653 460.299 684.125 461.886ZM687.154 452.325L686.196 452.037C686.675 450.445 687.144 448.847 687.601 447.246L688.562 447.52C688.104 449.126 687.634 450.728 687.154 452.325ZM689.904 442.686L688.939 442.426C689.373 440.816 689.796 439.203 690.208 437.584L691.177 437.831C690.764 439.454 690.34 441.072 689.904 442.686ZM692.376 432.974L691.404 432.742C691.791 431.123 692.167 429.5 692.531 427.873L693.507 428.091C693.142 429.723 692.764 431.351 692.376 432.974ZM694.57 423.183L693.591 422.978C693.932 421.351 694.26 419.72 694.578 418.084L695.56 418.275C695.241 419.915 694.911 421.551 694.57 423.183ZM696.478 413.353L695.494 413.177C695.788 411.537 696.071 409.893 696.342 408.245L697.328 408.408C697.057 410.06 696.773 411.708 696.478 413.353ZM698.108 403.447L697.119 403.299C697.365 401.658 697.599 400.013 697.823 398.364L698.813 398.498C698.59 400.151 698.355 401.801 698.108 403.447ZM699.45 393.526L698.457 393.407C698.657 391.751 698.846 390.091 699.022 388.428L700.017 388.534C699.839 390.202 699.65 391.866 699.45 393.526ZM700.511 383.552L699.515 383.46C699.667 381.806 699.807 380.149 699.936 378.488L700.933 378.566C700.804 380.231 700.663 381.893 700.511 383.552ZM701.287 373.56L700.289 373.497C700.394 371.831 700.488 370.163 700.571 368.492L701.569 368.541C701.487 370.217 701.393 371.89 701.287 373.56ZM701.78 363.551L700.78 363.516C700.839 361.854 700.886 360.189 700.921 358.522L701.921 358.543C701.885 360.215 701.838 361.884 701.78 363.551Z" fill="black" fill-opacity="0.2"/>
<path fill-rule="evenodd" clip-rule="evenodd" d="M632.989 353.529L631.989 353.521C631.996 352.681 632 351.841 632 351C632 350.159 631.996 349.319 631.989 348.48L632.989 348.471C632.996 349.313 633 350.156 633 351C633 351.844 632.996 352.687 632.989 353.529ZM632.9 343.429L631.901 343.455C631.857 341.784 631.798 340.116 631.725 338.453L632.724 338.409C632.797 340.078 632.856 341.752 632.9 343.429ZM632.458 333.378L631.46 333.44C631.357 331.766 631.239 330.096 631.107 328.43L632.104 328.351C632.237 330.023 632.355 331.698 632.458 333.378ZM631.662 323.348L630.666 323.445C630.504 321.776 630.327 320.111 630.135 318.45L631.128 318.335C631.321 320.002 631.498 321.673 631.662 323.348ZM630.507 313.337C630.285 311.676 630.049 310.019 629.798 308.366L628.81 308.516C629.059 310.163 629.295 311.814 629.516 313.469L630.507 313.337ZM628.997 303.385L628.011 303.553C627.731 301.902 627.435 300.256 627.126 298.616L628.109 298.43C628.419 300.077 628.715 301.728 628.997 303.385ZM627.134 293.501L626.154 293.704C625.814 292.061 625.459 290.424 625.091 288.792L626.066 288.571C626.436 290.209 626.792 291.853 627.134 293.501ZM624.913 283.674L623.942 283.912C623.544 282.287 623.132 280.668 622.705 279.054L623.672 278.799C624.1 280.418 624.514 282.044 624.913 283.674ZM622.342 273.938L621.379 274.211C620.923 272.602 620.453 270.999 619.97 269.402L620.927 269.112C621.412 270.715 621.884 272.323 622.342 273.938ZM619.423 264.306C618.907 262.707 618.377 261.114 617.833 259.527L616.887 259.851C617.429 261.432 617.957 263.02 618.472 264.613L619.423 264.306ZM616.161 254.786L615.221 255.127C614.649 253.552 614.064 251.984 613.465 250.423L614.399 250.065C615 251.632 615.587 253.206 616.161 254.786ZM612.554 245.381L611.627 245.755C611.001 244.206 610.361 242.663 609.708 241.127L610.628 240.735C611.284 242.277 611.926 243.825 612.554 245.381ZM608.614 236.116L607.701 236.523C607.019 234.996 606.324 233.476 605.615 231.963L606.521 231.539C607.232 233.057 607.93 234.583 608.614 236.116ZM604.346 227.001L603.448 227.441C602.711 225.938 601.961 224.443 601.198 222.955L602.088 222.499C602.853 223.992 603.606 225.493 604.346 227.001ZM599.752 218.042L598.87 218.515C598.08 217.039 597.277 215.572 596.462 214.113L597.335 213.625C598.153 215.09 598.959 216.562 599.752 218.042ZM594.839 209.252L593.975 209.755C593.134 208.311 592.28 206.875 591.413 205.447L592.268 204.928C593.138 206.361 593.995 207.802 594.839 209.252ZM589.617 200.645L588.771 201.179C587.878 199.765 586.973 198.359 586.056 196.962L586.892 196.413C587.812 197.815 588.721 199.226 589.617 200.645ZM584.092 192.231L583.266 192.795C582.323 191.413 581.367 190.039 580.4 188.675L581.216 188.097C582.187 189.466 583.145 190.844 584.092 192.231ZM578.269 184.017L577.464 184.61C576.472 183.263 575.469 181.925 574.454 180.596L575.249 179.989C576.267 181.322 577.274 182.665 578.269 184.017ZM572.158 176.015L571.374 176.636C570.335 175.326 569.286 174.025 568.225 172.733L568.997 172.098C570.062 173.394 571.116 174.7 572.158 176.015ZM565.766 168.237L565.005 168.885C563.921 167.612 562.825 166.349 561.719 165.095L562.468 164.433C563.579 165.691 564.678 166.959 565.766 168.237ZM559.103 160.69L558.366 161.365C557.237 160.131 556.097 158.907 554.946 157.694L555.672 157.006C556.826 158.223 557.97 159.452 559.103 160.69ZM552.176 153.384L551.463 154.084C550.291 152.892 549.108 151.709 547.916 150.537L548.616 149.824C549.813 151 551 152.186 552.176 153.384ZM544.994 146.328L544.306 147.054C543.093 145.903 541.869 144.763 540.635 143.634L541.31 142.897C542.548 144.03 543.776 145.173 544.994 146.328ZM537.567 139.532L536.905 140.281C535.651 139.175 534.388 138.079 533.115 136.995L533.763 136.233C535.041 137.322 536.309 138.421 537.567 139.532ZM529.902 133.003L529.267 133.775C527.975 132.714 526.674 131.664 525.364 130.626L525.985 129.842C527.3 130.884 528.606 131.938 529.902 133.003ZM522.011 126.751L521.404 127.546C520.075 126.531 518.737 125.528 517.39 124.536L517.983 123.731C519.335 124.726 520.678 125.733 522.011 126.751ZM513.903 120.784L513.325 121.6C511.961 120.633 510.587 119.677 509.205 118.734L509.769 117.908C511.156 118.855 512.534 119.813 513.903 120.784ZM505.587 115.108L505.038 115.944C503.641 115.027 502.235 114.122 500.821 113.229L501.355 112.383C502.774 113.279 504.185 114.188 505.587 115.108ZM497.072 109.732L496.553 110.587C495.125 109.72 493.689 108.866 492.245 108.025L492.748 107.161C494.198 108.005 495.639 108.862 497.072 109.732ZM488.375 104.665C486.91 103.847 485.438 103.041 483.958 102.248L483.485 103.13C484.961 103.92 486.428 104.723 487.887 105.538L488.375 104.665ZM479.501 99.9124L479.045 100.802C477.557 100.039 476.062 99.2892 474.559 98.5521L474.999 97.6543C476.507 98.394 478.008 99.1467 479.501 99.9124ZM470.461 95.4791L470.037 96.3847C468.524 95.6763 467.004 94.9809 465.477 94.2988L465.884 93.3857C467.417 94.0703 468.943 94.7681 470.461 95.4791ZM461.265 91.372L460.873 92.2922C459.337 91.6391 457.795 90.9993 456.245 90.3729L456.62 89.4457C458.175 90.0744 459.723 90.7165 461.265 91.372ZM451.935 87.6011L451.577 88.5348C450.016 87.9361 448.448 87.351 446.873 86.7795L447.214 85.8395C448.795 86.413 450.368 87.0003 451.935 87.6011ZM442.473 84.1668L442.149 85.1128C440.568 84.5709 438.98 84.0427 437.387 83.5284L437.694 82.5767C439.293 83.0929 440.886 83.623 442.473 84.1668ZM432.888 81.0734L432.598 82.0305C431.001 81.5466 429.398 81.0766 427.79 80.6206L428.062 79.6585C429.677 80.1162 431.286 80.5879 432.888 81.0734ZM423.201 78.3278L422.946 79.2946C421.332 78.8685 419.713 78.4564 418.088 78.0584L418.326 77.0871C419.957 77.4865 421.582 77.9001 423.201 78.3278ZM413.429 75.934L413.208 76.9094C411.576 76.5406 409.939 76.1859 408.296 75.8457L408.499 74.8664C410.148 75.208 411.791 75.5639 413.429 75.934ZM403.57 73.8913L403.385 74.874C401.744 74.5646 400.098 74.2695 398.448 73.9888L398.615 73.003C400.272 73.2847 401.924 73.5808 403.57 73.8913ZM393.634 72.2018L393.484 73.1905C391.838 72.9408 390.187 72.7054 388.531 72.4845L388.663 71.4933C390.325 71.715 391.982 71.9512 393.634 72.2018ZM383.665 70.8715L383.551 71.865C381.89 71.6734 380.225 71.4963 378.555 71.3338L378.652 70.3385C380.327 70.5016 381.999 70.6793 383.665 70.8715ZM373.649 69.8963L373.57 70.8932C371.904 70.7608 370.235 70.643 368.561 70.5398L368.622 69.5417C370.302 69.6452 371.978 69.7635 373.649 69.8963ZM363.592 69.2761L363.548 70.2751C361.884 70.202 360.216 70.1434 358.545 70.0993L358.572 69.0997C360.249 69.1439 361.922 69.2027 363.592 69.2761ZM353.53 69.0111L353.521 70.0111C352.681 70.0037 351.841 70 351 70C350.159 70 349.319 70.0037 348.48 70.0111L348.471 69.0111C349.313 69.0037 350.156 69 351 69C351.844 69 352.687 69.0037 353.53 69.0111ZM343.429 69.0997L343.455 70.0993C341.784 70.1434 340.116 70.202 338.453 70.2751L338.409 69.2761C340.078 69.2027 341.752 69.1439 343.429 69.0997ZM333.378 69.5416L333.44 70.5397C331.766 70.6429 330.096 70.7608 328.43 70.8932L328.351 69.8963C330.023 69.7635 331.698 69.6452 333.378 69.5416ZM323.348 70.3385L323.445 71.3338C321.776 71.4962 320.111 71.6733 318.45 71.8649L318.335 70.8715C320.002 70.6792 321.673 70.5015 323.348 70.3385ZM313.337 71.4932L313.469 72.4844C311.814 72.7054 310.163 72.9408 308.516 73.1904L308.366 72.2017C310.019 71.9512 311.676 71.715 313.337 71.4932ZM303.385 73.0029L303.553 73.9888C301.902 74.2695 300.256 74.5646 298.616 74.8739L298.43 73.8912C300.077 73.5808 301.728 73.2846 303.385 73.0029ZM293.501 74.8664L293.704 75.8456C292.061 76.1859 290.424 76.5405 288.792 76.9093L288.571 75.9339C290.209 75.5638 291.853 75.2079 293.501 74.8664ZM283.674 77.087L283.912 78.0583C282.287 78.4563 280.668 78.8684 279.054 79.2946L278.799 78.3277C280.418 77.9001 282.044 77.4864 283.674 77.087ZM273.938 79.6585C272.323 80.1161 270.715 80.5878 269.112 81.0733L269.402 82.0304C270.999 81.5466 272.602 81.0766 274.211 80.6206L273.938 79.6585ZM264.306 82.5767C262.707 83.0928 261.114 83.6229 259.527 84.1668L259.851 85.1127C261.432 84.5709 263.02 84.0427 264.613 83.5283L264.306 82.5767ZM254.786 85.8394L255.127 86.7794C253.552 87.3509 251.984 87.9361 250.423 88.5348L250.065 87.6011C251.632 87.0002 253.206 86.4129 254.786 85.8394ZM245.381 89.4457L245.755 90.3728C244.206 90.9992 242.663 91.6391 241.127 92.2922L240.735 91.3719C242.277 90.7165 243.825 90.0743 245.381 89.4457ZM236.116 93.3857L236.523 94.2987C234.996 94.9809 233.476 95.6762 231.963 96.3847L231.539 95.4791C233.057 94.7681 234.583 94.0702 236.116 93.3857ZM227.001 97.6542L227.441 98.5521C225.938 99.2891 224.443 100.039 222.955 100.802L222.499 99.9124C223.992 99.1467 225.493 98.3939 227.001 97.6542ZM218.042 102.248L218.515 103.13C217.039 103.92 215.572 104.723 214.113 105.538L213.625 104.665C215.09 103.847 216.562 103.041 218.042 102.248ZM209.252 107.161L209.755 108.025C208.311 108.866 206.875 109.72 205.447 110.587L204.928 109.732C206.361 108.862 207.802 108.005 209.252 107.161ZM200.645 112.383L201.179 113.229C199.765 114.122 198.359 115.027 196.962 115.944L196.413 115.108C197.815 114.188 199.226 113.279 200.645 112.383ZM192.231 117.908L192.795 118.734C191.413 119.677 190.039 120.633 188.675 121.6L188.097 120.784C189.466 119.813 190.844 118.855 192.231 117.908ZM184.017 123.731C182.665 124.726 181.322 125.733 179.989 126.751L180.596 127.546C181.925 126.531 183.263 125.528 184.61 124.536L184.017 123.731ZM176.015 129.842L176.636 130.626C175.326 131.665 174.025 132.714 172.733 133.775L172.098 133.003C173.394 131.938 174.7 130.884 176.015 129.842ZM168.237 136.234L168.885 136.995C167.612 138.079 166.349 139.175 165.095 140.281L164.433 139.532C165.691 138.421 166.959 137.322 168.237 136.234ZM160.69 142.897L161.365 143.634C160.131 144.763 158.907 145.903 157.694 147.054L157.006 146.328C158.223 145.173 159.452 144.03 160.69 142.897ZM153.383 149.824L154.084 150.537C152.892 151.709 151.709 152.892 150.537 154.084L149.824 153.384C151 152.187 152.186 151 153.383 149.824ZM146.328 157.006L147.054 157.694C145.903 158.907 144.763 160.131 143.634 161.365L142.897 160.69C144.03 159.452 145.173 158.224 146.328 157.006ZM139.532 164.433L140.281 165.095C139.175 166.349 138.079 167.612 136.995 168.885L136.233 168.237C137.322 166.959 138.421 165.691 139.532 164.433ZM133.003 172.098L133.775 172.733C132.714 174.025 131.664 175.326 130.626 176.636L129.842 176.015C130.884 174.7 131.938 173.394 133.003 172.098ZM126.751 179.989L127.546 180.596C126.531 181.925 125.528 183.263 124.536 184.61L123.731 184.017C124.726 182.665 125.733 181.322 126.751 179.989ZM120.784 188.097L121.6 188.675C120.633 190.039 119.677 191.413 118.734 192.795L117.908 192.231C118.855 190.844 119.813 189.466 120.784 188.097ZM115.108 196.413L115.944 196.962C115.027 198.359 114.122 199.765 113.229 201.179L112.383 200.645C113.279 199.226 114.188 197.815 115.108 196.413ZM109.732 204.928L110.587 205.447C109.72 206.875 108.866 208.311 108.025 209.755L107.161 209.252C108.005 207.802 108.862 206.361 109.732 204.928ZM104.665 213.625C103.847 215.09 103.041 216.562 102.248 218.042L103.13 218.515C103.92 217.039 104.723 215.572 105.538 214.113L104.665 213.625ZM99.9124 222.499L100.802 222.955C100.039 224.443 99.2892 225.938 98.5521 227.441L97.6543 227.001C98.3939 225.493 99.1467 223.992 99.9124 222.499ZM95.4791 231.539L96.3847 231.963C95.6763 233.476 94.9809 234.996 94.2988 236.523L93.3857 236.116C94.0703 234.583 94.7681 233.057 95.4791 231.539ZM91.372 240.735L92.2922 241.127C91.6391 242.663 90.9993 244.205 90.3729 245.755L89.4457 245.38C90.0744 243.825 90.7165 242.277 91.372 240.735ZM87.6011 250.065L88.5348 250.423C87.9361 251.984 87.351 253.552 86.7795 255.127L85.8395 254.786C86.413 253.205 87.0003 251.632 87.6011 250.065ZM84.1668 259.527L85.1128 259.851C84.5709 261.432 84.0427 263.02 83.5284 264.613L82.5767 264.306C83.0929 262.707 83.623 261.114 84.1668 259.527ZM81.0734 269.112L82.0305 269.402C81.5466 270.999 81.0766 272.602 80.6206 274.21L79.6585 273.938C80.1162 272.323 80.5879 270.714 81.0734 269.112ZM78.3278 278.799C77.9001 280.418 77.4865 282.043 77.0871 283.674L78.0584 283.912C78.4564 282.287 78.8685 280.668 79.2946 279.054L78.3278 278.799ZM75.934 288.571L76.9094 288.792C76.5406 290.424 76.1859 292.061 75.8457 293.704L74.8664 293.501C75.208 291.852 75.5639 290.209 75.934 288.571ZM73.8913 298.43L74.874 298.615C74.5646 300.256 74.2695 301.902 73.9888 303.552L73.003 303.385C73.2847 301.728 73.5808 300.077 73.8913 298.43ZM72.2018 308.366L73.1905 308.516C72.9408 310.162 72.7054 311.813 72.4845 313.469L71.4933 313.337C71.715 311.675 71.9512 310.018 72.2018 308.366ZM70.8715 318.335L71.865 318.449C71.6734 320.11 71.4963 321.775 71.3338 323.445L70.3385 323.348C70.5016 321.673 70.6793 320.001 70.8715 318.335ZM69.8963 328.351L70.8932 328.43C70.7608 330.096 70.643 331.765 70.5398 333.439L69.5417 333.378C69.6452 331.698 69.7635 330.022 69.8963 328.351ZM69.2761 338.408L70.2751 338.452C70.202 340.116 70.1434 341.784 70.0993 343.455L69.0997 343.428C69.1439 341.751 69.2027 340.078 69.2761 338.408ZM69.0111 348.47C69.0037 349.313 69 350.156 69 351C69 351.844 69.0037 352.687 69.0111 353.529L70.0111 353.52C70.0037 352.681 70 351.841 70 351C70 350.159 70.0037 349.319 70.0111 348.479L69.0111 348.47ZM69.0997 358.571L70.0993 358.545C70.1434 360.216 70.202 361.884 70.2751 363.547L69.2761 363.591C69.2027 361.922 69.1439 360.248 69.0997 358.571ZM69.5416 368.622L70.5397 368.56C70.6429 370.234 70.7608 371.904 70.8932 373.57L69.8963 373.649C69.7635 371.977 69.6452 370.302 69.5416 368.622ZM70.3385 378.652L71.3338 378.555C71.4962 380.224 71.6733 381.889 71.8649 383.55L70.8715 383.665C70.6792 381.998 70.5015 380.327 70.3385 378.652ZM71.4932 388.663L72.4844 388.531C72.7054 390.186 72.9408 391.837 73.1904 393.484L72.2017 393.634C71.9512 391.981 71.715 390.324 71.4932 388.663ZM73.0029 398.615L73.9888 398.447C74.2695 400.098 74.5646 401.744 74.8739 403.384L73.8912 403.57C73.5808 401.923 73.2846 400.272 73.0029 398.615ZM74.8664 408.499L75.8456 408.296C76.1859 409.939 76.5405 411.576 76.9093 413.208L75.9339 413.429C75.5638 411.791 75.2079 410.147 74.8664 408.499ZM77.087 418.326C77.4864 419.956 77.9001 421.582 78.3277 423.201L79.2946 422.946C78.8684 421.332 78.4563 419.713 78.0583 418.088L77.087 418.326ZM79.6585 428.062C80.1161 429.677 80.5878 431.285 81.0733 432.888L82.0304 432.598C81.5466 431.001 81.0766 429.398 80.6206 427.789L79.6585 428.062ZM82.5767 437.694L83.5283 437.387C84.0427 438.98 84.5709 440.568 85.1127 442.149L84.1668 442.473C83.6229 440.886 83.0928 439.293 82.5767 437.694ZM85.8394 447.214L86.7794 446.873C87.3509 448.448 87.9361 450.016 88.5348 451.577L87.6011 451.935C87.0002 450.368 86.4129 448.794 85.8394 447.214ZM89.4457 456.619L90.3728 456.245C90.9992 457.794 91.6391 459.337 92.2922 460.873L91.3719 461.265C90.7165 459.723 90.0743 458.175 89.4457 456.619ZM93.3857 465.884L94.2987 465.477C94.9809 467.004 95.6762 468.524 96.3847 470.037L95.4791 470.461C94.7681 468.943 94.0702 467.417 93.3857 465.884ZM97.6542 474.999L98.5521 474.559C99.2891 476.062 100.039 477.557 100.802 479.045L99.9124 479.501C99.1467 478.008 98.3939 476.507 97.6542 474.999ZM102.248 483.958L103.13 483.485C103.92 484.961 104.723 486.428 105.538 487.887L104.665 488.375C103.847 486.91 103.041 485.438 102.248 483.958ZM107.161 492.748L108.025 492.245C108.866 493.689 109.72 495.125 110.587 496.553L109.732 497.072C108.862 495.639 108.005 494.198 107.161 492.748ZM112.383 501.355L113.229 500.821C114.122 502.235 115.027 503.641 115.944 505.038L115.108 505.587C114.188 504.185 113.279 502.774 112.383 501.355ZM117.908 509.769L118.734 509.205C119.677 510.587 120.633 511.961 121.6 513.325L120.784 513.903C119.813 512.534 118.855 511.156 117.908 509.769ZM123.731 517.983L124.536 517.39C125.528 518.737 126.531 520.075 127.546 521.404L126.751 522.011C125.733 520.678 124.726 519.335 123.731 517.983ZM129.842 525.985L130.626 525.364C131.665 526.674 132.714 527.975 133.775 529.267L133.003 529.902C131.938 528.606 130.884 527.3 129.842 525.985ZM136.234 533.763L136.995 533.115C138.079 534.388 139.175 535.651 140.281 536.905L139.532 537.567C138.421 536.309 137.322 535.041 136.234 533.763ZM142.897 541.31L143.634 540.635C144.763 541.869 145.903 543.093 147.054 544.306L146.328 544.994C145.174 543.776 144.03 542.548 142.897 541.31ZM149.824 548.616L150.537 547.916C151.709 549.108 152.892 550.291 154.084 551.463L153.384 552.176C152.187 551 151 549.814 149.824 548.616ZM157.006 555.672L157.694 554.946C158.907 556.097 160.131 557.237 161.365 558.366L160.69 559.103C159.452 557.97 158.224 556.827 157.006 555.672ZM164.433 562.468L165.095 561.719C166.349 562.825 167.612 563.921 168.885 565.005L168.237 565.767C166.959 564.678 165.691 563.579 164.433 562.468ZM172.098 568.997L172.733 568.225C174.025 569.286 175.326 570.336 176.636 571.374L176.015 572.158C174.7 571.116 173.394 570.062 172.098 568.997ZM179.989 575.249L180.596 574.454C181.925 575.469 183.263 576.472 184.61 577.464L184.017 578.269C182.665 577.274 181.322 576.267 179.989 575.249ZM188.097 581.216L188.675 580.4C190.039 581.367 191.413 582.323 192.795 583.266L192.231 584.092C190.844 583.145 189.466 582.187 188.097 581.216ZM196.413 586.892L196.962 586.056C198.359 586.973 199.765 587.878 201.179 588.771L200.645 589.617C199.226 588.721 197.815 587.812 196.413 586.892ZM204.928 592.268L205.447 591.413C206.875 592.28 208.311 593.134 209.755 593.975L209.252 594.839C207.802 593.995 206.361 593.138 204.928 592.268ZM213.625 597.335C215.09 598.153 216.562 598.959 218.042 599.752L218.515 598.87C217.039 598.08 215.572 597.277 214.113 596.462L213.625 597.335ZM222.499 602.088L222.955 601.198C224.443 601.961 225.938 602.711 227.441 603.448L227.001 604.346C225.493 603.606 223.992 602.853 222.499 602.088ZM231.539 606.521L231.963 605.615C233.476 606.324 234.996 607.019 236.523 607.701L236.116 608.614C234.583 607.93 233.057 607.232 231.539 606.521ZM240.735 610.628L241.127 609.708C242.663 610.361 244.205 611.001 245.755 611.627L245.38 612.554C243.825 611.926 242.277 611.284 240.735 610.628ZM250.065 614.399L250.423 613.465C251.984 614.064 253.552 614.649 255.127 615.221L254.786 616.161C253.205 615.587 251.632 615 250.065 614.399ZM259.527 617.833L259.851 616.887C261.432 617.429 263.02 617.957 264.613 618.472L264.306 619.423C262.707 618.907 261.114 618.377 259.527 617.833ZM269.112 620.927L269.402 619.97C270.999 620.453 272.602 620.923 274.21 621.379L273.938 622.341C272.323 621.884 270.714 621.412 269.112 620.927ZM278.799 623.672L279.054 622.705C280.668 623.131 282.287 623.544 283.912 623.942L283.674 624.913C282.043 624.513 280.418 624.1 278.799 623.672ZM288.571 626.066L288.792 625.091C290.424 625.459 292.061 625.814 293.704 626.154L293.501 627.134C291.852 626.792 290.209 626.436 288.571 626.066ZM298.43 628.109L298.615 627.126C300.256 627.435 301.902 627.73 303.552 628.011L303.385 628.997C301.728 628.715 300.077 628.419 298.43 628.109ZM308.366 629.798L308.516 628.81C310.162 629.059 311.813 629.295 313.469 629.516L313.337 630.507C311.675 630.285 310.018 630.049 308.366 629.798ZM318.335 631.128L318.449 630.135C320.11 630.327 321.775 630.504 323.445 630.666L323.348 631.661C321.673 631.498 320.001 631.321 318.335 631.128ZM328.351 632.104L328.43 631.107C330.096 631.239 331.765 631.357 333.439 631.46L333.378 632.458C331.698 632.355 330.022 632.237 328.351 632.104ZM338.408 632.724L338.452 631.725C340.116 631.798 341.784 631.857 343.455 631.901L343.428 632.9C341.751 632.856 340.078 632.797 338.408 632.724ZM348.471 632.989L348.479 631.989C349.319 631.996 350.159 632 351 632C351.841 632 352.681 631.996 353.52 631.989L353.529 632.989C352.687 632.996 351.844 633 351 633C350.156 633 349.313 632.996 348.471 632.989ZM358.571 632.9L358.545 631.901C360.216 631.857 361.884 631.798 363.547 631.725L363.591 632.724C361.922 632.797 360.248 632.856 358.571 632.9ZM368.622 632.458L368.56 631.46C370.234 631.357 371.904 631.239 373.57 631.107L373.649 632.104C371.977 632.237 370.302 632.355 368.622 632.458ZM378.652 631.662L378.555 630.666C380.224 630.504 381.889 630.327 383.55 630.135L383.665 631.128C381.998 631.321 380.327 631.498 378.652 631.662ZM388.663 630.507L388.531 629.516C390.186 629.295 391.837 629.059 393.484 628.81L393.634 629.798C391.981 630.049 390.324 630.285 388.663 630.507ZM398.615 628.997L398.447 628.011C400.098 627.731 401.744 627.435 403.384 627.126L403.57 628.109C401.923 628.419 400.272 628.715 398.615 628.997ZM408.499 627.134L408.296 626.154C409.939 625.814 411.576 625.459 413.208 625.091L413.429 626.066C411.791 626.436 410.147 626.792 408.499 627.134ZM418.326 624.913L418.088 623.942C419.713 623.544 421.332 623.132 422.946 622.705L423.201 623.672C421.582 624.1 419.956 624.514 418.326 624.913ZM428.062 622.342L427.789 621.379C429.398 620.923 431.001 620.453 432.598 619.97L432.888 620.927C431.285 621.412 429.677 621.884 428.062 622.342ZM437.694 619.423C439.293 618.907 440.886 618.377 442.473 617.833L442.149 616.887C440.568 617.429 438.98 617.957 437.387 618.472L437.694 619.423ZM447.214 616.161L446.873 615.221C448.448 614.649 450.016 614.064 451.577 613.465L451.935 614.399C450.368 615 448.794 615.587 447.214 616.161ZM456.619 612.554C458.175 611.926 459.723 611.284 461.265 610.628L460.873 609.708C459.337 610.361 457.794 611.001 456.245 611.627L456.619 612.554ZM465.884 608.614L465.477 607.701C467.004 607.019 468.524 606.324 470.037 605.615L470.461 606.521C468.943 607.232 467.417 607.93 465.884 608.614ZM474.999 604.346L474.559 603.448C476.062 602.711 477.557 601.961 479.045 601.198L479.501 602.088C478.008 602.853 476.507 603.606 474.999 604.346ZM483.958 599.752L483.485 598.87C484.961 598.08 486.428 597.277 487.887 596.462L488.375 597.335C486.91 598.153 485.438 598.959 483.958 599.752ZM492.748 594.839L492.245 593.975C493.689 593.134 495.125 592.28 496.553 591.413L497.072 592.268C495.639 593.138 494.198 593.995 492.748 594.839ZM501.355 589.617L500.821 588.771C502.235 587.878 503.641 586.973 505.038 586.056L505.587 586.892C504.185 587.812 502.774 588.721 501.355 589.617ZM509.769 584.092L509.205 583.266C510.587 582.323 511.961 581.367 513.325 580.4L513.903 581.216C512.534 582.187 511.156 583.145 509.769 584.092ZM517.983 578.269L517.39 577.464C518.737 576.472 520.075 575.469 521.404 574.454L522.011 575.249C520.678 576.267 519.335 577.274 517.983 578.269ZM525.985 572.158L525.364 571.374C526.674 570.335 527.975 569.286 529.267 568.225L529.902 568.997C528.606 570.062 527.3 571.116 525.985 572.158ZM533.763 565.766L533.115 565.005C534.388 563.921 535.651 562.825 536.905 561.719L537.567 562.468C536.309 563.579 535.041 564.678 533.763 565.766ZM541.31 559.103L540.635 558.366C541.869 557.237 543.093 556.097 544.306 554.946L544.994 555.672C543.776 556.826 542.548 557.97 541.31 559.103ZM548.616 552.176L547.916 551.463C549.108 550.291 550.291 549.108 551.463 547.916L552.176 548.616C551 549.813 549.814 551 548.616 552.176ZM555.672 544.994L554.946 544.306C556.097 543.093 557.237 541.869 558.366 540.635L559.103 541.31C557.97 542.548 556.827 543.776 555.672 544.994ZM562.468 537.567L561.719 536.905C562.825 535.651 563.921 534.388 565.005 533.115L565.767 533.763C564.678 535.041 563.579 536.309 562.468 537.567ZM568.997 529.902L568.225 529.267C569.286 527.975 570.336 526.674 571.374 525.364L572.158 525.985C571.116 527.3 570.062 528.606 568.997 529.902ZM575.249 522.011L574.454 521.404C575.469 520.075 576.472 518.737 577.464 517.39L578.269 517.983C577.274 519.335 576.267 520.678 575.249 522.011ZM581.216 513.903L580.4 513.325C581.367 511.961 582.323 510.587 583.266 509.205L584.092 509.769C583.145 511.156 582.187 512.534 581.216 513.903ZM586.892 505.587L586.056 505.038C586.973 503.641 587.878 502.235 588.771 500.821L589.617 501.355C588.721 502.774 587.812 504.185 586.892 505.587ZM592.268 497.072L591.413 496.553C592.28 495.125 593.134 493.689 593.975 492.245L594.839 492.748C593.995 494.198 593.138 495.639 592.268 497.072ZM597.335 488.375C598.153 486.91 598.959 485.438 599.752 483.958L598.87 483.485C598.08 484.961 597.277 486.428 596.462 487.887L597.335 488.375ZM602.088 479.501L601.198 479.045C601.961 477.557 602.711 476.062 603.448 474.559L604.346 474.999C603.606 476.507 602.853 478.008 602.088 479.501ZM606.521 470.461L605.615 470.037C606.324 468.524 607.019 467.004 607.701 465.477L608.614 465.884C607.93 467.417 607.232 468.943 606.521 470.461ZM610.628 461.265L609.708 460.873C610.361 459.337 611.001 457.795 611.627 456.245L612.554 456.62C611.926 458.175 611.284 459.723 610.628 461.265ZM614.399 451.935C615 450.368 615.587 448.795 616.161 447.214L615.221 446.873C614.649 448.448 614.064 450.016 613.465 451.577L614.399 451.935ZM617.833 442.473L616.887 442.149C617.429 440.568 617.957 438.98 618.472 437.387L619.423 437.694C618.907 439.293 618.377 440.886 617.833 442.473ZM620.927 432.888L619.97 432.598C620.453 431.001 620.923 429.398 621.379 427.79L622.341 428.062C621.884 429.677 621.412 431.286 620.927 432.888ZM623.672 423.201L622.705 422.946C623.131 421.332 623.544 419.713 623.942 418.088L624.913 418.326C624.514 419.957 624.1 421.582 623.672 423.201ZM626.066 413.429L625.091 413.208C625.459 411.576 625.814 409.939 626.154 408.296L627.134 408.499C626.792 410.148 626.436 411.791 626.066 413.429ZM628.109 403.57L627.126 403.385C627.435 401.744 627.73 400.098 628.011 398.448L628.997 398.615C628.715 400.272 628.419 401.923 628.109 403.57ZM629.798 393.634L628.81 393.484C629.059 391.838 629.295 390.187 629.516 388.531L630.507 388.663C630.285 390.325 630.049 391.982 629.798 393.634ZM631.128 383.665L630.135 383.551C630.327 381.89 630.504 380.225 630.666 378.555L631.661 378.652C631.498 380.327 631.321 381.999 631.128 383.665ZM632.104 373.649L631.107 373.57C631.239 371.904 631.357 370.235 631.46 368.561L632.458 368.622C632.355 370.302 632.237 371.978 632.104 373.649ZM632.724 363.592L631.725 363.548C631.798 361.884 631.857 360.216 631.901 358.545L632.9 358.572C632.856 360.249 632.797 361.922 632.724 363.592Z" fill="black" fill-opacity="0.2"/>
</svg>
